{
.appVersion = "3315";
.formatVersion = 3;
DisplayStrings = (
"ÁÁÄÄÀÀÅÅÉÉËËÈÈÍÍÏÏÌÌÑÓÓÖÖÒÒÚÚÜÜÙÙÝÝááääààååééëëèèííïïììóóööòòúúüüùùýýÿÿ
-­
",
"&"
);
customParameters = (
{
name = glyphOrder;
value = (
space,
A,
B,
C,
D,
E,
F,
G,
H,
I,
J,
K,
L,
M,
N,
O,
P,
Q,
R,
S,
T,
U,
V,
W,
X,
Y,
Z,
a,
b,
c,
d,
e,
f,
g,
h,
i,
j,
k,
l,
m,
n,
o,
p,
q,
r,
s,
t,
u,
v,
w,
x,
y,
z,
zero,
one,
two,
three,
four,
five,
six,
seven,
eight,
nine,
onesuperior,
twosuperior,
threesuperior,
ordfeminine,
ordmasculine,
onehalf,
onequarter,
threequarters,
AE,
ae,
eth,
Thorn,
thorn,
germandbls,
dollar,
cent,
sterling,
yen,
currency,
exclam,
exclamdown,
question,
questiondown,
comma,
period,
colon,
semicolon,
periodcentered,
bullet,
underscore,
hyphen,
endash,
emdash,
quotesingle,
quotedbl,
quoteleft,
quoteright,
quotesinglbase,
quotedblleft,
quotedblright,
quotedblbase,
parenleft,
parenright,
bracketleft,
bracketright,
braceleft,
braceright,
guilsinglleft,
guilsinglright,
plus,
plusminus,
multiply,
divide,
equal,
less,
greater,
logicalnot,
slash,
backslash,
percent,
bar,
brokenbar,
copyright,
registered,
degree,
asterisk,
numbersign,
ampersand,
at,
section,
paragraph,
asciicircum,
asciitilde,
Aacute,
Acircumflex,
Adieresis,
Agrave,
Aring,
Atilde,
Ccedilla,
Eacute,
Ecircumflex,
Edieresis,
Egrave,
Eth,
Iacute,
Icircumflex,
Idieresis,
Igrave,
Ntilde,
Oacute,
Ocircumflex,
Odieresis,
Ograve,
Oslash,
Otilde,
Uacute,
Ucircumflex,
Udieresis,
Ugrave,
Yacute,
aacute,
acircumflex,
adieresis,
agrave,
aring,
atilde,
ccedilla,
eacute,
ecircumflex,
edieresis,
egrave,
iacute,
icircumflex,
idieresis,
igrave,
ntilde,
oacute,
ocircumflex,
odieresis,
ograve,
oslash,
otilde,
uacute,
ucircumflex,
udieresis,
ugrave,
yacute,
ydieresis,
grave,
acute,
macron,
dieresis,
ring,
cedilla,
.null,
guillemotright,
nonmarkingreturn,
dotlessi,
.notdef,
uni00AD,
guillemotleft,
mu,
uni00A0,
OE,
oe,
circumflex,
tilde,
ellipsis,
fraction,
foursuperior,
Euro,
minus,
divisionslash
);
},
{
name = openTypeHeadFlags;
value = (
0,
3,
4
);
},
{

glyphs = (
{
glyphname = A;
lastChange = "2024-08-09 09:20:29 +0000";
layers = (
{
layerId = m001;
shapes = (
{
closed = 1;
nodes = (
(110,14,l),
(212,194,o),
(415,551,o),
(516,732,q),
(567,551,o),
(668,194,o),
(719,14,q),
(794,14,l),
(793,0,l),
(619,0,l),
(620,14,l),
(704,14,l),
(683,89,o),
(641,240,o),
(619,316,q),
(297,316,l),
(126,14,l),
(210,14,l),
(209,0,l),
(35,0,l),
(36,14,l)
);
},
{
closed = 1;
nodes = (
(615,330,l),
(517,675,l),
(512,700,l),
(506.03,688.06,o,{
name = inserted;
}),
(500.119,677.239,o),
(499,675,qs),
(453,587,o),
(353,417,o),
(304,330,q)
);
}
);
width = 828;
},
{
layerId = "D2CF1DA5-D903-47D8-B1EF-8AECFD40CAE8";
shapes = (
{
closed = 1;
nodes = (
(128,79,l),
(220,244,o),
(404,567,o),
(496,732,q),
(543,567,o),
(635,244,o),
(682,79,q),
(764,79,l),
(753,0,l),
(531,0,l),
(542,79,l),
(598,79,l),
(584,129,o),
(556,227,o),
(542,277,q),
(322,277,l),
(211,79,l),
(268,79,l),
(257,0,l),
(35,0,l),
(46,79,l)
);
},
{
closed = 1;
nodes = (
(520,356,l),
(475,515,l),
(470,548,l),
(457.829,521.225,o),
(454,514,o),
(449,505,qs),
(434,478,o),
(386,388,o),
(368,356,q)
);
}
);
width = 788;
}
);
unicode = 65;
},
{
glyphname = B;
lastChange = "2024-08-09 09:20:29 +0000";
layers = (
{
layerId = m001;
shapes = (
{
closed = 1;
nodes = (
(107,14,l),
(202,686,l),
(131,686,l),
(133,700,l),
(349,700,ls),
(394,700,o),
(466,680,o),
(490,659,qs,{
name = inserted;
}),
(514,638,o),
(534,571,o),
(527,525,qs),
(519,463,o),
(443,369,o),
(376,352,q),
(406,346,o),
(457,318,o),
(475.5,296,qs,{
name = inserted;
}),
(494,274,o),
(511,216,o),
(506,180,qs),
(500,135,o),
(455,68,o),
(422,45.5,qs,{
name = inserted;
}),
(389,23,o),
(310,0,o),
(269,0,qs),
(35,0,l),
(36,14,l)
);
},
{
closed = 1;
nodes = (
(121,14,l),
(269,14,ls),
(309,14,o),
(385,34,o),
(415,54.5,qs,{
name = inserted;
}),
(445,75,o),
(485,136,o),
(491,177,qs),
(497,220,o),
(470,284,o),
(442,304,qs,{
name = inserted;
}),
(414,324,o),
(339,344,o),
(297,344,qs),
(168,344,l)
);
},
{
closed = 1;
nodes = (
(170,358,l),
(317,358,ls),
(357,358,o),
(424,383,o),
(450,405.5,qs,{
name = inserted;
}),
(476,428,o),
(509,490,o),
(514,528,qs),
(520,570,o),
(502,630,o),
(481.5,649,qs,{
name = inserted;
}),
(461,668,o),
(398,686,o),
(359,686,qs),
(216,686,l)
);
}
);
width = 516;
},
{
layerId = "D2CF1DA5-D903-47D8-B1EF-8AECFD40CAE8";
shapes = (
{
closed = 1;
nodes = (
(91,79,l),
(167,621,l),
(122,621,l),
(133,700,l),
(361,700,ls),
(410,700,o),
(488,680,o),
(514,659,qs,{
name = inserted;
}),
(540,638,o),
(562,571,o),
(555,525,qs),
(547,463,o),
(475,369,o),
(412,352,q),
(440,346,o),
(488,318,o),
(504.5,296,qs,{
name = inserted;
}),
(521,274,o),
(537,216,o),
(532,180,qs),
(526,135,o),
(478,68,o),
(443.5,45.5,qs,{
name = inserted;
}),
(409,23,o),
(324,0,o),
(281,0,qs),
(35,0,l),
(46,79,l)
);
},
{
closed = 1;
nodes = (
(174,79,l),
(285,79,ls),
(316,79,o),
(372,93,o),
(394.5,107.5,qs,{
name = inserted;
}),
(417,122,o),
(447,164,o),
(451,193,qs),
(455,224,o),
(434,270,o),
(413,284.5,qs,{
name = inserted;
}),
(392,299,o),
(334,313,o),
(303,313,qs),
(206,313,l)
);
},
{
closed = 1;
nodes = (
(218,392,l),
(326,392,ls),
(359,392,o),
(412,413,o),
(431,432,qs),
(446,447,o),
(466,488,o),
(470,512,qs),
(474,539,o),
(464,578,o),
(451,591,qs),
(437,607,o),
(388,621,o),
(356,621,qs),
(250,621,l)
);
}
);
width = 542;
}
);
unicode = 66;
},
{
glyphname = C;
lastChange = "2024-08-09 09:20:29 +0000";
layers = (
{
layerId = m001;
shapes = (
{
closed = 1;
nodes = (
(653,649,l),
(617.5,671.5,o,{
name = inserted;
}),
(536,694,o),
(490,694,qs),
(419,694,o),
(287,639,o),
(233.5,592,qs,{
name = inserted;
}),
(180,545,o),
(109,419,o),
(99,348,qs),
(89,277,o),
(125,153,o),
(164.5,106.5,qs,{
name = inserted;
}),
(204,60,o),
(320,6,o),
(390,6,qs),
(438,6,o),
(531,31,o),
(573,54,q),
(581,42,l),
(537,19,o),
(443,-8,o),
(392,-8,qs),
(318,-8,o),
(196,48,o),
(154,96.5,qs,{
name = inserted;
}),
(112,145,o),
(74,275,o),
(85,349,qs),
(95,423,o),
(170,554,o),
(225,602.5,qs,{
name = inserted;
}),
(280,651,o),
(418,708,o),
(492,708,qs),
(543,708,o),
(631,682,o),
(668,658,q),
(652,546,l),
(638,546,l)
);
}
);
width = 610;
},
{
layerId = "D2CF1DA5-D903-47D8-B1EF-8AECFD40CAE8";
shapes = (
{
closed = 1;
nodes = (
(582,607,l),
(558.5,618,o,{
name = inserted;
}),
(508,629,o),
(481,629,qs),
(424,629,o),
(318,585,o),
(275.5,546.5,qs,{
name = inserted;
}),
(233,508,o),
(176,406,o),
(168,349,qs),
(160,292,o),
(189,190,o),
(221,152.5,qs,{
name = inserted;
}),
(253,115,o),
(346,71,o),
(403,71,qs),
(439.5,71,o,{
name = inserted;
}),
(510.5,89.5,o),
(545,108,q),
(581,42,l),
(537,19,o),
(443,-8,o),
(392,-8,qs),
(318,-8,o),
(196,48,o),
(154,96.5,qs,{
name = inserted;
}),
(112,145,o),
(74,275,o),
(85,349,qs),
(95,423,o),
(170,554,o),
(225,602.5,qs,{
name = inserted;
}),
(280,651,o),
(418,708,o),
(492,708,qs),
(543,708,o),
(631,682,o),
(668,658,q),
(652,546,l),
(573,546,l)
);
}
);
width = 610;
}
);
unicode = 67;
},
{
glyphname = D;
lastChange = "2024-08-09 09:20:29 +0000";
layers = (
{
layerId = m001;
shapes = (
{
closed = 1;
nodes = (
(109,14,l),
(204,686,l),
(131,686,l),
(133,700,l),
(343,700,ls),
(415,700,o),
(536,651,o),
(577.5,605.5,qs,{
name = inserted;
}),
(619,560,o),
(657,430,o),
(646,350,qs),
(637,291,o),
(579,167,o),
(526,116,qs,{
name = inserted;
}),
(473,65,o),
(317,0,o),
(211,0,qs),
(35,0,l),
(36,14,l)
);
},
{
closed = 1;
nodes = (
(123,14,l),
(221,14,ls),
(320,14,o),
(468,77,o),
(518,125.5,qs,{
name = inserted;
}),
(568,174,o),
(625,293,o),
(633,350,qs),
(644,427,o),
(608,552,o),
(568.5,595.5,qs,{
name = inserted;
}),
(529,639,o),
(414,686,o),
(347,686,qs),
(218,686,l)
);
}
);
width = 632;
},
{
layerId = "D2CF1DA5-D903-47D8-B1EF-8AECFD40CAE8";
shapes = (
{
closed = 1;
nodes = (
(93,80,l),
(169,621,l),
(122,621,l),
(133,700,l),
(343,700,ls),
(415,700,o),
(536,651,o),
(577.5,605,qs,{
name = inserted;
}),
(619,559,o),
(657,430,o),
(646,349,qs),
(637,290,o),
(579,166,o),
(526,115.5,qs,{
name = inserted;
}),
(473,65,o),
(317,0,o),
(211,0,qs),
(35,0,l),
(46,80,l)
);
},
{
closed = 1;
nodes = (
(176,80,l),
(246,80,ls),
(305,80,o),
(412,118,o),
(454.5,153.5,qs,{
name = inserted;
}),
(497,189,o),
(554,288,o),
(563,350,qs),
(572,412,o),
(543,512,o),
(510,547.5,qs,{
name = inserted;
}),
(477,583,o),
(381,621,o),
(322,621,qs),
(252,621,l)
);
}
);
width = 632;
}
);
unicode = 68;
},
{
glyphname = E;
lastChange = "2024-08-09 09:20:29 +0000";
layers = (
{
layerId = m001;
shapes = (
{
closed = 1;
nodes = (
(118,14,l),
(213,686,l),
(131,686,l),
(133,700,l),
(620,700,l),
(598,546,l),
(584,546,l),
(604,686,l),
(227,686,l),
(181,360,l),
(533,360,l),
(531,346,l),
(179,346,l),
(132,14,l),
(523,14,l),
(543,154,l),
(557,154,l),
(536,0,l),
(35,0,l),
(36,14,l)
);
}
);
width = 571;
},
{
layerId = "D2CF1DA5-D903-47D8-B1EF-8AECFD40CAE8";
shapes = (
{
closed = 1;
nodes = (
(102,79,l),
(178,621,l),
(122,621,l),
(133,700,l),
(620,700,l),
(598,546,l),
(519,546,l),
(530,621,l),
(261,621,l),
(229,392,l),
(538,392,l),
(526,313,l),
(217,313,l),
(185,79,l),
(468,79,l),
(478,154,l),
(557,154,l),
(536,0,l),
(35,0,l),
(46,79,l)
);
}
);
width = 571;
}
);
unicode = 69;
},
{
glyphname = F;
lastChange = "2024-08-09 09:20:29 +0000";
layers = (
{
layerId = m001;
shapes = (
{
closed = 1;
nodes = (
(118,14,l),
(213,686,l),
(131,686,l),
(133,700,l),
(620,700,l),
(598,546,l),
(584,546,l),
(604,686,l),
(227,686,l),
(181,360,l),
(533,360,l),
(531,346,l),
(179,346,l),
(132,14,l),
(210,14,l),
(209,0,l),
(35,0,l),
(36,14,l)
);
}
);
width = 557;
},
{
layerId = "D2CF1DA5-D903-47D8-B1EF-8AECFD40CAE8";
shapes = (
{
closed = 1;
nodes = (
(102,79,l),
(178,621,l),
(122,621,l),
(133,700,l),
(620,700,l),
(598,546,l),
(519,546,l),
(530,621,l),
(261,621,l),
(229,392,l),
(538,392,l),
(526,313,l),
(217,313,l),
(185,79,l),
(288,79,l),
(277,0,l),
(35,0,l),
(46,79,l)
);
}
);
width = 557;
}
);
unicode = 70;
},
{
glyphname = G;
lastChange = "2024-08-09 09:20:29 +0000";
layers = (
{
layerId = m001;
shapes = (
{
closed = 1;
nodes = (
(529,40,l),
(486,17,o),
(392,-10,o),
(341,-10,qs),
(267,-10,o),
(145,46,o),
(103,94.5,qs,{
name = inserted;
}),
(61,143,o),
(23,273,o),
(33,347,qs),
(43,421,o),
(118,552,o),
(173.5,600.5,qs,{
name = inserted;
}),
(229,649,o),
(367,706,o),
(441,706,qs),
(492,706,o),
(579,680,o),
(617,656,q),
(607,644,l),
(572,667,o),
(487,692,o),
(439,692,qs),
(368,692,o),
(235,637,o),
(182,590,qs,{
name = inserted;
}),
(129,543,o),
(57,417,o),
(47,346,qs),
(37,275,o),
(73,151,o),
(113,104.5,qs,{
name = inserted;
}),
(153,58,o),
(269,4,o),
(339,4,qs),
(386,4,o),
(474,27,o),
(516,49,q),
(550,284,l),
(378,284,l),
(379,298,l),
(565,298,l)
);
}
);
width = 609;
},
{
layerId = "D2CF1DA5-D903-47D8-B1EF-8AECFD40CAE8";
shapes = (
{
closed = 1;
nodes = (
(529,40,l),
(486,17,o),
(392,-10,o),
(341,-10,qs),
(267,-10,o),
(145,46,o),
(103,94.5,qs,{
name = inserted;
}),
(61,143,o),
(23,273,o),
(33,347,qs),
(43,421,o),
(118,552,o),
(173.5,600.5,qs,{
name = inserted;
}),
(229,649,o),
(367,706,o),
(441,706,qs),
(492,706,o),
(579,680,o),
(617,656,q),
(561,589,l),
(533,607,o),
(468,627,o),
(430,627,qs),
(373,627,o),
(267,583,o),
(224.5,544.5,qs,{
name = inserted;
}),
(182,506,o),
(124,404,o),
(116,347,qs),
(108,290,o),
(137,188,o),
(169,150.5,qs,{
name = inserted;
}),
(201,113,o),
(294,69,o),
(351,69,qs),
(377,69,o,{
name = inserted;
}),
(428,78,o),
(453,87,q),
(471,219,l),
(368,219,l),
(379,298,l),
(565,298,l)
);
}
);
width = 609;
}
);
unicode = 71;
},
{
glyphname = H;
lastChange = "2024-08-09 09:20:29 +0000";
layers = (
{
layerId = m001;
shapes = (
{
closed = 1;
nodes = (
(779,700,l),
(777,686,l),
(700,686,l),
(605,14,l),
(682,14,l),
(681,0,l),
(507,0,l),
(508,14,l),
(591,14,l),
(638,346,l),
(174,346,l),
(127,14,l),
(210,14,l),
(209,0,l),
(35,0,l),
(36,14,l),
(113,14,l),
(208,686,l),
(131,686,l),
(133,700,l),
(307,700,l),
(305,686,l),
(222,686,l),
(176,360,l),
(640,360,l),
(686,686,l),
(603,686,l),
(605,700,l)
);
}
);
width = 716;
},
{
layerId = "D2CF1DA5-D903-47D8-B1EF-8AECFD40CAE8";
shapes = (
{
closed = 1;
nodes = (
(835,700,l),
(824,621,l),
(745,621,l),
(669,79,l),
(748,79,l),
(737,0,l),
(495,0,l),
(506,79,l),
(586,79,l),
(618,313,l),
(240,313,l),
(208,79,l),
(288,79,l),
(277,0,l),
(35,0,l),
(46,79,l),
(125,79,l),
(201,621,l),
(122,621,l),
(133,700,l),
(375,700,l),
(364,621,l),
(284,621,l),
(252,392,l),
(630,392,l),
(662,621,l),
(582,621,l),
(593,700,l)
);
}
);
width = 772;
}
);
unicode = 72;
},
{
glyphname = I;
lastChange = "2024-08-09 09:20:29 +0000";
layers = (
{
layerId = m001;
shapes = (
{
closed = 1;
nodes = (
(113,14,l),
(208,686,l),
(131,686,l),
(133,700,l),
(307,700,l),
(305,686,l),
(222,686,l),
(127,14,l),
(210,14,l),
(209,0,l),
(35,0,l),
(36,14,l)
);
}
);
width = 244;
},
{
layerId = "D2CF1DA5-D903-47D8-B1EF-8AECFD40CAE8";
shapes = (
{
closed = 1;
nodes = (
(125,79,l),
(201,621,l),
(122,621,l),
(133,700,l),
(375,700,l),
(364,621,l),
(284,621,l),
(208,79,l),
(288,79,l),
(277,0,l),
(35,0,l),
(46,79,l)
);
}
);
width = 312;
}
);
unicode = 73;
},
{
glyphname = J;
lastChange = "2024-08-09 09:20:29 +0000";
layers = (
{
layerId = m001;
shapes = (
{
closed = 1;
nodes = (
(278,700,l),
(192,90,ls),
(184,34,o),
(143,-51,o),
(113.5,-80,qs,{
name = inserted;
}),
(84,-109,o),
(13,-141,o),
(-24,-142,q),
(-23,-128,l),
(14,-126,o),
(80,-95,o),
(107,-66.5,qs,{
name = inserted;
}),
(134,-38,o),
(171,42,o),
(178,93,qs),
(262,686,l),
(91,686,l),
(93,700,l)
);
}
);
width = 255;
},
{
layerId = "D2CF1DA5-D903-47D8-B1EF-8AECFD40CAE8";
shapes = (
{
closed = 1;
nodes = (
(334,700,l),
(248,90,ls),
(240,34,o),
(191,-52,o),
(155,-81.5,qs,{
name = inserted;
}),
(119,-111,o),
(27,-143,o),
(-24,-144,q),
(-14,-65,l),
(20,-63,o),
(81,-41,o),
(105,-21,qs,{
name = inserted;
}),
(129,-1,o),
(160,56,o),
(165,93,qs),
(240,621,l),
(82,621,l),
(93,700,l)
);
}
);
width = 311;
}
);
unicode = 74;
},
{
glyphname = K;
lastChange = "2024-08-09 09:20:29 +0000";
layers = (
{
layerId = m001;
shapes = (
{
closed = 1;
nodes = (
(544,14,l),
(480,114,o),
(352,314,o),
(287,414,q),
(169,316,l),
(158,240,o),
(138,89,o),
(127,14,q),
(210,14,l),
(209,0,l),
(35,0,l),
(36,14,l),
(113,14,l),
(208,686,l),
(131,686,l),
(133,700,l),
(307,700,l),
(305,686,l),
(222,686,l),
(176,360,ls),
(175,352,o),
(172,339,o),
(171,331,q),
(191,351,l),
(589,686,l),
(525,686,l),
(527,700,l),
(701,700,l),
(699,686,l),
(611,686,l),
(299,424,l),
(366,321,o),
(498,117,o),
(564,14,q),
(652,14,l),
(651,0,l),
(477,0,l),
(478,14,l)
);
}
);
width = 686;
},
{
layerId = "D2CF1DA5-D903-47D8-B1EF-8AECFD40CAE8";
shapes = (
{
closed = 1;
nodes = (
(492,79,l),
(445,150,o),
(353,291,o),
(308,363,q),
(237,304,l),
(229,247,o),
(214,136,o),
(206,79,q),
(288,79,l),
(277,0,l),
(35,0,l),
(46,79,l),
(123,79,l),
(199,621,l),
(122,621,l),
(133,700,l),
(355,700,l),
(344,621,l),
(282,621,l),
(254,426,l),
(252,418,o),
(249,402,o),
(247,394,q),
(269,417,l),
(512,621,l),
(475,621,l),
(486,700,l),
(708,700,l),
(697,621,l),
(614,621,l),
(370,416,l),
(425,331,o),
(534,164,o),
(590,79,q),
(662,79,l),
(651,0,l),
(429,0,l),
(440,79,l)
);
}
);
width = 686;
}
);
unicode = 75;
},
{
glyphname = L;
lastChange = "2024-08-09 09:20:29 +0000";
layers = (
{
layerId = m001;
shapes = (
{
closed = 1;
nodes = (
(113,14,l),
(208,686,l),
(131,686,l),
(133,700,l),
(307,700,l),
(305,686,l),
(222,686,l),
(127,14,l),
(518,14,l),
(538,154,l),
(552,154,l),
(531,0,l),
(35,0,l),
(36,14,l)
);
}
);
width = 566;
},
{
layerId = "D2CF1DA5-D903-47D8-B1EF-8AECFD40CAE8";
shapes = (
{
closed = 1;
nodes = (
(102,79,l),
(178,621,l),
(122,621,l),
(133,700,l),
(355,700,l),
(344,621,l),
(261,621,l),
(185,79,l),
(468,79,l),
(478,154,l),
(557,154,l),
(536,0,l),
(35,0,l),
(46,79,l)
);
}
);
width = 571;
}
);
unicode = 76;
},
{
glyphname = M;
lastChange = "2024-08-09 09:20:29 +0000";
layers = (
{
background = {
shapes = (
{
closed = 1;
nodes = (
(36,14,l),
(113,14,l),
(208,686,l),
(131,686,l),
(133,700,l),
(233,700,l),
(513,253,l),
(919,700,l),
(1019,700,l),
(1017,686,l),
(940,686,l),
(845,14,l),
(927,14,l),
(926,0,l),
(752,0,l),
(753,14,l),
(831,14,l),
(920,645,ls),
(922,660,o),
(925,678,o),
(927,690,q),
(923,685,o),
(909,669,o),
(905,665,qs),
(510,228,l),
(242,656,ls),
(235,667,o),
(228,679,o),
(221,690,q),
(220,679,o),
(218,658,o),
(216,644,qs),
(127,14,l),
(210,14,l),
(209,0,l),
(35,0,l)
);
}
);
};
layerId = m001;
shapes = (
{
closed = 1;
nodes = (
(36,14,l),
(113,14,l),
(208,686,l),
(131,686,l),
(133,700,l),
(233,700,l),
(513,253,l),
(919,700,l),
(1019,700,l),
(1017,686,l),
(940,686,l),
(845,14,l),
(927,14,l),
(926,0,l),
(752,0,l),
(753,14,l),
(831,14,l),
(920,645,ls),
(922,660,o),
(925,678,o),
(927,690,q),
(923,685,o),
(909,669,o),
(905,665,qs),
(510,228,l),
(242,656,ls),
(235,667,o),
(228,679,o),
(221,690,q),
(220,679,o),
(218,658,o),
(216,644,qs),
(127,14,l),
(210,14,l),
(209,0,l),
(35,0,l)
);
}
);
width = 961;
},
{
layerId = "D2CF1DA5-D903-47D8-B1EF-8AECFD40CAE8";
shapes = (
{
closed = 1;
nodes = (
(46,79,l),
(133,79,l),
(209,621,l),
(122,621,l),
(133,700,l),
(245,700,l),
(524,257,l),
(927,700,l),
(1039,700,l),
(1028,621,l),
(941,621,l),
(865,79,l),
(952,79,l),
(941,0,l),
(699,0,l),
(710,79,l),
(782,79,l),
(835,450,ls),
(836,458,o),
(842,494,o),
(844,502,q),
(835,491,o),
(816,467,o),
(806,456,qs),
(505,125,l),
(297,457,ls),
(288,471,o),
(277,492,o),
(272,502,q),
(272,494,o),
(270,463,o),
(269,455,qs),
(216,79,l),
(288,79,l),
(277,0,l),
(35,0,l)
);
}
);
width = 976;
}
);
unicode = 77;
},
{
glyphname = N;
lastChange = "2024-08-09 09:20:29 +0000";
layers = (
{
layerId = m001;
shapes = (
{
closed = 1;
nodes = (
(240,670,l),
(225,690,l),
(223,664,l),
(132,14,l),
(215,14,l),
(213,0,l),
(39,0,l),
(41,14,l),
(118,14,l),
(212,686,l),
(135,686,l),
(137,700,l),
(240,700,l),
(701,28,l),
(716,2,l),
(718,34,l),
(809,686,l),
(731,686,l),
(733,700,l),
(907,700,l),
(905,686,l),
(823,686,l),
(723,-32,l)
);
}
);
width = 840;
},
{
layerId = "D2CF1DA5-D903-47D8-B1EF-8AECFD40CAE8";
shapes = (
{
closed = 1;
nodes = (
(297,512,l),
(282,538,l),
(280,506,l),
(220,79,l),
(292,79,l),
(281,0,l),
(39,0,l),
(50,79,l),
(137,79,l),
(213,621,l),
(126,621,l),
(137,700,l),
(253,700,l),
(663,177,l),
(678,151,l),
(680,183,l),
(741,621,l),
(669,621,l),
(680,700,l),
(922,700,l),
(911,621,l),
(824,621,l),
(733,-32,l)
);
}
);
width = 855;
}
);
unicode = 78;
},
{
glyphname = O;
lastChange = "2024-08-09 09:20:29 +0000";
layers = (
{
layerId = m001;
shapes = (
{
closed = 1;
nodes = (
(95,423,o),
(170,554,o),
(225,602.5,qs,{
name = inserted;
}),
(280,651,o),
(418,708,o),
(492,708,qs),
(566,708,o),
(689,651,o),
(731,602.5,qs,{
name = inserted;
}),
(773,554,o),
(811,423,o),
(801,349,qs),
(790,275,o),
(716,145,o),
(660.5,96.5,qs,{
name = inserted;
}),
(605,48,o),
(466,-8,o),
(392,-8,qs),
(318,-8,o),
(196,48,o),
(154,96.5,qs,{
name = inserted;
}),
(112,145,o),
(74,275,o),
(85,349,qs)
);
},
{
closed = 1;
nodes = (
(89,277,o),
(125,153,o),
(164.5,106.5,qs,{
name = inserted;
}),
(204,60,o),
(320,6,o),
(390,6,qs),
(461,6,o),
(596,60,o),
(650,106.5,qs,{
name = inserted;
}),
(704,153,o),
(777,278,o),
(787,349,qs),
(797,420,o),
(760,545,o),
(719.5,592,qs,{
name = inserted;
}),
(679,639,o),
(561,694,o),
(490,694,qs),
(419,694,o),
(287,639,o),
(233.5,592,qs,{
name = inserted;
}),
(180,545,o),
(109,419,o),
(99,348,qs)
);
}
);
width = 786;
},
{
layerId = "D2CF1DA5-D903-47D8-B1EF-8AECFD40CAE8";
shapes = (
{
closed = 1;
nodes = (
(95,422,o),
(169,553,o),
(224.5,602,qs,{
name = inserted;
}),
(280,651,o),
(418,708,o),
(492,708,qs),
(565,708,o),
(688,651,o),
(730,602,qs,{
name = inserted;
}),
(772,553,o),
(811,422,o),
(801,349,qs),
(790,275,o),
(715,145,o),
(659.5,96.5,qs,{
name = inserted;
}),
(604,48,o),
(465,-8,o),
(392,-8,qs),
(318,-8,o),
(196,48,o),
(154,96.5,qs,{
name = inserted;
}),
(112,145,o),
(74,275,o),
(85,349,qs)
);
},
{
closed = 1;
nodes = (
(160,291,o),
(189,190,o),
(221,152.5,qs,{
name = inserted;
}),
(253,115,o),
(347,71,o),
(404,71,qs),
(461,71,o),
(567,115,o),
(609.5,152.5,qs,{
name = inserted;
}),
(652,190,o),
(710,291,o),
(718,349,qs),
(726,407,o),
(697,508,o),
(664.5,546,qs,{
name = inserted;
}),
(632,584,o),
(539,628,o),
(482,628,qs),
(425,628,o),
(319,584,o),
(276,546,qs,{
name = inserted;
}),
(233,508,o),
(176,407,o),
(168,349,qs)
);
}
);
width = 786;
}
);
unicode = 79;
},
{
glyphname = P;
lastChange = "2024-08-09 09:20:29 +0000";
layers = (
{
layerId = m001;
shapes = (
{
closed = 1;
nodes = (
(107,14,l),
(202,686,l),
(131,686,l),
(133,700,l),
(344,700,ls),
(373,700,o),
(440,680,o),
(467,659,qs,{
name = inserted;
}),
(494,638,o),
(526,570,o),
(519,522,qs),
(507,439,o),
(382,341,o),
(279,341,qs),
(167,341,l),
(121,14,l),
(210,14,l),
(209,0,l),
(35,0,l),
(36,14,l)
);
},
{
closed = 1;
nodes = (
(284,355,ls),
(342,355,o),
(423,387,o),
(449,411.5,qs,{
name = inserted;
}),
(475,436,o),
(501,495,o),
(505,522,qs),
(509,555,o),
(488,614,o),
(464.5,636.5,qs,{
name = inserted;
}),
(441,659,o),
(374,686,o),
(332,686,qs),
(216,686,l),
(169,355,l)
);
}
);
width = 481;
},
{
layerId = "D2CF1DA5-D903-47D8-B1EF-8AECFD40CAE8";
shapes = (
{
closed = 1;
nodes = (
(91,79,l),
(167,621,l),
(122,621,l),
(133,700,l),
(343,700,ls),
(377,700,o),
(457,679,o),
(489.5,656,qs,{
name = inserted;
}),
(522,633,o),
(560,561,o),
(553,510,qs),
(540,419,o),
(417,312,o),
(315,312,qs),
(206,312,l),
(174,79,l),
(288,79,l),
(277,0,l),
(35,0,l),
(46,79,l)
);
},
{
closed = 1;
nodes = (
(305,392,ls),
(349,392,o),
(409,415,o),
(428.5,432,qs,{
name = inserted;
}),
(448,449,o),
(467,491,o),
(470,510,qs),
(473,532,o),
(456,572,o),
(438.5,587.5,qs,{
name = inserted;
}),
(421,603,o),
(369,621,o),
(338,621,qs),
(250,621,l),
(218,392,l)
);
}
);
width = 517;
}
);
unicode = 80;
},
{
glyphname = Q;
lastChange = "2024-08-09 09:20:29 +0000";
layers = (
{
layerId = m001;
shapes = (
{
closed = 1;
nodes = (
(89,277,o),
(125,153,o),
(164.5,106.5,qs,{
name = inserted;
}),
(204,60,o),
(320,6,o),
(390,6,qs),
(461,6,o),
(596,60,o),
(650,106.5,qs,{
name = inserted;
}),
(704,153,o),
(777,278,o),
(787,349,qs),
(797,420,o),
(760,545,o),
(719.5,592,qs,{
name = inserted;
}),
(679,639,o),
(561,694,o),
(490,694,qs),
(419,694,o),
(287,639,o),
(233.5,592,qs,{
name = inserted;
}),
(180,545,o),
(109,419,o),
(99,348,qs)
);
},
{
closed = 1;
nodes = (
(95,423,o),
(170,554,o),
(225,602.5,qs,{
name = inserted;
}),
(280,651,o),
(418,708,o),
(492,708,qs),
(566,708,o),
(689,651,o),
(731,602.5,qs,{
name = inserted;
}),
(773,554,o),
(811,423,o),
(801,349,qs),
(793,291,o),
(743,186,o),
(705.5,142.5,qs,{
name = inserted;
}),
(668,99,o),
(573,33,o),
(519,14,q),
(776,14,l),
(774,0,l),
(467,0,l),
(447,-4,o,{
name = inserted;
}),
(409.5,-8,o),
(392,-8,qs),
(318,-8,o),
(196,48,o),
(154,96.5,qs,{
name = inserted;
}),
(112,145,o),
(74,275,o),
(85,349,qs)
);
}
);
width = 808;
},
{
layerId = "D2CF1DA5-D903-47D8-B1EF-8AECFD40CAE8";
shapes = (
{
closed = 1;
nodes = (
(160,292,o),
(189,190,o),
(221,152.5,qs,{
name = inserted;
}),
(253,115,o),
(346,71,o),
(403,71,qs),
(460,71,o),
(566,115,o),
(609,152.5,qs,{
name = inserted;
}),
(652,190,o),
(710,292,o),
(718,349,qs),
(726,406,o),
(696,508,o),
(664,546.5,qs,{
name = inserted;
}),
(632,585,o),
(538,629,o),
(481,629,qs),
(424,629,o),
(318,585,o),
(275.5,546.5,qs,{
name = inserted;
}),
(233,508,o),
(176,406,o),
(168,349,qs)
);
},
{
closed = 1;
nodes = (
(95,423,o),
(170,554,o),
(225,602,qs,{
name = inserted;
}),
(280,651,o),
(418,708,o),
(492,708,qs),
(566,708,o),
(689,651,o),
(731,602,qs,{
name = inserted;
}),
(773,554,o),
(811,423,o),
(801,349,qs),
(794,301,o),
(757,212,o),
(729,173,qs),
(710,147,o),
(664,99,o),
(638,79,q),
(785,79,l),
(774,0,l),
(467,0,l),
(447,-4,o,{
name = inserted;
}),
(410,-8,o),
(392,-8,qs),
(318,-8,o),
(196,48,o),
(154,96,qs,{
name = inserted;
}),
(112,145,o),
(74,275,o),
(85,349,qs)
);
}
);
width = 808;
}
);
unicode = 81;
},
{
glyphname = R;
lastChange = "2024-08-09 09:20:29 +0000";
layers = (
{
layerId = m001;
shapes = (
{
closed = 1;
nodes = (
(107,14,l),
(202,686,l),
(131,686,l),
(133,700,l),
(344,700,ls),
(373,700,o),
(440,680,o),
(467,659,qs,{
name = inserted;
}),
(494,638,o),
(526,570,o),
(519,522,qs),
(509,453,o),
(418,360,o),
(342,346,q),
(451,14,l),
(535,14,l),
(534,0,l),
(442,0,l),
(327,344,l),
(315.5,342.5,o,{
name = inserted;
}),
(291.5,341,o),
(279,341,qs),
(167,341,l),
(121,14,l),
(210,14,l),
(209,0,l),
(35,0,l),
(36,14,l)
);
},
{
closed = 1;
nodes = (
(284,355,ls),
(342,355,o),
(423,387,o),
(449,411.5,qs,{
name = inserted;
}),
(475,436,o),
(501,495,o),
(505,522,qs),
(509,555,o),
(488,614,o),
(464.5,636.5,qs,{
name = inserted;
}),
(441,659,o),
(374,686,o),
(332,686,qs),
(216,686,l),
(169,355,l)
);
}
);
width = 569;
},
{
layerId = "D2CF1DA5-D903-47D8-B1EF-8AECFD40CAE8";
shapes = (
{
closed = 1;
nodes = (
(91,79,l),
(167,621,l),
(122,621,l),
(133,700,l),
(343,700,ls),
(377,700,o),
(457,679,o),
(489.5,656,qs,{
name = inserted;
}),
(522,633,o),
(560,561,o),
(553,510,qs),
(542,435,o),
(453,334,o),
(379,318,q),
(458,79,l),
(552,79,l),
(541,0,l),
(395,0,l),
(291,312,l),
(277,312,o),
(262,312,o),
(248,312,qs),
(206,312,l),
(174,79,l),
(288,79,l),
(277,0,l),
(35,0,l),
(46,79,l)
);
},
{
closed = 1;
nodes = (
(305,392,ls),
(349,392,o),
(409,415,o),
(428.5,432,qs,{
name = inserted;
}),
(448,449,o),
(467,491,o),
(470,510,qs),
(473,532,o),
(456,572,o),
(438.5,587.5,qs,{
name = inserted;
}),
(421,603,o),
(369,621,o),
(338,621,qs),
(250,621,l),
(218,392,l)
);
}
);
width = 576;
}
);
unicode = 82;
},
{
glyphname = S;
lastChange = "2024-08-09 09:20:29 +0000";
layers = (
{
layerId = m001;
shapes = (
{
closed = 1;
nodes = (
(70,164,l),
(84,164,l),
(71,74,l),
(96,45,o),
(175,6,o),
(237,6,qs),
(276,6,o),
(351,31,o),
(382.5,54,qs,{
name = inserted;
}),
(414,77,o),
(456,142,o),
(462,182,qs),
(469,228,o),
(446,289,o),
(423.5,308.5,qs,{
name = inserted;
}),
(401,328,o),
(340,351,o),
(307.5,360.5,qs,{
name = inserted;
}),
(275,370,o),
(211,391,o),
(187,407.5,qs,{
name = inserted;
}),
(163,424,o),
(136,476,o),
(139,517,qs),
(142,550,o),
(170,617,o),
(195,644,qs,{
name = inserted;
}),
(220,671,o),
(291,704,o),
(338,704,qs),
(354,704,o),
(392,700,o),
(411,695.5,qs,{
name = inserted;
}),
(430,691,o),
(465,673,o),
(479,660,q),
(463,546,l),
(449,546,l),
(464,653,l),
(447,668,o),
(382,690,o),
(334,690,qs),
(295,690,o),
(233,663,o),
(210,640.5,qs,{
name = inserted;
}),
(187,618,o),
(159,561,o),
(155,530,qs),
(149,489,o),
(174,438,o),
(197,421.5,qs,{
name = inserted;
}),
(220,405,o),
(283,385,o),
(316,375,qs,{
name = inserted;
}),
(349,365,o),
(412,340,o),
(435.5,319.5,qs,{
name = inserted;
}),
(459,299,o),
(483,235,o),
(477,186,qs),
(472,142,o),
(429,70,o),
(396.5,44.5,qs,{
name = inserted;
}),
(364,19,o),
(282,-8,o),
(238,-8,qs),
(198,-8,o),
(137,8,o),
(115,19.5,qs,{
name = inserted;
}),
(93,31,o),
(64,55,o),
(56,64,q)
);
}
);
width = 478;
},
{
layerId = "D2CF1DA5-D903-47D8-B1EF-8AECFD40CAE8";
shapes = (
{
closed = 1;
nodes = (
(51,209,l),
(130,209,l),
(117,120,l),
(141,100,o),
(209,71,o),
(254,71,qs),
(280,71,o),
(330,86,o),
(350,100,qs,{
name = inserted;
}),
(371,115,o),
(399,159,o),
(403,188,qs),
(409,227,o),
(388,277,o),
(368,293,qs,{
name = inserted;
}),
(347,309,o),
(291,329,o),
(262,338,qs,{
name = inserted;
}),
(233,348,o),
(177,371,o),
(157,390,qs,{
name = inserted;
}),
(137,410,o),
(116,470,o),
(122,517,qs),
(126,550,o),
(155,616,o),
(182,643,qs,{
name = inserted;
}),
(209,670,o),
(290,704,o),
(345,704,qs),
(363,704,o),
(404,700,o),
(426,694,qs,{
name = inserted;
}),
(448,688,o),
(494,664,o),
(515,644,q),
(501,546,l),
(422,546,l),
(431,605,l),
(413,613,o),
(364,625,o),
(334,625,qs),
(307,625,o),
(263,609,o),
(247,596,qs),
(229,580,o),
(208,538,o),
(205,514,qs),
(201,484,o),
(224,447,o),
(245,434,qs,{
name = inserted;
}),
(266,422,o),
(322,404,o),
(352,394,qs,{
name = inserted;
}),
(381,383,o),
(435,354,o),
(455,330,qs,{
name = inserted;
}),
(475,307,o),
(493,238,o),
(486,187,qs),
(480,142,o),
(436,70,o),
(404,44,qs,{
name = inserted;
}),
(373,19,o),
(293,-8,o),
(251,-8,qs),
(213,-8,o),
(144,9,o),
(116,23,qs,{
name = inserted;
}),
(87,37,o),
(45,73,o),
(35,93,q)
);
}
);
width = 478;
}
);
unicode = 83;
},
{
glyphname = T;
lastChange = "2024-08-09 09:20:29 +0000";
layers = (
{
layerId = m001;
shapes = (
{
closed = 1;
nodes = (
(305,14,l),
(400,686,l),
(145,686,l),
(125,546,l),
(111,546,l),
(133,700,l),
(686,700,l),
(664,546,l),
(650,546,l),
(670,686,l),
(414,686,l),
(319,14,l),
(400,14,l),
(399,0,l),
(225,0,l),
(226,14,l)
);
}
);
width = 623;
},
{
layerId = "D2CF1DA5-D903-47D8-B1EF-8AECFD40CAE8";
shapes = (
{
closed = 1;
nodes = (
(282,79,l),
(358,621,l),
(201,621,l),
(190,546,l),
(111,546,l),
(133,700,l),
(686,700,l),
(664,546,l),
(585,546,l),
(596,621,l),
(441,621,l),
(365,79,l),
(438,79,l),
(427,0,l),
(185,0,l),
(196,79,l)
);
}
);
width = 623;
}
);
unicode = 84;
},
{
glyphname = U;
lastChange = "2024-08-09 09:20:29 +0000";
layers = (
{
layerId = m001;
shapes = (
{
closed = 1;
nodes = (
(308,700,l),
(306,686,l),
(223,686,l),
(159,229,ls),
(151,175,o),
(171,92,o),
(195,63.5,qs,{
name = inserted;
}),
(219,35,o),
(292,6,o),
(338,6,qs),
(383,6,o),
(465,35,o),
(497.5,63.5,qs,{
name = inserted;
}),
(530,92,o),
(573,175,o),
(581,229,qs),
(645,686,l),
(562,686,l),
(564,700,l),
(738,700,l),
(736,686,l),
(659,686,l),
(594,226,ls),
(586,169,o),
(540,81,o),
(505.5,51.5,qs,{
name = inserted;
}),
(471,22,o),
(385,-8,o),
(337,-8,qs),
(289,-8,o),
(210,22,o),
(184,51.5,qs,{
name = inserted;
}),
(158,81,o),
(136,169,o),
(144,226,qs),
(209,686,l),
(132,686,l),
(134,700,l)
);
}
);
width = 674;
},
{
layerId = "D2CF1DA5-D903-47D8-B1EF-8AECFD40CAE8";
shapes = (
{
closed = 1;
nodes = (
(376,700,l),
(365,621,l),
(283,621,l),
(228,229,ls),
(222,190,o),
(239,130,o),
(259,110,qs),
(279,91,o),
(338,71,o),
(375,71,qs),
(412,71,o),
(477,92,o),
(503,112,qs,{
name = inserted;
}),
(528,132,o),
(561,191,o),
(567,229,qs),
(622,621,l),
(540,621,l),
(551,700,l),
(793,700,l),
(782,621,l),
(705,621,l),
(649,226,ls),
(641,169,o),
(590,81,o),
(552,52,qs,{
name = inserted;
}),
(514,22,o),
(418,-8,o),
(364,-8,qs),
(310,-8,o),
(222,22,o),
(192,52,qs,{
name = inserted;
}),
(162,81,o),
(136,169,o),
(144,226,qs),
(200,621,l),
(123,621,l),
(134,700,l)
);
}
);
width = 729;
}
);
unicode = 85;
},
{
glyphname = V;
lastChange = "2024-08-09 09:20:29 +0000";
layers = (
{
layerId = m001;
shapes = (
{
closed = 1;
nodes = (
(311,700,l),
(309,686,l),
(233,686,l),
(280,519,o),
(373,191,o),
(421,25,q),
(426,0,l),
(439,25,ls),
(532,191,o),
(717,519,o),
(811,686,q),
(735,686,l),
(737,700,l),
(911,700,l),
(909,686,l),
(826,686,l),
(725,505,o),
(523,148,o),
(422,-32,q),
(371,148,o),
(268,505,o),
(217,686,q),
(135,686,l),
(137,700,l)
);
}
);
width = 844;
},
{
layerId = "D2CF1DA5-D903-47D8-B1EF-8AECFD40CAE8";
shapes = (
{
closed = 1;
nodes = (
(379,700,l),
(368,621,l),
(296,621,l),
(328,512,o),
(388,294,o),
(420,185,q),
(424,152,l),
(438,185,l),
(500,294,o),
(622,511,o),
(683,621,q),
(624,621,l),
(635,700,l),
(877,700,l),
(866,621,l),
(767,621,l),
(675,456,o),
(491,133,o),
(399,-32,q),
(352,133,o),
(260,456,o),
(213,621,q),
(126,621,l),
(137,700,l)
);
}
);
width = 810;
}
);
unicode = 86;
},
{
glyphname = W;
lastChange = "2024-08-09 09:20:29 +0000";
layers = (
{
layerId = m001;
shapes = (
{
closed = 1;
nodes = (
(311,700,l),
(309,686,l),
(233,686,l),
(279,519,o),
(371,190,o),
(421,25,q),
(426,0,l),
(481,108,o),
(604,319,o),
(664,425,q),
(646,490,o),
(609,620,o),
(590,686,q),
(511,686,l),
(513,700,l),
(687,700,l),
(685,686,l),
(605,686,l),
(651,519,o),
(743,190,o),
(793,25,q),
(798,0,l),
(811,25,ls),
(904,191,o),
(1089,519,o),
(1183,686,q),
(1111,686,l),
(1113,700,l),
(1287,700,l),
(1285,686,l),
(1198,686,l),
(1097,505,o),
(895,148,o),
(794,-32,q),
(675,385,l),
(669,407,l),
(606,297,o),
(484,78,o),
(422,-32,q),
(371,148,o),
(268,505,o),
(217,686,q),
(135,686,l),
(137,700,l)
);
}
);
width = 1220;
},
{
layerId = "D2CF1DA5-D903-47D8-B1EF-8AECFD40CAE8";
shapes = (
{
closed = 1;
nodes = (
(379,700,l),
(368,621,l),
(296,621,l),
(328,512,o),
(388,294,o),
(420,185,q),
(424,152,l),
(461,229,o),
(570.595,419.274,o),
(619,506,q),
(611,535,o),
(594,592,o),
(586,621,q),
(494,621,l),
(505,700,l),
(747,700,l),
(736,621,l),
(669,621,l),
(701,512,o),
(761,294,o),
(793,185,q),
(797,152,l),
(811,185,ls),
(819,203,o),
(995,511,o),
(1056,621,q),
(992,621,l),
(1003,700,l),
(1245,700,l),
(1234,621,l),
(1140,621,l),
(1048,456,o),
(864,133,o),
(772,-32,q),
(653,385,l),
(648,420,l),
(604,318,o),
(459,76,o),
(399,-32,q),
(352,133,o),
(260,456,o),
(213,621,q),
(126,621,l),
(137,700,l)
);
}
);
width = 1178;
}
);
unicode = 87;
},
{
glyphname = X;
lastChange = "2024-08-09 09:20:29 +0000";
layers = (
{
layerId = m001;
shapes = (
{
closed = 1;
nodes = (
(307,700,l),
(305,686,l),
(246,686,l),
(286,609,o),
(363,457,o),
(402,381,qs),
(408,368,l),
(418,381,l),
(656,686,l),
(597,686,l),
(599,700,l),
(773,700,l),
(771,686,l),
(672,686,l),
(607,602,o),
(479,439,o),
(415,356,q),
(458,269,o),
(545,100,o),
(589,14,q),
(676,14,l),
(675,0,l),
(501,0,l),
(502,14,l),
(572,14,l),
(436,279,ls),
(427,296,o),
(411,332,o),
(401,348,q),
(392,335,l),
(329,254,o),
(203,95,o),
(140,14,q),
(210,14,l),
(209,0,l),
(35,0,l),
(36,14,l),
(125,14,l),
(395,360,l),
(230,686,l),
(131,686,l),
(133,700,l)
);
}
);
width = 710;
},
{
layerId = "D2CF1DA5-D903-47D8-B1EF-8AECFD40CAE8";
shapes = (
{
closed = 1;
nodes = (
(375,700,l),
(364,621,l),
(309,621,l),
(331,577,o),
(375,492,o),
(397,449,q),
(406,422,l),
(423,449,l),
(559,621,l),
(504,621,l),
(515,700,l),
(757,700,l),
(746,621,l),
(660,621,l),
(606,553,o),
(501,418,o),
(447,351,q),
(482,282,o),
(552,148,o),
(587,79,q),
(670,79,l),
(659,0,l),
(417,0,l),
(428,79,l),
(483,79,l),
(392,258,l),
(389,265,o),
(384,279,o),
(382,286,q),
(365,258,l),
(329,213,o),
(259,124,o),
(224,79,q),
(288,79,l),
(277,0,l),
(35,0,l),
(46,79,l),
(121,79,l),
(342,357,l),
(207,621,l),
(122,621,l),
(133,700,l)
);
}
);
width = 694;
}
);
unicode = 88;
},
{
glyphname = Y;
lastChange = "2024-08-09 09:20:29 +0000";
layers = (
{
layerId = m001;
shapes = (
{
closed = 1;
nodes = (
(353,14,l),
(388,262,l),
(339,368,o),
(242,580,o),
(193,686,q),
(131,686,l),
(133,700,l),
(307,700,l),
(305,686,l),
(210,686,l),
(255,588,o),
(345,396,o),
(388,298,q),
(397,272,l),
(398,272,l),
(412,298,l),
(698,686,l),
(605,686,l),
(607,700,l),
(781,700,l),
(779,686,l),
(715,686,l),
(637,579,o),
(480,368,o),
(402,262,q),
(367,14,l),
(448,14,l),
(447,0,l),
(273,0,l),
(274,14,l)
);
}
);
width = 718;
},
{
layerId = "D2CF1DA5-D903-47D8-B1EF-8AECFD40CAE8";
shapes = (
{
closed = 1;
nodes = (
(355,79,l),
(381,270,l),
(341,358,o),
(262,533,o),
(223,621,q),
(122,621,l),
(133,700,l),
(375,700,l),
(364,621,l),
(324,621,l),
(352,560,o),
(407,438,o),
(435,377,q),
(442,346,l),
(443,346,l),
(459,377,l),
(638,621,l),
(599,621,l),
(610,700,l),
(852,700,l),
(841,621,l),
(740,621,l),
(675,533,o),
(548,357,o),
(483,269,q),
(457,79,l),
(530,79,l),
(519,0,l),
(277,0,l),
(288,79,l)
);
}
);
width = 789;
}
);
unicode = 89;
},
{
glyphname = Z;
lastChange = "2024-08-09 09:20:29 +0000";
layers = (
{
layerId = m001;
shapes = (
{
closed = 1;
nodes = (
(594,0,l),
(35,0,l),
(36,14,l),
(641,686,l),
(148,686,l),
(155,735,l),
(171,735,l),
(166,700,l),
(663,700,l),
(661,686,l),
(56,14,l),
(581,14,l),
(604,174,l),
(618,174,l)
);
}
);
width = 629;
},
{
layerId = "D2CF1DA5-D903-47D8-B1EF-8AECFD40CAE8";
shapes = (
{
closed = 1;
nodes = (
(594,0,l),
(35,0,l),
(46,80,l),
(550,621,l),
(138,621,l),
(154,735,l),
(237,735,l),
(232,700,l),
(663,700,l),
(652,621,l),
(148,80,l),
(526,80,l),
(549,242,l),
(628,242,l)
);
}
);
width = 629;
}
);
unicode = 90;
},
{
glyphname = a;
lastChange = "2024-08-09 09:20:29 +0000";
layers = (
{
layerId = m001;
shapes = (
{
closed = 1;
nodes = (
(68,228,o),
(108,300,o),
(138,326,qs,{
name = inserted;
}),
(168,352,o),
(242,383,o),
(283,383,qs),
(314,383,o),
(367,365,o),
(389,349,qs,{
name = inserted;
}),
(410,332,o),
(440,287,o),
(447,260,q),
(451,289,o),
(462,346,o),
(467,375,q),
(477,375,l),
(426,14,l),
(499,14,l),
(497,0,l),
(410,0,l),
(418,54,ls),
(420,70,o),
(426,101,o),
(428,117,q),
(419,100,o),
(396,70,o),
(382,57,qs),
(352,28,o),
(273,-6,o),
(229,-6,qs),
(188,-6,o),
(122,24,o),
(100,51,qs,{
name = inserted;
}),
(77,77,o),
(56,147,o),
(62,188,qs)
);
},
{
closed = 1;
nodes = (
(71,150,o),
(89,85,o),
(110,60.5,qs,{
name = inserted;
}),
(131,36,o),
(192,8,o),
(230,8,qs),
(267,8,o),
(338,36,o),
(366,60.5,qs,{
name = inserted;
}),
(394,85,o),
(432,150,o),
(437,188,qs),
(442,225,o),
(423,291,o),
(402,316,qs,{
name = inserted;
}),
(381,341,o),
(318,369,o),
(281,369,qs),
(243,369,o),
(174,341,o),
(146,316,qs,{
name = inserted;
}),
(118,291,o),
(81,225,o),
(76,188,qs)
);
}
);
width = 532;
},
{
layerId = "D2CF1DA5-D903-47D8-B1EF-8AECFD40CAE8";
shapes = (
{
closed = 1;
nodes = (
(68,226,o),
(109,298,o),
(140,325,qs,{
name = inserted;
}),
(171,352,o),
(249,384,o),
(291,384,qs),
(318,384,o),
(361,371,o),
(377,362,qs,{
name = inserted;
}),
(393,352,o),
(410,331,o),
(410,328,q),
(412,339,o),
(418,363,o),
(420,375,q),
(489,375,l),
(448,79,l),
(524,79,l),
(513,0,l),
(364,0,l),
(366,20,ls),
(367,27,o),
(368,35,o),
(369,40,q),
(367,37,o),
(347,21,o),
(330,12.5,qs,{
name = inserted;
}),
(313,4,o),
(265,-9,o),
(236,-9,qs),
(194,-9,o),
(124,22,o),
(101,49,qs,{
name = inserted;
}),
(78,76,o),
(56,147,o),
(62,187,qs)
);
},
{
closed = 1;
nodes = (
(142,160,o),
(158,112,o),
(176,96,qs),
(189,85,o),
(225,72,o),
(247,72,qs),
(273,72,o),
(318,90,o),
(336,106,qs,{
name = inserted;
}),
(354,121,o),
(377,163,o),
(380,187,qs),
(384,213,o),
(372,256,o),
(358,271,qs),
(345,286,o),
(304,302,o),
(279,302,qs),
(253,302,o),
(208,286,o),
(190,270,qs,{
name = inserted;
}),
(172,255,o),
(149,213,o),
(146,188,qs)
);
}
);
width = 547;
}
);
unicode = 97;
},
{
glyphname = b;
lastChange = "2024-08-09 09:20:29 +0000";
layers = (
{
layerId = m001;
shapes = (
{
closed = 1;
nodes = (
(35,0,l),
(37,14,l),
(110,14,l),
(212,736,l),
(139,736,l),
(141,750,l),
(228,750,l),
(167,321,ls),
(165,306,o),
(161,275,o),
(159,260,q),
(188,314,o),
(294,383,o),
(357,383,qs),
(397,383,o),
(464,352,o),
(486.5,326,qs,{
name = inserted;
}),
(509,300,o),
(530,228,o),
(524,188,qs),
(518,147,o),
(478,77,o),
(448,50.5,qs,{
name = inserted;
}),
(418,24,o),
(343,-6,o),
(303,-6,qs),
(240,-6,o),
(152,63,o),
(138,117,q),
(136,101,o),
(132,70,o),
(130,54,qs),
(122,0,l)
);
},
{
closed = 1;
nodes = (
(515,225,o),
(496,291,o),
(475,316,qs,{
name = inserted;
}),
(454,341,o),
(392,369,o),
(355,369,qs),
(317,369,o),
(248,341,o),
(220,316,qs,{
name = inserted;
}),
(192,291,o),
(154,225,o),
(149,188,qs),
(144,150,o),
(163,85,o),
(184,60.5,qs,{
name = inserted;
}),
(205,36,o),
(266,8,o),
(304,8,qs),
(341,8,o),
(411,36,o),
(439,60.5,qs,{
name = inserted;
}),
(467,85,o),
(505,150,o),
(510,188,qs)
);
}
);
width = 532;
},
{
layerId = "D2CF1DA5-D903-47D8-B1EF-8AECFD40CAE8";
shapes = (
{
closed = 1;
nodes = (
(36,0,l),
(47,79,l),
(123,79,l),
(206,671,l),
(140,671,l),
(151,750,l),
(300,750,l),
(247,369,ls),
(246,360,o),
(242,344,o),
(240,338,q),
(255,356,o),
(318,384,o),
(366,384,qs),
(408,384,o),
(477,353,o),
(501,326,qs,{
name = inserted;
}),
(524,299,o),
(545,228,o),
(539,188,qs),
(533,148,o),
(492,76,o),
(462,49,qs,{
name = inserted;
}),
(431,22,o),
(353,-9,o),
(311,-9,qs),
(253.817,-9,o),
(192.029,33.913,o),
(190,40,q),
(190,33,o),
(188,19,o),
(187,14,qs),
(185,0,l)
);
},
{
closed = 1;
nodes = (
(459,215,o),
(446,259,o),
(431,274,qs),
(417,288,o),
(378,303,o),
(354,303,qs),
(328,303,o),
(283,286,o),
(265,270,qs,{
name = inserted;
}),
(247,255,o),
(224,213,o),
(221,188,qs),
(217,159,o),
(234,110,o),
(253,94,qs),
(266,84,o),
(301,72,o),
(322,72,qs),
(348,72,o),
(393,90,o),
(411,106,qs,{
name = inserted;
}),
(429,121,o),
(452,164,o),
(455,188,qs)
);
}
);
width = 547;
}
);
unicode = 98;
},
{
glyphname = c;
lastChange = "2024-08-09 09:20:29 +0000";
layers = (
{
layerId = m001;
shapes = (
{
closed = 1;
nodes = (
(329,17,o),
(264,-6,o),
(229,-6,qs),
(188,-6,o),
(122,24,o),
(99.5,50.5,qs,{
name = inserted;
}),
(77,77,o),
(56,147,o),
(62,188,qs),
(68,228,o),
(108,300,o),
(138,326,qs,{
name = inserted;
}),
(168,352,o),
(242,383,o),
(283,383,qs),
(318,383,o),
(378,360,o),
(400,340,q),
(388,253,l),
(374,253,l),
(385,332,l),
(364,349,o),
(312,369,o),
(281,369,qs),
(243,369,o),
(174,341,o),
(146,316,qs,{
name = inserted;
}),
(118,291,o),
(81,225,o),
(76,188,qs),
(71,150,o),
(89,85,o),
(110,60.5,qs,{
name = inserted;
}),
(131,36,o),
(192,8,o),
(230,8,qs),
(262,8,o),
(323,29,o),
(349,47,q),
(358,37,l)
);
}
);
width = 387;
},
{
layerId = "D2CF1DA5-D903-47D8-B1EF-8AECFD40CAE8";
shapes = (
{
closed = 1;
nodes = (
(337,14,o),
(271,-9,o),
(235,-9,qs),
(193,-9,o),
(125,22,o),
(102,49,qs,{
name = inserted;
}),
(78,76,o),
(56,147,o),
(62,188,qs),
(68,228,o),
(109,300,o),
(140,326,qs,{
name = inserted;
}),
(171,353,o),
(248,384,o),
(290,384,qs),
(327,384,o),
(388,361,o),
(411,341,q),
(394,225,l),
(320,225,l),
(330,292,l),
(318,298,o,{
name = inserted;
}),
(292,303,o),
(278,303,qs),
(252,303,o),
(207,286,o),
(189,270,qs,{
name = inserted;
}),
(171,255,o),
(148,213,o),
(145,188,qs),
(141,161,o),
(156,114,o),
(173,98,qs),
(186,86,o),
(223,72,o),
(246,72,qs),
(268,72,o,{
name = inserted;
}),
(307,84,o),
(324,97,q),
(366,34,l)
);
}
);
width = 397;
}
);
unicode = 99;
},
{
glyphname = d;
lastChange = "2024-08-09 09:20:29 +0000";
layers = (
{
layerId = m001;
shapes = (
{
closed = 1;
nodes = (
(420,70,o),
(426,101,o),
(428,117,q),
(399,63,o),
(292,-6,o),
(229,-6,qs),
(188,-6,o),
(122,24,o),
(99.5,50.5,qs,{
name = inserted;
}),
(77,77,o),
(56,147,o),
(62,188,qs),
(68,228,o),
(108,300,o),
(138,326,qs,{
name = inserted;
}),
(168,352,o),
(242,383,o),
(283,383,qs),
(346,383,o),
(433,314,o),
(447,260,q),
(452,290,o),
(459,349,o),
(464,379,qs),
(514,736,l),
(441,736,l),
(443,750,l),
(530,750,l),
(426,14,l),
(499,14,l),
(497,0,l),
(410,0,l),
(418,54,ls)
);
},
{
closed = 1;
nodes = (
(71,150,o),
(89,85,o),
(110,60.5,qs,{
name = inserted;
}),
(131,36,o),
(192,8,o),
(230,8,qs),
(267,8,o),
(338,36,o),
(366,60.5,qs,{
name = inserted;
}),
(394,85,o),
(432,150,o),
(437,188,qs),
(442,225,o),
(423,291,o),
(402,316,qs,{
name = inserted;
}),
(381,341,o),
(318,369,o),
(281,369,qs),
(243,369,o),
(174,341,o),
(146,316,qs,{
name = inserted;
}),
(118,291,o),
(81,225,o),
(76,188,qs)
);
}
);
width = 532;
},
{
layerId = "D2CF1DA5-D903-47D8-B1EF-8AECFD40CAE8";
shapes = (
{
closed = 1;
nodes = (
(368,27,o),
(369,35,o),
(370,40,q),
(355,23,o),
(293.326,-9,o),
(236,-9,qs),
(194,-9,o),
(124,22,o),
(101,49,qs,{
name = inserted;
}),
(78,76,o),
(56,148,o),
(62,188,qs),
(68,228,o),
(109,299,o),
(140,326,qs,{
name = inserted;
}),
(171,353,o),
(249,384,o),
(291,384,qs),
(331,384,o),
(396,351,o),
(404,337,q),
(403,345,o),
(406,369,o),
(407,377,qs),
(448,671,l),
(382,671,l),
(393,750,l),
(542,750,l),
(448,79,l),
(524,79,l),
(513,0,l),
(365,0,l),
(367,20,ls)
);
},
{
closed = 1;
nodes = (
(142,161,o),
(156,115,o),
(172,99,qs),
(186,87,o),
(224,72,o),
(247,72,qs),
(273,72,o),
(318,90,o),
(336,106,qs,{
name = inserted;
}),
(354,121,o),
(377,164,o),
(380,188,qs),
(383,212,o),
(374,252,o),
(362,267,qs),
(349,284,o),
(306,303,o),
(279,303,qs),
(253,303,o),
(208,286,o),
(190,270,qs,{
name = inserted;
}),
(172,255,o),
(149,213,o),
(146,188,qs)
);
}
);
width = 547;
}
);
unicode = 100;
},
{
glyphname = e;
lastChange = "2024-08-09 09:20:29 +0000";
layers = (
{
layerId = m001;
shapes = (
{
closed = 1;
nodes = (
(236,369,o),
(156,328,o),
(127,295,qs,{
name = inserted;
}),
(98,262,o),
(69,178,o),
(75,135,q),
(162,168,o),
(332,233,o),
(418,266,q),
(404,312,o),
(331,369,o),
(281,369,qs)
);
},
{
closed = 1;
nodes = (
(345,224,o),
(168,157,o),
(78,122,q),
(91,71,o),
(172,8,o),
(230,8,qs),
(266,8,o),
(334,34,o),
(361,57,q),
(363,54,o),
(367,49,o),
(369,46,q),
(339,22,o),
(268,-6,o),
(229,-6,qs),
(188,-6,o),
(122,24,o),
(100,50,qs,{
name = inserted;
}),
(77,77,o),
(56,147,o),
(62,188,qs),
(68,228,o),
(108,300,o),
(138,326,qs,{
name = inserted;
}),
(168,352,o),
(242,383,o),
(283,383,qs),
(313,383,o),
(366,363,o),
(386,345,qs),
(404,329,o),
(429,285,o),
(435,259,q)
);
}
);
width = 435;
},
{
layerId = "D2CF1DA5-D903-47D8-B1EF-8AECFD40CAE8";
shapes = (
{
closed = 1;
nodes = (
(252,303,o),
(207,286,o),
(190,272,qs),
(173,258,o),
(150,219,o),
(146,196,q),
(196,213,o),
(294,248,o),
(343,265,q),
(332,282,o),
(299,303,o),
(278,303,qs)
);
},
{
closed = 1;
nodes = (
(371,193,o),
(229,143,o),
(157,118,q),
(169,97,o),
(215,72,o),
(246,72,qs),
(269,72,o),
(310,89,o),
(326,104,q),
(337,89,o),
(358,59,o),
(369,44,q),
(340,19,o),
(273,-9,o),
(235,-9,qs),
(193,-9,o),
(125,22,o),
(101.5,49,qs,{
name = inserted;
}),
(78,76,o),
(56,147,o),
(62,188,qs),
(68,228,o),
(109,300,o),
(140,326.5,qs,{
name = inserted;
}),
(171,353,o),
(248,384,o),
(290,384,qs),
(321,384,o),
(374,359,o),
(394,337,qs,{
name = inserted;
}),
(413,315,o),
(438,254,o),
(442,218,q)
);
}
);
width = 450;
}
);
unicode = 101;
},
{
glyphname = f;
lastChange = "2024-08-09 09:20:29 +0000";
layers = (
{
layerId = m001;
shapes = (
{
closed = 1;
nodes = (
(97,14,l),
(146,361,l),
(85,361,l),
(87,375,l),
(148,375,l),
(168,518,ls),
(176,573,o),
(217,659,o),
(246.5,688,qs,{
name = inserted;
}),
(276,717,o),
(348,748,o),
(386,750,q),
(384,736,l),
(350,736,o),
(284,706,o),
(256.5,678,qs,{
name = inserted;
}),
(229,650,o),
(190,571,o),
(183,522,qs),
(162,375,l),
(292,375,l),
(290,361,l),
(160,361,l),
(111,14,l),
(210,14,l),
(209,0,l),
(35,0,l),
(36,14,l)
);
}
);
width = 281;
},
{
layerId = "D2CF1DA5-D903-47D8-B1EF-8AECFD40CAE8";
shapes = (
{
closed = 1;
nodes = (
(107,79,l),
(137,294,l),
(76,294,l),
(87,375,l),
(147,375,l),
(167,517,ls),
(175,573,o),
(224,659,o),
(260,688,qs,{
name = inserted;
}),
(297,718,o),
(389,749,o),
(441,751,q),
(430,672,l),
(397,670,o),
(339,650,o),
(316,633,qs),
(290,613,o),
(256,553,o),
(250,514,qs),
(230,375,l),
(348,375,l),
(337,294,l),
(219,294,l),
(189,79,l),
(268,79,l),
(257,0,l),
(35,0,l),
(46,79,l)
);
}
);
width = 336;
}
);
unicode = 102;
},
{
glyphname = g;
lastChange = "2024-08-09 09:20:29 +0000";
layers = (
{
layerId = m001;
shapes = (
{
closed = 1;
nodes = (
(585,375,l),
(583,361,l),
(509,361,l),
(456,-18,ls),
(448,-74,o),
(407,-159,o),
(377.5,-188,qs,{
name = inserted;
}),
(348,-217,o),
(277,-249,o),
(239,-250,q),
(188,-250,o),
(117,-222,o),
(96,-190,q),
(110,-183,l),
(130,-213,o),
(199,-236,o),
(235,-236,qs),
(269,-236,o),
(341,-206,o),
(368.5,-178,qs,{
name = inserted;
}),
(396,-150,o),
(435,-71,o),
(442,-22,qs),
(452,54,ls),
(454,70,o),
(460,101,o),
(462,117,q),
(433,63,o),
(326,-6,o),
(263,-6,qs),
(222,-6,o),
(156,24,o),
(133.5,50.5,qs,{
name = inserted;
}),
(111,77,o),
(90,147,o),
(96,188,qs),
(102,228,o),
(142,300,o),
(172,326,qs,{
name = inserted;
}),
(202,352,o),
(276,383,o),
(317,383,qs),
(348,383,o),
(401,365,o),
(422.5,348.5,qs,{
name = inserted;
}),
(444,332,o),
(474,287,o),
(481,260,q),
(486,289,o),
(496,346,o),
(501,375,q)
);
},
{
closed = 1;
nodes = (
(105,150,o),
(124,85,o),
(145,60.5,qs,{
name = inserted;
}),
(166,36,o),
(227,8,o),
(265,8,qs),
(302,8,o),
(372,36,o),
(400,60.5,qs,{
name = inserted;
}),
(428,85,o),
(466,150,o),
(471,188,qs),
(476,225,o),
(457,291,o),
(436,316,qs,{
name = inserted;
}),
(415,341,o),
(352,369,o),
(315,369,qs),
(277,369,o),
(208,341,o),
(180,316,qs,{
name = inserted;
}),
(152,291,o),
(115,225,o),
(110,188,qs)
);
}
);
width = 533;
},
{
layerId = "D2CF1DA5-D903-47D8-B1EF-8AECFD40CAE8";
shapes = (
{
closed = 1;
nodes = (
(599,375,l),
(588,296,l),
(512,296,l),
(462,-60,ls),
(456,-100,o),
(418,-172,o),
(388,-197,qs,{
name = inserted;
}),
(357,-223,o),
(286,-250,o),
(244,-250,qs),
(199,-250,o),
(113,-218,o),
(86,-190,q),
(150,-122,l),
(169,-142,o),
(218,-164,o),
(247,-164,qs),
(273,-164,o),
(321,-149,o),
(339,-133,qs,{
name = inserted;
}),
(356,-118,o),
(378,-72,o),
(381,-47,qs),
(389,11,ls),
(390,16,o),
(391,25,o),
(393,31,q),
(380,17,o),
(323,-8,o),
(270,-8,qs),
(228,-8,o),
(158,23,o),
(135,50,qs,{
name = inserted;
}),
(112,76,o),
(90,147,o),
(96,187,qs),
(102,226,o),
(143,298,o),
(174,325,qs,{
name = inserted;
}),
(205,352,o),
(283,384,o),
(325,384,qs),
(353,384,o),
(394,373,o),
(408,365,qs),
(421,357,o),
(439,337,o),
(444,328,q),
(446,339,o),
(452,363,o),
(454,375,q)
);
},
{
closed = 1;
nodes = (
(176,160,o),
(191,114,o),
(208,98,qs),
(221,86,o),
(258,72,o),
(281,72,qs),
(307,72,o),
(352,90,o),
(370,106,qs,{
name = inserted;
}),
(388,121,o),
(411,164,o),
(414,188,qs),
(418,213,o),
(406,256,o),
(393,271,qs),
(379,286,o),
(339,303,o),
(313,303,qs),
(287,303,o),
(242,286,o),
(224,270,qs,{
name = inserted;
}),
(206,255,o),
(183,213,o),
(180,188,qs)
);
}
);
width = 547;
}
);
unicode = 103;
},
{
glyphname = h;
lastChange = "2024-08-09 09:20:29 +0000";
layers = (
{
layerId = m001;
shapes = (
{
closed = 1;
nodes = (
(393,14,l),
(430,277,ls),
(434,313,o),
(392,366,o),
(348,368,qs),
(314,368,o),
(250,346,o),
(224,326.5,qs,{
name = inserted;
}),
(198,307,o),
(163,252,o),
(158,220,qs),
(129,14,l),
(210,14,l),
(209,0,l),
(35,0,l),
(36,14,l),
(115,14,l),
(217,736,l),
(144,736,l),
(146,750,l),
(233,750,l),
(173,322,l),
(163,277,l),
(190,324,o),
(286,382,o),
(343,382,qs),
(396,382,o),
(449,320,o),
(443,270,qs),
(407,14,l),
(488,14,l),
(487,0,l),
(313,0,l),
(314,14,l)
);
}
);
width = 522;
},
{
layerId = "D2CF1DA5-D903-47D8-B1EF-8AECFD40CAE8";
shapes = (
{
closed = 1;
nodes = (
(411,79,l),
(432,234,l),
(434,261,o),
(405,300,o),
(367,302,q),
(341,302,o),
(291,284,o),
(271,268,qs,{
name = inserted;
}),
(251,252,o),
(223,208,o),
(219,182,qs),
(205,79,l),
(268,79,l),
(257,0,l),
(35,0,l),
(46,79,l),
(122,79,l),
(205,671,l),
(129,671,l),
(140,750,l),
(299,750,l),
(239,324,l),
(230,279,l),
(259,328,o),
(350,381,o),
(407,384,q),
(466,384,o),
(526,322,o),
(521,272,qs),
(494,79,l),
(556,79,l),
(545,0,l),
(323,0,l),
(334,79,l)
);
}
);
width = 580;
}
);
unicode = 104;
},
{
glyphname = i;
lastChange = "2024-08-09 09:20:29 +0000";
layers = (
{
layerId = m001;
shapes = (
{
closed = 1;
nodes = (
(118,14,l),
(167,361,l),
(85,361,l),
(87,375,l),
(183,375,l),
(132,14,l),
(210,14,l),
(209,0,l),
(35,0,l),
(36,14,l)
);
},
{
closed = 1;
nodes = (
(175,508,o),
(189,520,o),
(197,520,qs),
(205,520,o),
(215,508,o),
(214,500,q),
(212,492,o),
(199,480,o),
(191,480,qs),
(183,480,o),
(172,492,o),
(174,500,q)
);
}
);
width = 244;
},
{
layerId = "D2CF1DA5-D903-47D8-B1EF-8AECFD40CAE8";
shapes = (
{
closed = 1;
nodes = (
(116,79,l),
(146,296,l),
(76,296,l),
(87,375,l),
(240,375,l),
(199,79,l),
(268,79,l),
(257,0,l),
(35,0,l),
(46,79,l)
);
},
{
closed = 1;
nodes = (
(172,543,o),
(208,573,o),
(228,573,qs),
(247,573,o),
(275,543,o),
(272,520,qs),
(268,497,o),
(232,468,o),
(213,468,qs),
(193,468,o),
(165,497,o),
(169,520,qs)
);
}
);
width = 292;
}
);
unicode = 105;
},
{
glyphname = j;
lastChange = "2024-08-09 09:20:29 +0000";
layers = (
{
layerId = m001;
shapes = (
{
closed = 1;
nodes = (
(158,375,l),
(105,-7,ls),
(97,-64,o),
(54,-151,o),
(24,-180,q),
(13,-171,l),
(42,-143,o),
(83,-62,o),
(90,-11,qs),
(142,361,l),
(60,361,l),
(62,375,l)
);
},
{
closed = 1;
nodes = (
(150,508,o),
(164,520,o),
(172,520,qs),
(180,520,o),
(190,508,o),
(189,500,q),
(187,492,o),
(174,480,o),
(166,480,qs),
(158,480,o),
(147,492,o),
(149,500,q)
);
}
);
width = 166;
},
{
layerId = "D2CF1DA5-D903-47D8-B1EF-8AECFD40CAE8";
shapes = (
{
closed = 1;
nodes = (
(201,375,l),
(148,0,ls),
(140,-61,o),
(85,-152,o),
(44,-181,q),
(-5,-119,l),
(23,-99,o),
(60,-39,o),
(65,3,qs),
(107,296,l),
(48,296,l),
(59,375,l)
);
},
{
closed = 1;
nodes = (
(134,543,o),
(170,573,o),
(190,573,qs),
(209,573,o),
(237,543,o),
(234,520,qs),
(231,497,o),
(195,468,o),
(176,468,qs),
(156,468,o),
(128,497,o),
(131,520,qs)
);
}
);
width = 212;
}
);
unicode = 106;
},
{
glyphname = k;
lastChange = "2024-08-09 09:20:29 +0000";
layers = (
{
layerId = m001;
shapes = (
{
closed = 1;
nodes = (
(352,14,l),
(320,67,o),
(257,171,o),
(226,225,q),
(142,155,l),
(122,14,l),
(210,14,l),
(209,0,l),
(35,0,l),
(36,14,l),
(108,14,l),
(210,736,l),
(137,736,l),
(139,750,l),
(226,750,l),
(145,176,l),
(369,361,l),
(293,361,l),
(295,375,l),
(469,375,l),
(467,361,l),
(388,361,l),
(345.297,324.397,o),
(281.32,270.417,o),
(240,235,q),
(272,179,o),
(338,69,o),
(370,14,q),
(453,14,l),
(452,0,l),
(278,0,l),
(279,14,l)
);
}
);
width = 487;
},
{
layerId = "D2CF1DA5-D903-47D8-B1EF-8AECFD40CAE8";
shapes = (
{
closed = 1;
nodes = (
(313,79,l),
(300,99,o,{
name = inserted;
}),
(276,139.5,o),
(265,160,q),
(210,114,l),
(205,79,l),
(268,79,l),
(257,0,l),
(35,0,l),
(46,79,l),
(122,79,l),
(205,671,l),
(139,671,l),
(150,750,l),
(299,750,l),
(223,211,l),
(326,296,l),
(289,296,l),
(300,375,l),
(501,375,l),
(490,296,l),
(428,296,l),
(403,276,o),
(355,234,o),
(331,214,q),
(350,180,o),
(390,113,o),
(410,79,q),
(503,79,l),
(492,0,l),
(291,0,l),
(302,79,l)
);
}
);
width = 527;
}
);
unicode = 107;
},
{
glyphname = l;
lastChange = "2024-08-09 09:20:29 +0000";
layers = (
{
layerId = m001;
shapes = (
{
closed = 1;
nodes = (
(108,14,l),
(210,736,l),
(137,736,l),
(139,750,l),
(226,750,l),
(122,14,l),
(210,14,l),
(209,0,l),
(35,0,l),
(36,14,l)
);
}
);
width = 244;
},
{
layerId = "D2CF1DA5-D903-47D8-B1EF-8AECFD40CAE8";
shapes = (
{
closed = 1;
nodes = (
(122,79,l),
(205,671,l),
(139,671,l),
(150,750,l),
(299,750,l),
(205,79,l),
(268,79,l),
(257,0,l),
(35,0,l),
(46,79,l)
);
}
);
width = 292;
}
);
unicode = 108;
},
{
glyphname = m;
lastChange = "2024-08-09 09:20:29 +0000";
layers = (
{
layerId = m001;
shapes = (
{
closed = 1;
nodes = (
(671,14,l),
(708,277,ls),
(712,313,o),
(670,366,o),
(626,368,qs),
(593,368,o),
(530,347,o),
(504.5,328,qs,{
name = inserted;
}),
(479,309,o),
(443,257,o),
(437,226,q),
(407,14,l),
(488,14,l),
(487,0,l),
(313,0,l),
(314,14,l),
(393,14,l),
(430,277,ls),
(434,313,o),
(392,366,o),
(348,368,qs),
(314,368,o),
(250,346,o),
(224,326.5,qs,{
name = inserted;
}),
(198,307,o),
(163,252,o),
(158,220,qs),
(129,14,l),
(210,14,l),
(209,0,l),
(35,0,l),
(36,14,l),
(115,14,l),
(164,361,l),
(89,361,l),
(91,375,l),
(174,375,l),
(169,322,l),
(167,309,o),
(165,290,o),
(163,277,q),
(190,324,o),
(286,382,o),
(343,382,qs),
(392,382,o),
(445,327,o),
(444,282,q),
(471,327,o),
(566,382,o),
(621,382,qs),
(674,382,o),
(727,320,o),
(721,270,qs),
(685,14,l),
(766,14,l),
(765,0,l),
(591,0,l),
(592,14,l)
);
}
);
width = 800;
},
{
layerId = "D2CF1DA5-D903-47D8-B1EF-8AECFD40CAE8";
shapes = (
{
closed = 1;
nodes = (
(700,79,l),
(721,234,l),
(723,261,o),
(694,300,o),
(656,302,q),
(630,302,o),
(580,284,o),
(560,268,qs,{
name = inserted;
}),
(540,252,o),
(512,208,o),
(508,182,qs),
(494,79,l),
(557,79,l),
(546,0,l),
(324,0,l),
(335,79,l),
(411,79,l),
(432,234,l),
(434,261,o),
(405,300,o),
(367,302,q),
(341,302,o),
(291,284,o),
(271,268,qs,{
name = inserted;
}),
(251,252,o),
(223,208,o),
(219,182,qs),
(205,79,l),
(268,79,l),
(257,0,l),
(35,0,l),
(46,79,l),
(122,79,l),
(152,296,l),
(86,296,l),
(97,375,l),
(236,375,l),
(235,366,ls),
(233,342,o),
(232,303,o),
(230,279,q),
(258,327,o),
(350,382,o),
(407,384,qs),
(462,384,o),
(522,329,o),
(521,284,q),
(550,330,o),
(641,382,o),
(696,384,qs),
(755,384,o),
(815,322,o),
(810,272,qs),
(783,79,l),
(846,79,l),
(835,0,l),
(613,0,l),
(624,79,l)
);
}
);
width = 870;
}
);
unicode = 109;
},
{
glyphname = n;
lastChange = "2024-08-09 09:20:29 +0000";
layers = (
{
layerId = m001;
shapes = (
{
closed = 1;
nodes = (
(393,14,l),
(430,277,ls),
(434,313,o),
(392,366,o),
(348,368,qs),
(314,368,o),
(250,346,o),
(224,326.5,qs,{
name = inserted;
}),
(198,307,o),
(163,252,o),
(158,220,qs),
(129,14,l),
(210,14,l),
(209,0,l),
(35,0,l),
(36,14,l),
(115,14,l),
(164,361,l),
(89,361,l),
(91,375,l),
(174,375,l),
(169,322,l),
(167,309,o),
(165,290,o),
(163,277,q),
(190,324,o),
(286,382,o),
(343,382,qs),
(396,382,o),
(449,320,o),
(443,270,qs),
(407,14,l),
(488,14,l),
(487,0,l),
(313,0,l),
(314,14,l)
);
}
);
width = 522;
},
{
layerId = "D2CF1DA5-D903-47D8-B1EF-8AECFD40CAE8";
shapes = (
{
closed = 1;
nodes = (
(411,79,l),
(432,234,l),
(434,261,o),
(405,300,o),
(367,302,q),
(341,302,o),
(291,284,o),
(271,268,qs,{
name = inserted;
}),
(251,252,o),
(223,208,o),
(219,182,qs),
(205,79,l),
(268,79,l),
(257,0,l),
(35,0,l),
(46,79,l),
(122,79,l),
(152,296,l),
(86,296,l),
(97,375,l),
(236,375,l),
(235,366,ls),
(233,342,o),
(232,303,o),
(230,279,q),
(257,327,o),
(353,384,o),
(407,384,qs),
(466,384,o),
(526,322,o),
(521,272,qs),
(494,79,l),
(556,79,l),
(545,0,l),
(323,0,l),
(334,79,l)
);
}
);
width = 580;
}
);
unicode = 110;
},
{
glyphname = o;
lastChange = "2024-08-09 09:20:29 +0000";
layers = (
{
layerId = m001;
shapes = (
{
closed = 1;
nodes = (
(69,228,o),
(109,300,o),
(139,326.5,qs,{
name = inserted;
}),
(169,353,o),
(243,384,o),
(284,384,qs),
(324,384,o),
(392,353,o),
(415,326.5,qs,{
name = inserted;
}),
(438,300,o),
(459,228,o),
(453,188,qs),
(447,147,o),
(407,77,o),
(376.5,50.5,qs,{
name = inserted;
}),
(346,24,o),
(270,-6,o),
(230,-6,qs),
(189,-6,o),
(123,24,o),
(100.5,50.5,qs,{
name = inserted;
}),
(78,77,o),
(57,147,o),
(63,188,qs)
);
},
{
closed = 1;
nodes = (
(72,150,o),
(90,85,o),
(111,60.5,qs,{
name = inserted;
}),
(132,36,o),
(193,8,o),
(231,8,qs),
(268,8,o),
(339,36,o),
(367,60.5,qs,{
name = inserted;
}),
(395,85,o),
(433,150,o),
(438,188,qs),
(443,225,o),
(424,291,o),
(403,316,qs,{
name = inserted;
}),
(382,341,o),
(319,369,o),
(282,369,qs),
(244,369,o),
(175,341,o),
(147,316,qs,{
name = inserted;
}),
(119,291,o),
(82,225,o),
(77,188,qs)
);
}
);
width = 461;
},
{
layerId = "D2CF1DA5-D903-47D8-B1EF-8AECFD40CAE8";
shapes = (
{
closed = 1;
nodes = (
(68,228,o),
(109,300,o),
(140,326.5,qs,{
name = inserted;
}),
(171,353,o),
(248,384,o),
(290,384,qs),
(332,384,o),
(401,353,o),
(424.5,326.5,qs,{
name = inserted;
}),
(448,300,o),
(469,228,o),
(463,188,qs),
(457,147,o),
(416,76,o),
(385.5,49,qs,{
name = inserted;
}),
(355,22,o),
(277,-9,o),
(235,-9,qs),
(193,-9,o),
(125,22,o),
(101.5,49,qs,{
name = inserted;
}),
(78,76,o),
(56,147,o),
(62,188,qs)
);
},
{
closed = 1;
nodes = (
(142,163,o),
(154,121,o),
(167.5,105.5,qs,{
name = inserted;
}),
(181,90,o),
(220,72,o),
(244,72,qs),
(268,72,o),
(313,90,o),
(331,105.5,qs,{
name = inserted;
}),
(349,121,o),
(373,163,o),
(376,187,qs),
(379,211,o),
(367,253,o),
(353.5,269,qs,{
name = inserted;
}),
(340,285,o),
(300,303,o),
(276,303,qs),
(252,303,o),
(208,285,o),
(190,269,qs,{
name = inserted;
}),
(172,253,o),
(148,211,o),
(145,187,qs)
);
}
);
width = 471;
}
);
unicode = 111;
},
{
glyphname = p;
lastChange = "2024-08-09 09:20:29 +0000";
layers = (
{
layerId = m001;
shapes = (
{
closed = 1;
nodes = (
(64,-236,l),
(148,361,l),
(75,361,l),
(77,375,l),
(160,375,l),
(156,346,o),
(151,286,o),
(146,257,q),
(161,284,o),
(203,330,o),
(229.5,346.5,qs,{
name = inserted;
}),
(256,363,o),
(315,381,o),
(346,381,qs),
(386,381,o),
(453,351,o),
(475.5,324.5,qs,{
name = inserted;
}),
(498,298,o),
(519,227,o),
(513,187,qs),
(507,146,o),
(466,75,o),
(436,49,qs,{
name = inserted;
}),
(406,23,o),
(331,-8,o),
(291,-8,qs),
(228,-8,o),
(141,61,o),
(127,115,q),
(125,97,o),
(124,79,o),
(121,61,qs),
(79,-236,l),
(172,-236,l),
(171,-250,l),
(-2,-250,l),
(-1,-236,l)
);
},
{
closed = 1;
nodes = (
(504,224,o),
(485,290,o),
(464,314.5,qs,{
name = inserted;
}),
(443,339,o),
(381,367,o),
(344,367,qs),
(306,367,o),
(237,339,o),
(209,314.5,qs,{
name = inserted;
}),
(181,290,o),
(143,224,o),
(138,187,qs),
(133,149,o),
(152,84,o),
(173,59,qs,{
name = inserted;
}),
(194,34,o),
(255,6,o),
(293,6,qs),
(330,6,o),
(400,34,o),
(428,59,qs,{
name = inserted;
}),
(456,84,o),
(494,149,o),
(499,187,qs)
);
}
);
width = 532;
},
{
layerId = "D2CF1DA5-D903-47D8-B1EF-8AECFD40CAE8";
shapes = (
{
closed = 1;
nodes = (
(75,-171,l),
(141,296,l),
(65,296,l),
(78,375,l),
(221,375,l),
(219.5,363.5,o,{
name = inserted;
}),
(218,340,o),
(218,328,q),
(219,331,o),
(243,350,o),
(261.5,359.5,qs,{
name = inserted;
}),
(280,369,o),
(327,384,o),
(353,384,qs),
(395,384,o),
(464,353,o),
(487.5,326,qs,{
name = inserted;
}),
(511,299,o),
(532,228,o),
(527,188,qs),
(521,148,o),
(480,76,o),
(449,49,qs,{
name = inserted;
}),
(418,22,o),
(340,-9,o),
(298,-9,qs),
(250,-9,o),
(190,22,o),
(184,34,q),
(185,29,o),
(184,13,o),
(183,5,qs),
(158,-171,l),
(230,-171,l),
(220,-250,l),
(-1,-250,l),
(8,-171,l)
);
},
{
closed = 1;
nodes = (
(447,213,o),
(435,256,o),
(422,271,qs),
(409,286,o),
(368,303,o),
(342,303,qs),
(316,303,o),
(271,286,o),
(253,270,qs,{
name = inserted;
}),
(235,255,o),
(212,213,o),
(209,188,qs),
(205,164,o),
(216,121,o),
(230,106,qs,{
name = inserted;
}),
(243,90,o),
(283,72,o),
(309,72,qs),
(335,72,o),
(380,90,o),
(398,106,qs,{
name = inserted;
}),
(416,121,o),
(439,164,o),
(443,188,qs)
);
}
);
width = 548;
}
);
unicode = 112;
},
{
glyphname = q;
lastChange = "2024-08-09 09:20:29 +0000";
layers = (
{
layerId = m001;
shapes = (
{
closed = 1;
nodes = (
(410,-236,l),
(452,61,ls),
(455,79,o),
(458,97,o),
(461,115,q),
(432,61,o),
(326,-8,o),
(263,-8,qs),
(222,-8,o),
(156,23,o),
(133.5,49,qs,{
name = inserted;
}),
(111,75,o),
(90,146,o),
(96,187,qs),
(102,227,o),
(142,298,o),
(172,324.5,qs,{
name = inserted;
}),
(202,351,o),
(276,381,o),
(317,381,qs),
(380,381,o),
(468,312,o),
(482,257,q),
(486,286,o),
(497,346,o),
(501,375,q),
(584,375,l),
(582,361,l),
(509,361,l),
(425,-236,l),
(496,-236,l),
(495,-250,l),
(321,-250,l),
(322,-236,l)
);
},
{
closed = 1;
nodes = (
(105,149,o),
(123,84,o),
(144,59,qs,{
name = inserted;
}),
(165,34,o),
(226,6,o),
(264,6,qs),
(301,6,o),
(372,34,o),
(400,59,qs,{
name = inserted;
}),
(428,84,o),
(466,149,o),
(471,187,qs),
(476,224,o),
(457,290,o),
(436,314.5,qs,{
name = inserted;
}),
(415,339,o),
(352,367,o),
(315,367,qs),
(277,367,o),
(208,339,o),
(180,314.5,qs,{
name = inserted;
}),
(152,290,o),
(115,224,o),
(110,187,qs)
);
}
);
width = 532;
},
{
layerId = "D2CF1DA5-D903-47D8-B1EF-8AECFD40CAE8";
shapes = (
{
closed = 1;
nodes = (
(364,-171,l),
(387,-4,ls),
(388,1,o),
(392,25,o),
(394,32,q),
(381,17,o),
(318,-9,o),
(269,-9,qs),
(227,-9,o),
(158,22,o),
(134.5,49,qs,{
name = inserted;
}),
(111,76,o),
(90,148,o),
(96,188,qs),
(102,228,o),
(143,299,o),
(174,326,qs,{
name = inserted;
}),
(205,353,o),
(283,384,o),
(325,384,qs),
(376.533,384,o),
(434,346,o),
(444,328,q),
(446,339,o),
(452,363,o),
(454,375,q),
(603,375,l),
(592,296,l),
(512,296,l),
(447,-171,l),
(510,-171,l),
(499,-250,l),
(277,-250,l),
(288,-171,l)
);
},
{
closed = 1;
nodes = (
(176,160,o),
(191,113,o),
(209,97,qs),
(222,85,o),
(259,72,o),
(281,72,qs),
(307,72,o),
(352,90,o),
(370,106,qs,{
name = inserted;
}),
(388,121,o),
(411,164,o),
(414,188,qs),
(418,214,o),
(405,259,o),
(390,274,qs),
(377,288,o),
(338,303,o),
(313,303,qs),
(287,303,o),
(242,286,o),
(224,270,qs,{
name = inserted;
}),
(206,255,o),
(183,213,o),
(180,188,qs)
);
}
);
width = 551;
}
);
unicode = 113;
},
{
glyphname = r;
lastChange = "2024-08-09 09:20:29 +0000";
layers = (
{
layerId = m001;
shapes = (
{
closed = 1;
nodes = (
(115,14,l),
(164,361,l),
(89,361,l),
(91,375,l),
(174,375,l),
(169,322,l),
(167,309,o),
(165,290,o),
(163,277,q),
(177,301,o),
(216,340,o),
(240,353,qs),
(263,366,o),
(316,381,o),
(344,382,q),
(342,368,l),
(309,367,o),
(247,344,o),
(222,324,qs,{
name = inserted;
}),
(197,305,o),
(162,251,o),
(158,220,qs),
(129,14,l),
(210,14,l),
(209,0,l),
(35,0,l),
(36,14,l)
);
}
);
width = 326;
},
{
layerId = "D2CF1DA5-D903-47D8-B1EF-8AECFD40CAE8";
shapes = (
{
closed = 1;
nodes = (
(122,79,l),
(152,296,l),
(86,296,l),
(97,375,l),
(236,375,l),
(235,366,ls),
(233,342,o),
(232,303,o),
(230,279,q),
(245,304,o),
(288,343,o),
(310,356.5,qs,{
name = inserted;
}),
(332,370,o),
(373,384,o),
(388,384,q),
(371,302,l),
(341,302,o),
(288,284,o),
(268,268,qs,{
name = inserted;
}),
(248,252,o),
(223,208,o),
(219,182,qs),
(205,79,l),
(268,79,l),
(257,0,l),
(35,0,l),
(46,79,l)
);
}
);
width = 370;
}
);
unicode = 114;
},
{
glyphname = s;
lastChange = "2024-08-09 09:20:29 +0000";
layers = (
{
layerId = m001;
shapes = (
{
closed = 1;
nodes = (
(68,91,l),
(82,91,l),
(74,32,l),
(92,18,o),
(141,6,o),
(166,6,qs),
(191,6,o),
(227,18,o),
(244,30,qs,{
name = inserted;
}),
(260,41,o),
(281,75,o),
(284,98,qs),
(288,129,o),
(264,163,o),
(243,172.5,qs,{
name = inserted;
}),
(222,182,o),
(172,196,o),
(151,205.5,qs,{
name = inserted;
}),
(130,215,o),
(105,249,o),
(109,280,qs),
(112,304,o),
(135,340,o),
(151,353,qs,{
name = inserted;
}),
(167,366,o),
(205,379,o),
(224,379,qs),
(224,379,o),
(247,379,o),
(262.5,376,qs,{
name = inserted;
}),
(278,373,o),
(310,359,o),
(319,349,q),
(310,284,l),
(296,284,l),
(304,343,l),
(287,356,o),
(249,365,o),
(228,365,qs),
(215,365,o),
(177,357,o),
(163,347.5,qs,{
name = inserted;
}),
(149,338,o),
(127,307,o),
(124,285,qs),
(119,256,o),
(144,225,o),
(165,215.5,qs,{
name = inserted;
}),
(186,206,o),
(237,193,o),
(258,182,qs,{
name = inserted;
}),
(279,171,o),
(302,134,o),
(299,101,qs),
(297,77,o),
(280,43,o),
(264,28,qs,{
name = inserted;
}),
(247,12,o),
(198,-8,o),
(168,-8,qs),
(138,-8,o),
(77,9,o),
(59,26,q)
);
}
);
width = 315;
},
{
layerId = "D2CF1DA5-D903-47D8-B1EF-8AECFD40CAE8";
shapes = (
{
closed = 1;
nodes = (
(64,120,l),
(138,120,l),
(133,81,l),
(144,76,o),
(167,73,o),
(184,73,qs),
(191,73,o),
(207,77,o),
(215,82,qs),
(224,87,o),
(232,99,o),
(233,109,qs),
(235,126,o),
(217,146,o),
(200,152,qs,{
name = inserted;
}),
(184,159,o),
(143,172,o),
(126,184,qs,{
name = inserted;
}),
(110,195,o),
(92,237,o),
(97,272,qs),
(101,303,o),
(131,345,o),
(151,358,qs,{
name = inserted;
}),
(171,372,o),
(215,384,o),
(232,384,qs),
(242,384,o),
(270,380,o),
(284,375,qs,{
name = inserted;
}),
(299,370,o),
(326,354,o),
(335,342,q),
(322,255,l),
(248,255,l),
(255,298,l),
(248,300,o,{
name = inserted;
}),
(232,303,o),
(225,303,qs),
(215,303,o),
(199,299,o),
(193,295,qs),
(187,290,o),
(180,277,o),
(180,268,qs),
(180,256,o),
(204,241,o),
(221,234,qs,{
name = inserted;
}),
(238,227,o),
(275,209,o),
(290,196,qs,{
name = inserted;
}),
(305,182,o),
(321,141,o),
(317,110,qs),
(315,96,o),
(299,56,o),
(282,37,qs,{
name = inserted;
}),
(266,18,o),
(212,-8,o),
(172,-8,qs),
(135,-8,o),
(69,11,o),
(52,33,q)
);
}
);
width = 332;
}
);
unicode = 115;
},
{
glyphname = t;
lastChange = "2024-08-09 09:20:29 +0000";
layers = (
{
layerId = m001;
shapes = (
{
closed = 1;
nodes = (
(224,619,l),
(190,375,l),
(317,375,l),
(315,361,l),
(188,361,l),
(139,14,l),
(226,14,l),
(225,0,l),
(124,0,l),
(174,361,l),
(85,361,l),
(87,375,l),
(176,375,l),
(210,619,l)
);
}
);
width = 300;
},
{
layerId = "D2CF1DA5-D903-47D8-B1EF-8AECFD40CAE8";
shapes = (
{
closed = 1;
nodes = (
(288,619,l),
(254,375,l),
(352,375,l),
(341,294,l),
(243,294,l),
(213,79,l),
(288,79,l),
(277,0,l),
(119,0,l),
(160,294,l),
(76,294,l),
(87,375,l),
(171,375,l),
(205,619,l)
);
}
);
width = 335;
}
);
unicode = 116;
},
{
glyphname = u;
lastChange = "2024-08-09 09:20:29 +0000";
layers = (
{
layerId = m001;
shapes = (
{
closed = 1;
nodes = (
(405,53,l),
(409,98,l),
(382,50,o),
(286,-7,o),
(230,-7,qs),
(177,-7,o),
(124,55,o),
(129,105,qs),
(165,361,l),
(86,361,l),
(88,375,l),
(181,375,l),
(142,98,l),
(139,62,o),
(181,9,o),
(224,7,qs),
(258,7,o),
(322,29,o),
(348,48.5,qs,{
name = inserted;
}),
(374,68,o),
(409,123,o),
(414,155,qs),
(443,361,l),
(364,361,l),
(366,375,l),
(459,375,l),
(408,14,l),
(485,14,l),
(483,0,l),
(400,0,l)
);
}
);
width = 518;
},
{
layerId = "D2CF1DA5-D903-47D8-B1EF-8AECFD40CAE8";
shapes = (
{
closed = 1;
nodes = (
(398,51,l),
(407,96,l),
(380,48,o),
(284,-9,o),
(230,-9,qs),
(171,-9,o),
(111,53,o),
(116,103,qs),
(143,296,l),
(77,296,l),
(88,375,l),
(237,375,l),
(205,141,l),
(203,114,o),
(232,75,o),
(270,73,q),
(296,73,o),
(346,91,o),
(366,107,qs,{
name = inserted;
}),
(386,123,o),
(414,167,o),
(418,193,qs),
(432,296,l),
(366,296,l),
(377,375,l),
(526,375,l),
(484,70,l),
(546,70,l),
(536,0,l),
(391,0,l)
);
}
);
width = 570;
}
);
unicode = 117;
},
{
glyphname = v;
lastChange = "2024-08-09 09:20:29 +0000";
layers = (
{
layerId = m001;
shapes = (
{
closed = 1;
nodes = (
(251,375,l),
(249,361,l),
(175,361,l),
(207,273,o),
(270,96,o),
(302,8,q),
(354,90,o),
(470,270,o),
(527,361,q),
(469,361,l),
(471,375,l),
(610,375,l),
(608,361,l),
(542,361,l),
(480,264,o),
(358,74,o),
(298,-23,q),
(263,74,o),
(194,264,o),
(160,361,q),
(88,361,l),
(90,375,l)
);
}
);
width = 590;
},
{
layerId = "D2CF1DA5-D903-47D8-B1EF-8AECFD40CAE8";
shapes = (
{
closed = 1;
nodes = (
(312,375,l),
(301,296,l),
(249,296,l),
(269,252,o),
(305,164,o),
(313,120,q),
(333,164,o),
(392,252,o),
(424,296,q),
(364,296,l),
(375,375,l),
(604,375,l),
(593,296,l),
(510,296,l),
(456,215,o),
(347,57,o),
(293,-23,q),
(260,57,o),
(195,216,o),
(163,296,q),
(79,296,l),
(90,375,l)
);
}
);
width = 584;
}
);
unicode = 118;
},
{
glyphname = w;
lastChange = "2024-08-09 09:20:29 +0000";
layers = (
{
layerId = m001;
shapes = (
{
closed = 1;
nodes = (
(880,375,l),
(878,361,l),
(814,361,l),
(752,264,o),
(630,74,o),
(570,-23,q),
(472,251,l),
(298,-23,l),
(263,74,o),
(194,264,o),
(160,361,q),
(88,361,l),
(90,375,l),
(251,375,l),
(249,361,l),
(175,361,l),
(207,272,o),
(270,96,o),
(302,8,q),
(344,73,o),
(424,201,o),
(466,266,q),
(432,361,l),
(358,361,l),
(360,375,l),
(521,375,l),
(519,361,l),
(447,361,l),
(479,272,o),
(542,96,o),
(574,8,q),
(631,97,o),
(742,272,o),
(799,361,q),
(739,361,l),
(741,375,l)
);
}
);
width = 860;
},
{
layerId = "D2CF1DA5-D903-47D8-B1EF-8AECFD40CAE8";
shapes = (
{
closed = 1;
nodes = (
(850,375,l),
(839,296,l),
(763,296,l),
(712,215,o),
(609,57,o),
(558,-23,q),
(463,232,l),
(286,-23,l),
(256,57,o),
(197,216,o),
(168,296,q),
(79,296,l),
(90,375,l),
(297,375,l),
(286,296,l),
(251,296,l),
(267,252,o),
(297,165,o),
(306,120,q),
(323,146,o),
(401,255,o),
(432,291,q),
(429,296,l),
(358,296,l),
(369,375,l),
(591,375,l),
(580,296,l),
(523,296,l),
(539,252,o),
(569,165,o),
(578,120,q),
(599,165,o),
(652,252,o),
(681,296,q),
(625,296,l),
(636,375,l)
);
}
);
width = 830;
}
);
unicode = 119;
},
{
glyphname = x;
lastChange = "2024-08-09 09:20:29 +0000";
layers = (
{
layerId = m001;
shapes = (
{
closed = 1;
nodes = (
(261,375,l),
(259,361,l),
(171,361,l),
(267,198,l),
(407,361,l),
(329,361,l),
(331,375,l),
(505,375,l),
(503,361,l),
(424,361,l),
(274,186,l),
(299,142,o),
(350,58,o),
(375,14,q),
(454,14,l),
(453,0,l),
(279,0,l),
(280,14,l),
(359,14,l),
(335,56,o),
(288,135,o),
(264,175,q),
(229,134,o),
(161,54,o),
(126,14,q),
(210,14,l),
(209,0,l),
(35,0,l),
(36,14,l),
(108,14,l),
(146,57,o),
(219,143,o),
(257,187,q),
(231,231,o),
(179,316,o),
(153,361,q),
(85,361,l),
(87,375,l)
);
}
);
width = 488;
},
{
layerId = "D2CF1DA5-D903-47D8-B1EF-8AECFD40CAE8";
shapes = (
{
closed = 1;
nodes = (
(309,375,l),
(298,296,l),
(275,296,l),
(310,237,l),
(360,296,l),
(333,296,l),
(344,375,l),
(543,375,l),
(532,296,l),
(459,296,l),
(353,173,l),
(367,149,o),
(395,102,o),
(410,79,q),
(502,79,l),
(491,0,l),
(269,0,l),
(280,79,l),
(305,79,l),
(296,93,o),
(280,119,o),
(272,133,q),
(261,119,o),
(236,93,o),
(225,79,q),
(245,79,l),
(234,0,l),
(35,0,l),
(46,79,l),
(123,79,l),
(149,110,o),
(204,171,o),
(231,202,q),
(217,225,o),
(189,273,o),
(175,296,q),
(76,296,l),
(87,375,l)
);
}
);
width = 526;
}
);
unicode = 120;
},
{
glyphname = y;
lastChange = "2024-08-09 09:20:29 +0000";
layers = (
{
layerId = m001;
shapes = (
{
closed = 1;
nodes = (
(174,-236,l),
(211,-178,o),
(286,-61,o),
(323,-4,q),
(290,87,o),
(224,269,o),
(192,361,q),
(120,361,l),
(122,375,l),
(283,375,l),
(281,361,l),
(210,361,l),
(241,273,o),
(303,101,o),
(335,14,q),
(388,97,o),
(500,273,o),
(556,361,q),
(501,361,l),
(503,375,l),
(642,375,l),
(640,361,l),
(574,361,l),
(477,211,o),
(289,-86,o),
(193,-236,q),
(267,-236,l),
(266,-250,l),
(92,-250,l),
(93,-236,l)
);
}
);
width = 590;
},
{
layerId = "D2CF1DA5-D903-47D8-B1EF-8AECFD40CAE8";
shapes = (
{
closed = 1;
nodes = (
(193,-171,l),
(220,-128,o),
(275,-42,o),
(303,0,q),
(276,75,o),
(222,221,o),
(195,296,q),
(111,296,l),
(122,375,l),
(344,375,l),
(333,296,l),
(280,296,l),
(302,241,o),
(344,130,o),
(355,74,q),
(381,130,o),
(454,241,o),
(491,296,q),
(429,296,l),
(440,375,l),
(669,375,l),
(658,296,l),
(576,296,l),
(501,178,o),
(351,-53,o),
(276,-171,q),
(325,-171,l),
(314,-250,l),
(92,-250,l),
(103,-171,l)
);
}
);
width = 617;
}
);
unicode = 121;
},
{
glyphname = z;
lastChange = "2024-08-09 09:20:29 +0000";
layers = (
{
layerId = m001;
shapes = (
{
closed = 1;
nodes = (
(394,0,l),
(35,0,l),
(36,14,l),
(409,361,l),
(97,361,l),
(104,410,l),
(118,410,l),
(113,375,l),
(429,375,l),
(427,361,l),
(54,14,l),
(381,14,l),
(389,65,l),
(403,65,l)
);
}
);
width = 429;
},
{
layerId = "D2CF1DA5-D903-47D8-B1EF-8AECFD40CAE8";
shapes = (
{
closed = 1;
nodes = (
(400,0,l),
(35,0,l),
(46,81,l),
(301,296,l),
(88,296,l),
(104,410,l),
(178,410,l),
(173,375,l),
(429,375,l),
(418,294,l),
(163,81,l),
(337,81,l),
(345,138,l),
(419,138,l)
);
}
);
width = 435;
}
);
unicode = 122;
},
{
glyphname = zero;
lastChange = "2024-08-09 09:20:29 +0000";
layers = (
{
layerId = m001;
shapes = (
{
closed = 1;
nodes = (
(43,375,o),
(88,490,o),
(127,540.5,qs,{
name = inserted;
}),
(166,591,o),
(279,658,o),
(354,658,qs),
(428,658,o),
(520,589,o),
(544,538.5,qs,{
name = inserted;
}),
(568,488,o),
(579,372,o),
(572,324,qs),
(562,255,o),
(501,134,o),
(458,89,qs,{
name = inserted;
}),
(415,44,o),
(309,-7,o),
(254,-7,qs),
(199,-7,o),
(110,46,o),
(80,91,qs,{
name = inserted;
}),
(50,136,o),
(26,257,o),
(36,327,qs)
);
},
{
closed = 1;
nodes = (
(40,255,o),
(66,137,o),
(95.5,95,qs,{
name = inserted;
}),
(125,53,o),
(210,7,o),
(258,7,qs),
(306,7,o),
(404,51,o),
(445.5,92,qs,{
name = inserted;
}),
(487,133,o),
(547,251,o),
(558,323,qs),
(569,396,o),
(547,515,o),
(519,556.5,qs,{
name = inserted;
}),
(491,598,o),
(405,644,o),
(351,644,qs),
(297,644,o),
(198,601,o),
(158,559.5,qs,{
name = inserted;
}),
(118,518,o),
(61,401,o),
(51,328,qs)
);
}
);
width = 616;
},
{
layerId = "D2CF1DA5-D903-47D8-B1EF-8AECFD40CAE8";
shapes = (
{
closed = 1;
nodes = (
(48,403,o),
(107,526,o),
(149.5,569,qs,{
name = inserted;
}),
(192,612,o),
(297,658,o),
(353,658,qs),
(409,658,o),
(500,610,o),
(530,566.5,qs,{
name = inserted;
}),
(560,523,o),
(583,399,o),
(572,323,qs),
(561,247,o),
(498,125,o),
(454,81.5,qs,{
name = inserted;
}),
(410,38,o),
(307,-8,o),
(256,-8,qs),
(205,-8,o),
(115,40,o),
(84,84,qs,{
name = inserted;
}),
(53,128,o),
(26,251,o),
(37,327,qs)
);
},
{
closed = 1;
nodes = (
(113,273,o),
(129,181,o),
(149,147,qs,{
name = inserted;
}),
(169,113,o),
(229,73,o),
(267,73,qs),
(304,73,o),
(377,111,o),
(407.5,145,qs,{
name = inserted;
}),
(438,179,o),
(480,271,o),
(488,324,qs),
(494,360,o),
(488,448,o),
(472,486.5,qs,{
name = inserted;
}),
(456,525,o),
(393,577,o),
(342,577,qs),
(291,577,o),
(213,526,o),
(185.5,488,qs,{
name = inserted;
}),
(158,450,o),
(126,362,o),
(121,326,qs)
);
}
);
width = 616;
}
);
unicode = 48;
},
{
glyphname = one;
lastChange = "2024-08-09 09:20:29 +0000";
layers = (
{
layerId = m001;
shapes = (
{
closed = 1;
nodes = (
(103,14,l),
(190,636,l),
(77,636,l),
(79,650,l),
(206,650,l),
(117,14,l),
(197,14,l),
(195,0,l),
(21,0,l),
(23,14,l)
);
}
);
width = 249;
},
{
layerId = "D2CF1DA5-D903-47D8-B1EF-8AECFD40CAE8";
shapes = (
{
closed = 1;
nodes = (
(67,79,l),
(136,569,l),
(68,569,l),
(79,650,l),
(231,650,l),
(151,79,l),
(230,79,l),
(219,0,l),
(-22,0,l),
(-11,79,l)
);
}
);
width = 290;
}
);
unicode = 49;
},
{
glyphname = two;
lastChange = "2024-08-09 09:20:29 +0000";
layers = (
{
layerId = m001;
shapes = (
{
closed = 1;
nodes = (
(390,14,l),
(406,127,l),
(420,127,l),
(402,0,l),
(6,0,l),
(79,62,o),
(217,183,o),
(272,240.5,qs,{
name = inserted;
}),
(327,298,o),
(399,405,o),
(406,452,qs),
(414,508,o),
(393,582,o),
(372,604,qs,{
name = inserted;
}),
(351,626,o),
(297,644,o),
(272,644,qs),
(222,644,o),
(154,609,o),
(132,582.5,qs,{
name = inserted;
}),
(110,556,o),
(87,495,o),
(83,469,qs),
(78,434,o,{
name = inserted;
}),
(90,377,o),
(107,355,q),
(97,347,l),
(80,371,o),
(64,428,o),
(69,469,qs),
(75,509,o),
(108,578,o),
(134,603.5,qs,{
name = inserted;
}),
(160,629,o),
(231,658,o),
(274,658,qs),
(313,658,o),
(373,629,o),
(392.5,603,qs,{
name = inserted;
}),
(412,577,o),
(427,506,o),
(421,464,qs),
(413,406,o),
(338,291,o),
(284,235,qs,{
name = inserted;
}),
(230,179,o),
(104,68,o),
(44,14,q)
);
}
);
width = 495;
},
{
layerId = "D2CF1DA5-D903-47D8-B1EF-8AECFD40CAE8";
shapes = (
{
closed = 1;
nodes = (
(382,81,l),
(395,174,l),
(474,174,l),
(449,0,l),
(6,0,l),
(76,62,o),
(209,179,o),
(261.5,233.5,qs,{
name = inserted;
}),
(314,288,o),
(383,391,o),
(390,438,qs),
(395,475,o),
(378,527,o),
(362,544,qs,{
name = inserted;
}),
(346,561,o),
(305,577,o),
(287,577,qs),
(249,577,o),
(197,551,o),
(180.5,532,qs,{
name = inserted;
}),
(164,513,o),
(147,471,o),
(145,455,qs),
(140.5,423,o,{
name = inserted;
}),
(153,371,o),
(170,351,q),
(112,300,l),
(82.439,321.678,o),
(54.91,416.427,o),
(61,455,qs),
(67,495,o),
(104,569,o),
(135,597,qs,{
name = inserted;
}),
(166,625,o),
(248,658,o),
(299,658,qs),
(345,658,o),
(416,624,o),
(439,595.5,qs,{
name = inserted;
}),
(462,567,o),
(482,492,o),
(476,450,qs),
(469,400,o),
(421,307,o),
(386,261,qs,{
name = inserted;
}),
(351,215,o),
(264,126,o),
(218,81,q)
);
}
);
width = 519;
}
);
unicode = 50;
},
{
glyphname = three;
lastChange = "2024-08-09 09:20:29 +0000";
layers = (
{
layerId = m001;
shapes = (
{
closed = 1;
nodes = (
(434,636,l),
(161,636,l),
(151,568,l),
(137,568,l),
(149,650,l),
(468,650,l),
(233,398,l),
(279,400,o),
(356,371,o),
(382.5,344,qs,{
name = inserted;
}),
(409,317,o),
(434,240,o),
(428,195,qs),
(422,153,o),
(379,79,o),
(347.5,51.5,qs,{
name = inserted;
}),
(316,24,o),
(237,-8,o),
(195,-8,qs),
(150,-8,o),
(79,28,o),
(56,58,q),
(67,71,l),
(87,42,o),
(152,6,o),
(194,6,qs),
(233,6,o),
(308,36,o),
(338,62,qs,{
name = inserted;
}),
(368,88,o),
(408,157,o),
(414,195,qs),
(420,234,o),
(398,303,o),
(375.5,328.5,qs,{
name = inserted;
}),
(353,354,o),
(286,384,o),
(247,384,qs),
(231,384,o),
(198,372,o),
(183,361,q)
);
}
);
width = 515;
},
{
layerId = "D2CF1DA5-D903-47D8-B1EF-8AECFD40CAE8";
shapes = (
{
closed = 1;
nodes = (
(327,568,l),
(216,568,l),
(210,521,l),
(131,521,l),
(149,650,l),
(478,650,l),
(301,412,l),
(332,400,o),
(381,361,o),
(397.5,335,qs,{
name = inserted;
}),
(414,309,o),
(427,245,o),
(422,209,qs),
(416,164,o),
(369,85,o),
(335,55.5,qs,{
name = inserted;
}),
(301,26,o),
(217,-8,o),
(172,-8,qs),
(124,-8,o),
(48,31,o),
(22,63,q),
(91,120,l),
(106,98,o),
(154,73,o),
(184,73,qs),
(212,73,o),
(264,95,o),
(285,113.5,qs,{
name = inserted;
}),
(306,132,o),
(335,181,o),
(339,209,qs),
(343,237,o),
(328,286,o),
(312,304,qs,{
name = inserted;
}),
(296,322,o),
(250,343,o),
(222,343,qs),
(204,343,o,{
name = inserted;
}),
(170,334.5,o),
(154,326,q)
);
}
);
width = 515;
}
);
unicode = 51;
},
{
glyphname = four;
lastChange = "2024-08-09 09:20:29 +0000";
layers = (
{
layerId = m001;
shapes = (
{
closed = 1;
nodes = (
(344,14,l),
(368,183,l),
(16,183,l),
(449,658,l),
(384,197,l),
(481,197,l),
(479,183,l),
(382,183,l),
(358,14,l),
(441,14,l),
(439,0,l),
(265,0,l),
(267,14,l)
);
},
{
closed = 1;
nodes = (
(48,197,l),
(370,197,l),
(429,617,l)
);
}
);
width = 505;
},
{
layerId = "D2CF1DA5-D903-47D8-B1EF-8AECFD40CAE8";
shapes = (
{
closed = 1;
nodes = (
(283,79,l),
(298,183,l),
(16,183,l),
(449,658,l),
(393,264,l),
(490,264,l),
(479,183,l),
(382,183,l),
(367,79,l),
(450,79,l),
(439,0,l),
(197,0,l),
(208,79,l)
);
},
{
closed = 1;
nodes = (
(195,264,l),
(309,264,l),
(330,413,l)
);
}
);
width = 529;
}
);
unicode = 52;
},
{
glyphname = five;
lastChange = "2024-08-09 09:20:29 +0000";
layers = (
{
layerId = m001;
shapes = (
{
closed = 1;
nodes = (
(464,568,l),
(450,568,l),
(460,636,l),
(201,636,l),
(164,372,l),
(188,383,o),
(239,395,o),
(265,395,qs),
(307,395,o),
(377,364,o),
(401.5,337,qs,{
name = inserted;
}),
(426,310,o),
(448,237,o),
(442,195,qs),
(436,153,o),
(393,79,o),
(361,51.5,qs,{
name = inserted;
}),
(329,24,o),
(250,-8,o),
(208,-8,qs),
(167,-8,o),
(100,22,o),
(76,48,q),
(89,58,l),
(109,33,o),
(170,6,o),
(208,6,qs),
(248,6,o),
(322,36,o),
(352,62,qs,{
name = inserted;
}),
(382,88,o),
(422,157,o),
(428,195,qs),
(433,234,o),
(412,301,o),
(389.5,326.5,qs,{
name = inserted;
}),
(367,352,o),
(301,381,o),
(261,381,qs),
(226,381,o),
(165,358,o),
(145,341,q),
(189,650,l),
(476,650,l)
);
}
);
width = 543;
},
{
layerId = "D2CF1DA5-D903-47D8-B1EF-8AECFD40CAE8";
shapes = (
{
closed = 1;
nodes = (
(458,521,l),
(379,521,l),
(385,569,l),
(261,569,l),
(241,422,l),
(247,423,o),
(260,424,o),
(267,424,qs),
(312,424,o),
(387,391,o),
(412.5,361.5,qs,{
name = inserted;
}),
(438,332,o),
(462,254,o),
(456,209,qs),
(450,164,o),
(403,85,o),
(369,55.5,qs,{
name = inserted;
}),
(335,26,o),
(251,-8,o),
(206,-8,qs),
(162,-8,o),
(90,24,o),
(65,53,q),
(134,109,l),
(149,92,o),
(192,73,o),
(218,73,qs),
(246,73,o),
(298,95,o),
(319,113.5,qs,{
name = inserted;
}),
(340,132,o),
(369,181,o),
(373,209,qs),
(377,237,o),
(362,286,o),
(346,304,qs,{
name = inserted;
}),
(330,322,o),
(284,343,o),
(256,343,qs),
(221,343,o),
(160,320,o),
(138,292,q),
(189,650,l),
(476,650,l)
);
}
);
width = 543;
}
);
unicode = 53;
},
{
glyphname = six;
lastChange = "2024-08-09 09:20:29 +0000";
layers = (
{
layerId = m001;
shapes = (
{
closed = 1;
nodes = (
(40,154,o),
(60,86,o),
(82.5,60.5,qs,{
name = inserted;
}),
(105,35,o),
(170,6,o),
(209,6,qs),
(248,6,o),
(322,35,o),
(351.5,60.5,qs,{
name = inserted;
}),
(381,86,o),
(421,154,o),
(427,193,qs),
(432,232,o),
(412,300,o),
(389.5,325.5,qs,{
name = inserted;
}),
(367,351,o),
(301,381,o),
(262,381,qs),
(223,381,o),
(149,351,o),
(120,325.5,qs,{
name = inserted;
}),
(91,300,o),
(51,232,o),
(46,193,qs)
);
},
{
closed = 1;
nodes = (
(43,266,o),
(122,391,o),
(178,445,qs,{
name = inserted;
}),
(234,499,o),
(365,592,o),
(427,633,q),
(428.5,629.5,o,{
name = inserted;
}),
(432.5,623,o),
(435,620,q),
(362,576,o),
(248,490,o),
(205.5,450.5,qs,{
name = inserted;
}),
(163,411,o),
(106,342,o),
(91,314,q),
(124,351,o),
(214,395,o),
(265,395,qs),
(307,395,o),
(377,363,o),
(401,335.5,qs,{
name = inserted;
}),
(425,308,o),
(447,235,o),
(441,193,qs),
(435,151,o),
(392,78,o),
(360.5,51,qs,{
name = inserted;
}),
(329,24,o),
(250,-8,o),
(208,-8,qs),
(166,-8,o),
(96,24,o),
(72,51,qs,{
name = inserted;
}),
(48,78,o),
(27,151,o),
(33,193,qs)
);
}
);
width = 520;
},
{
layerId = "D2CF1DA5-D903-47D8-B1EF-8AECFD40CAE8";
shapes = (
{
closed = 1;
nodes = (
(115,181,o),
(128,132,o),
(143.5,113.5,qs,{
name = inserted;
}),
(159,95,o),
(204,73,o),
(231,73,qs),
(259,73,o),
(311,95,o),
(332,113.5,qs,{
name = inserted;
}),
(353,132,o),
(382,181,o),
(386,209,qs),
(390,237,o),
(375,286,o),
(359,304,qs,{
name = inserted;
}),
(343,322,o),
(297,343,o),
(269,343,qs),
(242,343,o),
(191,322,o),
(170.5,304,qs,{
name = inserted;
}),
(150,286,o),
(123,237,o),
(119,209,qs)
);
},
{
closed = 1;
nodes = (
(41,269,o),
(120,394,o),
(176,448,qs,{
name = inserted;
}),
(231,502,o),
(362,596,o),
(424,637,q),
(435,621,o),
(456,589,o),
(467,573,q),
(436,554,o),
(382,519,o),
(359,503,qs),
(329,481,o),
(279,441,o),
(259,423,q),
(264,423,o),
(275,424,o),
(280,424,qs),
(325,424,o),
(400,391,o),
(426,362,qs,{
name = inserted;
}),
(451,332,o),
(475,254,o),
(469,209,qs),
(463,164,o),
(416,85,o),
(382,56,qs,{
name = inserted;
}),
(348,26,o),
(264,-8,o),
(219,-8,qs),
(176,-8,o),
(103,24,o),
(78,52,qs,{
name = inserted;
}),
(52,79,o),
(27,154,o),
(31,197,qs)
);
}
);
width = 520;
}
);
unicode = 54;
},
{
glyphname = seven;
lastChange = "2024-08-09 09:20:29 +0000";
layers = (
{
layerId = m001;
shapes = (
{
closed = 1;
nodes = (
(77,0,l),
(59,0,l),
(435,636,l),
(71,636,l),
(62,568,l),
(48,568,l),
(59,650,l),
(460,650,l)
);
}
);
width = 469;
},
{
layerId = "D2CF1DA5-D903-47D8-B1EF-8AECFD40CAE8";
shapes = (
{
closed = 1;
nodes = (
(89,0,l),
(-5,0,l),
(331,568,l),
(127,568,l),
(120,521,l),
(41,521,l),
(59,650,l),
(472,650,l)
);
}
);
width = 469;
}
);
unicode = 55;
},
{
glyphname = eight;
lastChange = "2024-08-09 09:20:29 +0000";
layers = (
{
layerId = m001;
shapes = (
{
closed = 1;
nodes = (
(144,486,o),
(158,444,o),
(174,428.5,qs,{
name = inserted;
}),
(190,413,o),
(235,396,o),
(263,396,qs),
(290,396,o),
(340,413,o),
(359.5,428.5,qs,{
name = inserted;
}),
(379,444,o),
(404,486,o),
(408,511,qs),
(412,538,o),
(399,586,o),
(384,604,qs,{
name = inserted;
}),
(369,622,o),
(325,644,o),
(298,644,qs),
(270,644,o),
(219,622,o),
(199,604,qs,{
name = inserted;
}),
(179,586,o),
(152,538,o),
(148,511,qs)
);
},
{
closed = 1;
nodes = (
(43,157,o),
(62,88,o),
(83.5,62,qs,{
name = inserted;
}),
(105,36,o),
(169,5,o),
(208,5,qs),
(248,5,o),
(322,36,o),
(352,62,qs,{
name = inserted;
}),
(382,88,o),
(422,157,o),
(427,195,qs),
(433,234,o),
(412,301,o),
(389,326.5,qs,{
name = inserted;
}),
(366,352,o),
(300,381,o),
(260,381,qs),
(221,381,o),
(149,352,o),
(120.5,326.5,qs,{
name = inserted;
}),
(92,301,o),
(54,234,o),
(48,195,qs)
);
},
{
closed = 1;
nodes = (
(39,230,o),
(70,293,o),
(94,318.5,qs,{
name = inserted;
}),
(118,344,o),
(178,381,o),
(212,389,q),
(172,403,o),
(128,472,o),
(135,518,qs),
(139,547,o),
(168,598,o),
(190.5,617,qs,{
name = inserted;
}),
(213,636,o),
(268,658,o),
(298,658,qs),
(328,658,o),
(377,635,o),
(394,615.5,qs,{
name = inserted;
}),
(411,596,o),
(426,544,o),
(422,514,qs),
(416,470,o),
(355,403,o),
(312,389,q),
(345,381,o),
(397,345,o),
(414.5,319.5,qs,{
name = inserted;
}),
(432,294,o),
(446,231,o),
(441,195,qs),
(435,153,o),
(392,79,o),
(360.5,51.5,qs,{
name = inserted;
}),
(329,24,o),
(250,-8,o),
(208,-8,qs),
(166,-8,o),
(97,24,o),
(73.5,51.5,qs,{
name = inserted;
}),
(50,79,o),
(28,153,o),
(34,195,qs)
);
}
);
width = 510;
},
{
layerId = "D2CF1DA5-D903-47D8-B1EF-8AECFD40CAE8";
shapes = (
{
closed = 1;
nodes = (
(201,481,o),
(211,452,o),
(221,442,qs),
(229,434,o),
(254,424,o),
(268,424,qs),
(282,424,o),
(309,433,o),
(320,441,qs),
(333,451,o),
(351,480,o),
(354,498,qs),
(357,515,o),
(348,545,o),
(339,555,qs),
(331,565,o),
(305,577,o),
(290,577,qs),
(275,577,o),
(246,564,o),
(234,553,qs,{
name = inserted;
}),
(222,542,o),
(206,514,o),
(204,498,qs)
);
},
{
closed = 1;
nodes = (
(101,181,o),
(115,132,o),
(130,113.5,qs,{
name = inserted;
}),
(145,95,o),
(190,73,o),
(217,73,qs),
(245,73,o),
(297,95,o),
(318.5,113.5,qs,{
name = inserted;
}),
(340,132,o),
(368,181,o),
(372,209,qs),
(376,236,o),
(362,284,o),
(347,302,qs,{
name = inserted;
}),
(332,320,o),
(287,342,o),
(260,343,qs),
(231,343,o),
(178,322,o),
(157.5,304,qs,{
name = inserted;
}),
(137,286,o),
(109,237,o),
(105,209,qs)
);
},
{
closed = 1;
nodes = (
(24,244,o),
(54,308,o),
(77,334,qs),
(92,351,o),
(127,380,o),
(147,391,q),
(130,411,o),
(114,466,o),
(119,498,qs),
(123,531,o),
(156,589,o),
(180,611,qs,{
name = inserted;
}),
(205,633,o),
(266,658,o),
(299,658,qs),
(332,658,o),
(387,633,o),
(406,611,qs,{
name = inserted;
}),
(424,589,o),
(441,531,o),
(437,498,qs),
(432,466,o),
(401,411,o),
(378,391,q),
(393,381,o),
(419,354,o),
(428,339,qs),
(446,312,o),
(460,246,o),
(455,209,qs),
(449,164,o),
(403,85,o),
(369,56,qs,{
name = inserted;
}),
(335,26,o),
(251,-8,o),
(206,-8,qs),
(161,-8,o),
(87,26,o),
(62,56,qs,{
name = inserted;
}),
(36,85,o),
(13,164,o),
(19,209,qs)
);
}
);
width = 510;
}
);
unicode = 56;
},
{
glyphname = nine;
lastChange = "2024-08-09 09:20:29 +0000";
layers = (
{
layerId = m001;
shapes = (
{
closed = 1;
nodes = (
(472,471,o),
(452,539,o),
(429.5,564.5,qs,{
name = inserted;
}),
(407,590,o),
(342,619,o),
(303,619,qs),
(264,619,o),
(190,590,o),
(160.5,564.5,qs,{
name = inserted;
}),
(131,539,o),
(91,471,o),
(85,432,qs),
(80,393,o),
(100,324,o),
(122.5,298.5,qs,{
name = inserted;
}),
(145,273,o),
(211,244,o),
(250,244,qs),
(289,244,o),
(363,273,o),
(392,298.5,qs,{
name = inserted;
}),
(421,324,o),
(461,393,o),
(466,432,qs)
);
},
{
closed = 1;
nodes = (
(469,359,o),
(390,234,o),
(334,180,qs,{
name = inserted;
}),
(278,126,o),
(147,33,o),
(85,-8,q),
(83,-4.5,o,{
name = inserted;
}),
(79,2,o),
(77,5,q),
(150,49,o),
(264,135,o),
(306.5,174.5,qs,{
name = inserted;
}),
(349,214,o),
(406,283,o),
(421,311,q),
(388,274,o),
(298,230,o),
(247,230,qs),
(205,230,o),
(135,262,o),
(111,289.5,qs,{
name = inserted;
}),
(87,317,o),
(65,390,o),
(71,432,qs),
(77,474,o),
(120,547,o),
(151.5,574,qs,{
name = inserted;
}),
(183,601,o),
(262,633,o),
(304,633,qs),
(346,633,o),
(416,601,o),
(440,574,qs,{
name = inserted;
}),
(464,547,o),
(485,474,o),
(479,432,qs)
);
}
);
width = 525;
},
{
layerId = "D2CF1DA5-D903-47D8-B1EF-8AECFD40CAE8";
shapes = (
{
closed = 1;
nodes = (
(394,447,o),
(381,496,o),
(365.5,514.5,qs,{
name = inserted;
}),
(350,533,o),
(305,555,o),
(278,555,qs),
(250,555,o),
(198,533,o),
(177,514.5,qs,{
name = inserted;
}),
(156,496,o),
(127,447,o),
(123,419,qs),
(119,391,o),
(134,342,o),
(150,324,qs,{
name = inserted;
}),
(166,306,o),
(212,285,o),
(240,285,qs),
(267,285,o),
(318,306,o),
(338.5,324,qs,{
name = inserted;
}),
(359,342,o),
(386,391,o),
(390,419,qs)
);
},
{
closed = 1;
nodes = (
(467,351,o),
(387,229,o),
(330,176,qs,{
name = inserted;
}),
(274,122,o),
(144,30,o),
(85,-9,q),
(74,7,o),
(53,39,o),
(42,55,q),
(77,76,o),
(138,117,o),
(163,135,qs),
(189,154,o),
(232,189,o),
(250,205,q),
(245,204,o),
(234,204,o),
(229,204,qs),
(184,204,o),
(109,237,o),
(84,266,qs,{
name = inserted;
}),
(58,296,o),
(34,374,o),
(40,419,qs),
(46,464,o),
(93,543,o),
(127,572,qs,{
name = inserted;
}),
(161,602,o),
(245,636,o),
(290,636,qs),
(335,636,o),
(409,601,o),
(434,572,qs,{
name = inserted;
}),
(459,542,o),
(482,463,o),
(476,419,qs)
);
}
);
width = 525;
}
);
unicode = 57;
},
{
glyphname = onesuperior;
lastChange = "2024-08-09 09:20:29 +0000";
layers = (
{
layerId = m001;
shapes = (
{
closed = 1;
nodes = (
(104,381,l),
(148,693,l),
(91,693,l),
(92,700,l),
(155,700,l),
(112,381,l),
(151,381,l),
(150,375,l),
(64,375,l),
(65,381,l)
);
}
);
width = 249;
},
{
layerId = "D2CF1DA5-D903-47D8-B1EF-8AECFD40CAE8";
shapes = (
{
closed = 1;
nodes = (
(64,414,l),
(99,658,l),
(64,658,l),
(69,698,l),
(145,698,l),
(106,414,l),
(145,414,l),
(140,375,l),
(20,375,l),
(25,414,l)
);
}
);
width = 273;
}
);
unicode = 185;
},
{
glyphname = twosuperior;
lastChange = "2024-08-09 09:20:29 +0000";
layers = (
{
layerId = m001;
shapes = (
{
closed = 1;
nodes = (
(269,382,l),
(277,438,l),
(284,438,l),
(275,375,l),
(79,375,l),
(115,406,o),
(184,465,o),
(211,493.5,qs,{
name = inserted;
}),
(238,522,o),
(274,575,o),
(277,598,qs),
(281,626,o),
(271,662,o),
(260.5,673,qs,{
name = inserted;
}),
(250,684,o),
(223,693,o),
(211,693,qs),
(186,693,o),
(152,676,o),
(141,663,qs,{
name = inserted;
}),
(130,650,o),
(119,619,o),
(117,607,qs),
(114.5,589.5,o,{
name = inserted;
}),
(120.5,561,o),
(129,550,q),
(124,546,l),
(116,558,o),
(108,586,o),
(110,607,q),
(113,626,o),
(130,660,o),
(142.5,673,qs,{
name = inserted;
}),
(155,686,o),
(190,700,o),
(212,700,qs),
(231,700,o),
(261,686,o),
(270.5,673,qs,{
name = inserted;
}),
(280,660,o),
(288,625,o),
(285,604,qs),
(281,576,o),
(243,519,o),
(216.5,491,qs,{
name = inserted;
}),
(190,463,o),
(128,409,o),
(98,382,q)
);
}
);
width = 398;
},
{
layerId = "D2CF1DA5-D903-47D8-B1EF-8AECFD40CAE8";
shapes = (
{
closed = 1;
nodes = (
(266,415,l),
(273,461,l),
(312,461,l),
(300,375,l),
(81,375,l),
(115,406,o),
(181,463,o),
(207,490,qs,{
name = inserted;
}),
(233,517,o),
(267,568,o),
(270,591,qs),
(273,610,o),
(264,635,o),
(257,644,qs,{
name = inserted;
}),
(249,652,o),
(228,660,o),
(220,660,qs),
(201,660,o),
(175,647,o),
(167,638,qs,{
name = inserted;
}),
(159,628,o),
(151,608,o),
(150,600,qs),
(147,584,o,{
name = inserted;
}),
(153,558,o),
(162,548,q),
(133,523,l),
(119,534,o),
(105,581,o),
(108,600,qs),
(111,619,o),
(129,656,o),
(145,670,qs,{
name = inserted;
}),
(160,684,o),
(200,700,o),
(226,700,qs),
(248,700,o),
(283,683,o),
(295,669,qs,{
name = inserted;
}),
(306,655,o),
(316,618,o),
(313,597,qs),
(309,573,o),
(286,527,o),
(268,504,qs,{
name = inserted;
}),
(251,481,o),
(208,437,o),
(186,415,q)
);
}
);
width = 398;
}
);
unicode = 178;
},
{
glyphname = threesuperior;
lastChange = "2024-08-09 09:20:29 +0000";
layers = (
{
layerId = m001;
shapes = (
{
closed = 1;
nodes = (
(264,693,l),
(129,693,l),
(124,660,l),
(118,660,l),
(123,700,l),
(281,700,l),
(165,576,l),
(188,577,o),
(225,563,o),
(238.5,549.5,qs,{
name = inserted;
}),
(252,536,o),
(264,498,o),
(261,476,qs),
(258,455,o),
(237,419,o),
(221.5,405.5,qs,{
name = inserted;
}),
(206,392,o),
(167,376,o),
(146,376,qs),
(124,376,o),
(89,394,o),
(78,409,q),
(83,415,l),
(93,401,o),
(125,383,o),
(146,383,qs),
(165,383,o),
(202,398,o),
(216.5,410.5,qs,{
name = inserted;
}),
(231,423,o),
(251,457,o),
(254,476,qs),
(257,495,o),
(246,529,o),
(235,541.5,qs,{
name = inserted;
}),
(224,554,o),
(191,569,o),
(172,569,qs),
(164,569,o),
(148,563,o),
(140,558,q)
);
}
);
width = 419;
},
{
layerId = "D2CF1DA5-D903-47D8-B1EF-8AECFD40CAE8";
shapes = (
{
closed = 1;
nodes = (
(209,660,l),
(155,660,l),
(152,637,l),
(113,637,l),
(122,700,l),
(284,700,l),
(197,583,l),
(212,577,o),
(236,558,o),
(244,545,qs,{
name = inserted;
}),
(252,532,o),
(259,501,o),
(256,483,qs),
(253,461,o),
(230,422,o),
(213,407,qs,{
name = inserted;
}),
(197,393,o),
(155,376,o),
(133,376,qs),
(109,376,o),
(72,395,o),
(59,411,q),
(93,439,l),
(100,428,o),
(124,416,o),
(139,416,qs),
(153,416,o),
(178,427,o),
(189,436,qs,{
name = inserted;
}),
(199,445,o),
(213,469,o),
(215,483,qs),
(217,497,o),
(210,521,o),
(202,530,qs,{
name = inserted;
}),
(194,539,o),
(171,549,o),
(158,549,qs),
(149,549,o,{
name = inserted;
}),
(132,545,o),
(124,541,q)
);
}
);
width = 419;
}
);
unicode = 179;
},
{
glyphname = ordfeminine;
lastChange = "2024-08-09 09:20:29 +0000";
layers = (
{
layerId = m001;
shapes = (
{
closed = 1;
nodes = (
(107,470,o),
(136,522,o),
(158,541,qs,{
name = inserted;
}),
(179,560,o),
(233,582,o),
(262,582,qs),
(285,582,o),
(323,569,o),
(338,557,qs,{
name = inserted;
}),
(354,545,o),
(375,513,o),
(380,494,q),
(383,514,o),
(391,556,o),
(395,576,q),
(402,576,l),
(365,316,l),
(418,316,l),
(417,306,l),
(354,306,l),
(360,345,ls),
(362,356,o),
(365,379,o),
(367,390,q),
(358,373,o),
(333,345,o),
(319,334,qs),
(298,319,o),
(250,302,o),
(223,302,qs),
(194,302,o),
(146,323,o),
(130,342,qs,{
name = inserted;
}),
(114,362,o),
(98,412,o),
(103,442,qs)
);
},
{
closed = 1;
nodes = (
(109,414,o),
(122,367,o),
(137.5,349.5,qs,{
name = inserted;
}),
(153,332,o),
(197,312,o),
(224,312,qs),
(251,312,o),
(302,332,o),
(322,349.5,qs,{
name = inserted;
}),
(342,367,o),
(370,414,o),
(373,442,qs),
(377,468,o),
(363,516,o),
(348,534,qs,{
name = inserted;
}),
(333,552,o),
(287,572,o),
(261,572,qs),
(233,572,o),
(184,552,o),
(163.5,534,qs,{
name = inserted;
}),
(143,516,o),
(116,468,o),
(113,442,qs)
);
}
);
width = 585;
},
{
layerId = "D2CF1DA5-D903-47D8-B1EF-8AECFD40CAE8";
shapes = (
{
closed = 1;
nodes = (
(107,469,o),
(137,521,o),
(159,540,qs,{
name = inserted;
}),
(181,560,o),
(238,583,o),
(268,583,qs),
(287,583,o),
(318,574,o),
(330,567,qs,{
name = inserted;
}),
(342,560,o),
(354,545,o),
(354,543,q),
(355,551,o),
(360,568,o),
(361,576,q),
(411,576,l),
(381,363,l),
(436,363,l),
(428,306,l),
(321,306,l),
(322,320,ls),
(323,325,o),
(323,331,o),
(324,335,q),
(323,333,o),
(308,321,o),
(296,315,qs,{
name = inserted;
}),
(284,309,o),
(249,300,o),
(228,300,qs),
(198,300,o),
(147,322,o),
(131,341,qs,{
name = inserted;
}),
(114,361,o),
(98,412,o),
(103,441,qs)
);
},
{
closed = 1;
nodes = (
(160,421,o),
(172,387,o),
(185,375,qs),
(194,367,o),
(220,358,o),
(236,358,qs),
(255,358,o),
(287,371,o),
(300,382,qs,{
name = inserted;
}),
(313,393,o),
(330,424,o),
(332,441,qs),
(335,460,o),
(326,491,o),
(316,501,qs),
(307,512,o),
(277,524,o),
(259,524,qs),
(241,524,o),
(208,512,o),
(195,501,qs,{
name = inserted;
}),
(182,490,o),
(165,460,o),
(163,442,qs)
);
}
);
width = 585;
}
);
unicode = 170;
},
{
glyphname = ordmasculine;
lastChange = "2024-08-09 09:20:29 +0000";
layers = (
{
layerId = m001;
shapes = (
{
closed = 1;
nodes = (
(115,470,o),
(144,522,o),
(165.5,541.5,qs,{
name = inserted;
}),
(187,561,o),
(240,583,o),
(270,583,qs),
(299,583,o),
(348,561,o),
(364.5,541.5,qs,{
name = inserted;
}),
(381,522,o),
(396,470,o),
(392,442,qs),
(387,412,o),
(359,362,o),
(337,342.5,qs,{
name = inserted;
}),
(315,323,o),
(260,302,o),
(231,302,qs),
(201,302,o),
(154,323,o),
(137.5,342.5,qs,{
name = inserted;
}),
(121,362,o),
(106,412,o),
(110,442,qs)
);
},
{
closed = 1;
nodes = (
(117,414,o),
(130,367,o),
(145,349.5,qs,{
name = inserted;
}),
(160,332,o),
(204,312,o),
(232,312,qs),
(258,312,o),
(310,332,o),
(330,349.5,qs,{
name = inserted;
}),
(350,367,o),
(377,414,o),
(381,442,qs),
(385,468,o),
(371,516,o),
(356,534,qs,{
name = inserted;
}),
(341,552,o),
(295,572,o),
(268,572,qs),
(241,572,o),
(191,552,o),
(171,534,qs,{
name = inserted;
}),
(151,516,o),
(124,468,o),
(121,442,qs)
);
}
);
width = 469;
},
{
layerId = "D2CF1DA5-D903-47D8-B1EF-8AECFD40CAE8";
shapes = (
{
closed = 1;
nodes = (
(114,470,o),
(144,522,o),
(166,541,qs,{
name = inserted;
}),
(188,561,o),
(244,583,o),
(274,583,qs),
(304,583,o),
(354,561,o),
(371,541,qs,{
name = inserted;
}),
(388,522,o),
(403,470,o),
(399,442,qs),
(395,412,o),
(365,361,o),
(343,341,qs,{
name = inserted;
}),
(321,322,o),
(265,300,o),
(234,300,qs),
(204,300,o),
(155,322,o),
(138,341,qs,{
name = inserted;
}),
(121,361,o),
(105,412,o),
(110,442,qs)
);
},
{
closed = 1;
nodes = (
(167,424,o),
(176,393,o),
(186,382,qs,{
name = inserted;
}),
(196,371,o),
(224,358,o),
(241,358,qs),
(258,358,o),
(291,371,o),
(304,382,qs,{
name = inserted;
}),
(317,393,o),
(334,424,o),
(336,441,qs),
(338,458,o),
(330,488,o),
(320,500,qs,{
name = inserted;
}),
(310,512,o),
(281,525,o),
(264,525,qs),
(247,525,o),
(215,512,o),
(202,500,qs,{
name = inserted;
}),
(189,488,o),
(172,458,o),
(170,441,qs)
);
}
);
width = 469;
}
);
unicode = 186;
},
{
glyphname = onehalf;
lastChange = "2024-08-09 09:20:29 +0000";
layers = (
{
layerId = m001;
shapes = (
{
closed = 1;
nodes = (
(170,244,l),
(232,685,l),
(152,685,l),
(153,695,l),
(243,695,l),
(180,244,l),
(237,244,l),
(235,234,l),
(112,234,l),
(113,244,l)
);
},
{
closed = 1;
nodes = (
(830,10,l),
(841,90,l),
(851,90,l),
(838,0,l),
(558,0,l),
(610,44,o),
(707,129,o),
(746,170,qs,{
name = inserted;
}),
(785,211,o),
(836,286,o),
(841,319,qs),
(847,359,o),
(832,411,o),
(817,426.5,qs,{
name = inserted;
}),
(802,442,o),
(764,455,o),
(746,455,qs),
(711,455,o),
(663,430,o),
(647.5,411.5,qs,{
name = inserted;
}),
(632,393,o),
(615,350,o),
(613,331,qs),
(609.5,306.5,o,{
name = inserted;
}),
(618,266.5,o),
(630,251,q),
(623,245,l),
(611,262,o),
(599,302,o),
(603,331,qs),
(607,360,o),
(630,408,o),
(648.5,426,qs,{
name = inserted;
}),
(667,444,o),
(717,465,o),
(748,465,qs),
(775,465,o),
(818,444,o),
(831.5,426,qs,{
name = inserted;
}),
(845,408,o),
(856,358,o),
(852,328,qs),
(846,287,o),
(793,206,o),
(755,166,qs,{
name = inserted;
}),
(717,126,o),
(628,48,o),
(585,10,q)
);
},
{
closed = 1;
nodes = (
(339,171,o),
(529,545,o),
(626,735,q),
(640,735,l),
(543,545,o),
(353,171,o),
(256,-19,q),
(242,-19,l)
);
}
);
width = 1069;
},
{
layerId = "D2CF1DA5-D903-47D8-B1EF-8AECFD40CAE8";
shapes = (
{
closed = 1;
nodes = (
(145,290,l),
(194,638,l),
(145,638,l),
(153,695,l),
(261,695,l),
(204,290,l),
(260,290,l),
(252,234,l),
(81,234,l),
(89,290,l)
);
},
{
closed = 1;
nodes = (
(804,57,l),
(813,123,l),
(869,123,l),
(851,0,l),
(537,0,l),
(587,44,o),
(681,127,o),
(718,166,qs,{
name = inserted;
}),
(755,204,o),
(804,277,o),
(809,311,qs),
(813,337,o),
(801,374,o),
(789,386,qs,{
name = inserted;
}),
(778,398,o),
(749,409,o),
(736,409,qs),
(709,409,o),
(673,391,o),
(661,378,qs,{
name = inserted;
}),
(649,364,o),
(637,334,o),
(636,323,qs),
(633,300,o,{
name = inserted;
}),
(641,263,o),
(653,249,q),
(612,213,l),
(591,228,o),
(572,296,o),
(576,323,qs),
(580,351,o),
(607,404,o),
(629,424,qs,{
name = inserted;
}),
(651,444,o),
(709,467,o),
(745,467,qs),
(777,467,o),
(828,443,o),
(844,423,qs,{
name = inserted;
}),
(860,402,o),
(874,349,o),
(870,319,qs),
(865,284,o),
(831,218,o),
(806,185,qs,{
name = inserted;
}),
(782,153,o),
(720,89,o),
(687,57,q)
);
},
{
closed = 1;
nodes = (
(300,171,o),
(490,546,o),
(587,736,q),
(671,736,l),
(574,546,o),
(383,171,o),
(286,-19,q),
(203,-19,l)
);
}
);
width = 1069;
}
);
unicode = 189;
},
{
glyphname = onequarter;
lastChange = "2024-08-09 09:20:29 +0000";
layers = (
{
layerId = m001;
shapes = (
{
closed = 1;
nodes = (
(339,171,o),
(529,545,o),
(626,735,q),
(640,735,l),
(543,545,o),
(353,171,o),
(256,-19,q),
(242,-19,l)
);
},
{
closed = 1;
nodes = (
(730,10,l),
(747,136,l),
(486,136,l),
(808,490,l),
(759,147,l),
(831,147,l),
(830,136,l),
(758,136,l),
(740,10,l),
(802,10,l),
(800,0,l),
(671,0,l),
(672,10,l)
);
},
{
closed = 1;
nodes = (
(510,147,l),
(749,147,l),
(793,459,l)
);
},
{
closed = 1;
nodes = (
(187,244,l),
(249,685,l),
(169,685,l),
(170,695,l),
(260,695,l),
(197,244,l),
(254,244,l),
(252,234,l),
(129,234,l),
(130,244,l)
);
}
);
width = 968;
},
{
layerId = "D2CF1DA5-D903-47D8-B1EF-8AECFD40CAE8";
shapes = (
{
closed = 1;
nodes = (
(300,171,o),
(490,546,o),
(587,736,q),
(671,736,l),
(574,546,o),
(383,171,o),
(286,-19,q),
(203,-19,l)
);
},
{
closed = 1;
nodes = (
(684,59,l),
(695,136,l),
(486,136,l),
(808,490,l),
(766,197,l),
(838,197,l),
(830,136,l),
(758,136,l),
(747,59,l),
(808,59,l),
(800,0,l),
(620,0,l),
(629,59,l)
);
},
{
closed = 1;
nodes = (
(619,197,l),
(704,197,l),
(719,308,l)
);
},
{
closed = 1;
nodes = (
(145,290,l),
(194,638,l),
(145,638,l),
(153,695,l),
(261,695,l),
(204,290,l),
(260,290,l),
(252,234,l),
(81,234,l),
(89,290,l)
);
}
);
width = 968;
}
);
unicode = 188;
},
{
glyphname = threequarters;
lastChange = "2024-08-09 09:20:29 +0000";
layers = (
{
layerId = m001;
shapes = (
{
closed = 1;
nodes = (
(416,697,l),
(206,697,l),
(198,645,l),
(188,645,l),
(197,708,l),
(443,708,l),
(262,513,l),
(297,515,o),
(356,492,o),
(376.5,471.5,qs,{
name = inserted;
}),
(397,451,o),
(416,391,o),
(412,357,qs),
(407,324,o),
(374,267,o),
(349.5,246,qs,{
name = inserted;
}),
(325,225,o),
(265,200,o),
(232,200,qs),
(198,200,o),
(143,228,o),
(125,251,q),
(134,261,l),
(149,238,o),
(199,211,o),
(231,211,qs),
(262,211,o),
(319,234,o),
(342.5,254,qs,{
name = inserted;
}),
(366,274,o),
(396,327,o),
(401,357,qs),
(406,387,o),
(389,440,o),
(371.5,459.5,qs,{
name = inserted;
}),
(354,479,o),
(302,502,o),
(272,502,qs),
(260,502,o),
(235,493,o),
(223,485,q)
);
},
{
closed = 1;
nodes = (
(504,171,o),
(694,546,o),
(791,736,q),
(805,736,l),
(708,546,o),
(518,171,o),
(421,-19,q),
(407,-19,l)
);
},
{
closed = 1;
nodes = (
(928,10,l),
(946,136,l),
(684,136,l),
(1007,490,l),
(958,147,l),
(1030,147,l),
(1029,136,l),
(957,136,l),
(939,10,l),
(1001,10,l),
(999,0,l),
(869,0,l),
(871,10,l)
);
},
{
closed = 1;
nodes = (
(708,147,l),
(948,147,l),
(992,459,l)
);
}
);
width = 1276;
},
{
layerId = "D2CF1DA5-D903-47D8-B1EF-8AECFD40CAE8";
shapes = (
{
closed = 1;
nodes = (
(346,644,l),
(260,644,l),
(255,608,l),
(194,608,l),
(208,708,l),
(463,708,l),
(326,524,l),
(350,514,o),
(388,484,o),
(400,464,qs,{
name = inserted;
}),
(413,444,o),
(423,395,o),
(419,367,qs),
(415,332,o),
(378,271,o),
(352,248,qs,{
name = inserted;
}),
(326,225,o),
(261,199,o),
(226,199,qs),
(189,199,o),
(130,229,o),
(110,254,q),
(163,298,l),
(175,281,o),
(212,261,o),
(235,261,qs),
(257,261,o),
(297,278,o),
(313,293,qs,{
name = inserted;
}),
(330,307,o),
(352,345,o),
(355,367,qs),
(358,388,o),
(347,426,o),
(334,440,qs,{
name = inserted;
}),
(322,454,o),
(286,470,o),
(265,470,qs),
(251,470,o,{
name = inserted;
}),
(224,464,o),
(212,457,q)
);
},
{
closed = 1;
nodes = (
(490,171,o),
(680,546,o),
(777,736,q),
(861,736,l),
(764,546,o),
(573,171,o),
(476,-19,q),
(393,-19,l)
);
},
{
closed = 1;
nodes = (
(883,59,l),
(894,136,l),
(685,136,l),
(1007,490,l),
(965,197,l),
(1037,197,l),
(1029,136,l),
(957,136,l),
(946,59,l),
(1007,59,l),
(999,0,l),
(819,0,l),
(828,59,l)
);
},
{
closed = 1;
nodes = (
(818,197,l),
(903,197,l),
(918,308,l)
);
}
);
width = 1276;
}
);
unicode = 190;
},
{
glyphname = AE;
lastChange = "2024-08-09 09:20:29 +0000";
layers = (
{
layerId = m001;
shapes = (
{
closed = 1;
nodes = (
(808,686,l),
(512,686,l),
(466,360,l),
(737,360,l),
(735,346,l),
(464,346,l),
(417,14,l),
(727,14,l),
(747,154,l),
(761,154,l),
(740,0,l),
(402,0,l),
(446,316,l),
(299,316,l),
(256,240,o),
(172,89,o),
(128,14,q),
(210,14,l),
(209,0,l),
(35,0,l),
(36,14,l),
(113,14,l),
(211,186,o),
(403,527,o),
(500,700,q),
(824,700,l),
(802,546,l),
(788,546,l)
);
},
{
closed = 1;
nodes = (
(495,666,l),
(450,580,o),
(355,415,o),
(307,330,q),
(448,330,l)
);
}
);
width = 775;
},
{
layerId = "D2CF1DA5-D903-47D8-B1EF-8AECFD40CAE8";
shapes = (
{
closed = 1;
nodes = (
(736,621,l),
(562,621,l),
(530,392,l),
(744,392,l),
(732,313,l),
(518,313,l),
(486,79,l),
(674,79,l),
(684,154,l),
(763,154,l),
(742,0,l),
(392,0,l),
(429,264,l),
(314,264,l),
(288,217,o),
(235,126,o),
(209,79,q),
(268,79,l),
(257,0,l),
(35,0,l),
(46,79,l),
(126,79,l),
(214,235,o),
(388,544,o),
(476,700,q),
(826,700,l),
(804,546,l),
(725,546,l)
);
},
{
closed = 1;
nodes = (
(469,548,l),
(447,496,o),
(386,394,o),
(358,343,q),
(440,343,l)
);
}
);
width = 777;
}
);
unicode = 198;
},
{
glyphname = ae;
lastChange = "2024-08-09 09:20:29 +0000";
layers = (
{
layerId = m001;
shapes = (
{
closed = 1;
nodes = (
(551,310,o),
(478,367,o),
(428,367,qs),
(410,367,o),
(377,360,o),
(361,354,q),
(379,338,o),
(387,283,o),
(381,241,qs),
(374,191,l),
(422,209,o),
(517,246,o),
(565,264,q)
);
},
{
closed = 1;
nodes = (
(264,177,ls),
(248,177,o),
(185,178,o),
(152.5,171.5,qs,{
name = inserted;
}),
(120,165,o),
(68,131,o),
(64,97,qs),
(60,68,o),
(83,31,o),
(102.5,21,qs,{
name = inserted;
}),
(122,11,o),
(172,4,o),
(195,4,qs),
(220,4,o),
(271,13,o),
(292,24.5,qs,{
name = inserted;
}),
(313,36,o),
(343,75,o),
(348,105,qs),
(358,177,l)
);
},
{
closed = 1;
nodes = (
(157,-10,o),
(100,0,o),
(81,12,qs,{
name = inserted;
}),
(62,24,o),
(45,65,o),
(49,96,qs),
(53,123,o),
(84,159,o),
(106,170,qs,{
name = inserted;
}),
(129,182,o),
(185,191,o),
(214,191,qs),
(360,191,l),
(367,243,ls),
(371,274,o),
(368,321,o),
(355,336,qs,{
name = inserted;
}),
(342,352,o),
(288,367,o),
(242,367,qs),
(228,367,o),
(195,361,o),
(180,356,qs,{
name = inserted;
}),
(164,351,o),
(137,338,o),
(128,332,q),
(116,344,l),
(126,352,o),
(157,365,o),
(174,370,qs,{
name = inserted;
}),
(192,375,o),
(229,381,o),
(245,381,qs),
(281,381,o,{
name = inserted;
}),
(332,372,o),
(348,364,q),
(368,372,o,{
name = inserted;
}),
(409,381,o),
(430,381,qs),
(462,381,o),
(518,358,o),
(538,339,qs),
(554,323,o),
(577,281,o),
(582,257,q),
(372,176,l),
(365,128,ls),
(360,89,o),
(335,38,o),
(309,20,q),
(324,13,o,{
name = inserted;
}),
(359,6,o),
(378,6,qs),
(414,6,o),
(481,32,o),
(509,55,q),
(511,52,o),
(514,47,o),
(516,44,q),
(487,20,o),
(415,-8,o),
(376,-8,qs),
(353,-8,o,{
name = inserted;
}),
(312,1,o),
(294,10,q),
(274,0,o,{
name = inserted;
}),
(223,-10,o),
(192,-10,qs)
);
}
);
width = 580;
},
{
layerId = "D2CF1DA5-D903-47D8-B1EF-8AECFD40CAE8";
shapes = (
{
closed = 1;
nodes = (
(499,281,o),
(466,302,o),
(445,302,qs),
(430.5,302,o,{
name = inserted;
}),
(403.5,296.5,o),
(391,291,q),
(391,280,o),
(389,256,o),
(387,242,qs),
(384,220,l),
(416,231,o),
(478,253,o),
(510,264,q)
);
},
{
closed = 1;
nodes = (
(232,134,ls),
(218,134,o),
(185,132,o),
(170.5,129,qs,{
name = inserted;
}),
(156,126,o),
(136,115,o),
(135,106,qs),
(133,95,o),
(145,82,o),
(155,78,qs,{
name = inserted;
}),
(165,74,o),
(191,71,o),
(205,71,qs),
(216,71,o),
(242,72,o),
(253.5,75,qs,{
name = inserted;
}),
(265,78,o),
(282,93,o),
(284,108,qs),
(288,134,l)
);
},
{
closed = 1;
nodes = (
(159,-10,o),
(101,1,o),
(82,15,qs,{
name = inserted;
}),
(63,29,o),
(46,75,o),
(51,110,qs),
(55,141,o),
(86,184,o),
(108,196,qs,{
name = inserted;
}),
(130,209,o),
(184,220,o),
(211,220,qs),
(300,220,l),
(303,244,ls),
(305,259,o),
(303,280,o),
(296,288,qs,{
name = inserted;
}),
(290,295,o),
(262,302,o),
(239,302,qs),
(225,302,o),
(192,297,o),
(177,292,qs),
(164,288,o),
(141,279,o),
(133,274,q),
(97,327,l),
(110,338,o),
(147,359,o),
(168,366,qs,{
name = inserted;
}),
(189,374,o),
(233,383,o),
(252,383,qs),
(291,383,o,{
name = inserted;
}),
(346,372,o),
(361,361,q),
(384,372,o,{
name = inserted;
}),
(432,383,o),
(457,383,qs),
(488,383,o),
(541,358,o),
(561,336,qs,{
name = inserted;
}),
(580,314,o),
(605,253,o),
(609,217,q),
(372,133,l),
(371,127,ls),
(369,114,o),
(363,93,o),
(359,82,q),
(370,76,o),
(398,71,o),
(413,71,qs),
(436,71,o),
(477,88,o),
(493,103,q),
(504,88,o),
(525,58,o),
(536,43,q),
(507,18,o),
(440,-10,o),
(402,-10,qs),
(376,-10,o,{
name = inserted;
}),
(328,2,o),
(307,15,q),
(287,2,o,{
name = inserted;
}),
(231,-10,o),
(195,-10,qs)
);
}
);
width = 613;
}
);
unicode = 230;
},
{
glyphname = eth;
lastChange = "2024-08-09 09:20:29 +0000";
layers = (
{
layerId = m001;
shapes = (
{
closed = 1;
nodes = (
(71,150,o),
(89,85,o),
(110,60.5,qs,{
name = inserted;
}),
(131,36,o),
(192,8,o),
(230,8,qs),
(267,8,o),
(338,36,o),
(366,60.5,qs,{
name = inserted;
}),
(394,85,o),
(432,150,o),
(437,188,qs),
(442,225,o),
(423,291,o),
(402,316,qs,{
name = inserted;
}),
(381,341,o),
(318,369,o),
(281,369,qs),
(243,369,o),
(174,341,o),
(146,316,qs,{
name = inserted;
}),
(118,291,o),
(81,225,o),
(76,188,qs)
);
},
{
closed = 1;
nodes = (
(445,147,o),
(405,77,o),
(375,50.5,qs,{
name = inserted;
}),
(345,24,o),
(269,-6,o),
(229,-6,qs),
(188,-6,o),
(122,24,o),
(99.5,50.5,qs,{
name = inserted;
}),
(77,77,o),
(56,147,o),
(62,188,qs),
(68,228,o),
(108,300,o),
(138,326,qs,{
name = inserted;
}),
(168,352,o),
(242,383,o),
(283,383,qs),
(334,383,o),
(413,335,o),
(434,295,q),
(429,352,o),
(369,523,o),
(299,620,q),
(278,600,o),
(235,559,o),
(213,539,q),
(212,540.5,o,{
name = inserted;
}),
(208.5,544.5,o),
(206,547,q),
(228,567,o),
(272,609,o),
(294,629,q),
(275,652,o),
(235,697,o),
(212,717,q),
(213.5,718.5,o,{
name = inserted;
}),
(217,723,o),
(219,726,q),
(241,707.5,o,{
name = inserted;
}),
(283,663,o),
(303,637,q),
(323,657,o),
(364,694,o),
(384,714,q),
(386,712,o),
(389,709,o),
(391,707,q),
(370,687,o),
(329,649,o),
(309,629,q),
(343,581,o),
(402,471,o),
(422,414,qs,{
name = inserted;
}),
(442,357,o),
(458,242,o),
(451,188,qs)
);
}
);
width = 459;
},
{
layerId = "D2CF1DA5-D903-47D8-B1EF-8AECFD40CAE8";
shapes = (
{
closed = 1;
nodes = (
(143,163,o),
(155,121,o),
(169,106,qs,{
name = inserted;
}),
(183,91,o),
(224,74,o),
(250,75,qs),
(276,76,o),
(321,95,o),
(338,111,qs,{
name = inserted;
}),
(356,127,o),
(378,170,o),
(381,194,qs),
(383,219,o),
(370,261,o),
(356,276,qs),
(343,291,o),
(302,306,o),
(277,306,qs),
(251,305,o),
(206,288,o),
(189,273,qs),
(171,258,o),
(149,214,o),
(146,188,qs)
);
},
{
closed = 1;
nodes = (
(459,156,o),
(420,84,o),
(390,56.5,qs,{
name = inserted;
}),
(360,29,o),
(284,-5,o),
(242,-6,qs),
(200,-7,o),
(131,22,o),
(106.5,48,qs,{
name = inserted;
}),
(82,74,o),
(58,144,o),
(62,185,qs),
(66,225,o),
(106,298,o),
(136.5,325,qs,{
name = inserted;
}),
(167,352,o),
(243,385,o),
(285,386,qs),
(301.5,386.5,o,{
name = inserted;
}),
(333,382.5,o),
(348,378,q),
(340,418,o),
(312,493,o),
(293,528,q),
(280,515,o),
(253,491,o),
(240,478,q),
(227,492,o),
(202,517,o),
(189,531,q),
(206,546,o),
(237,576,o),
(254,591,q),
(236.5,616,o,{
name = inserted;
}),
(197,662,o),
(175,683,q),
(192,697,o),
(226,724,o),
(243,738,q),
(264,720,o),
(303,678,o),
(322,655,q),
(335,668,o),
(360,692,o),
(374,705,q),
(386,692,o),
(412,667,o),
(425,654,q),
(409,639,o),
(378,610,o),
(362,595,q),
(387,554,o),
(431,456,o),
(445.5,404,qs,{
name = inserted;
}),
(460,352,o),
(471,246,o),
(464,197,qs)
);
}
);
width = 471;
}
);
unicode = 240;
},
{
glyphname = Thorn;
lastChange = "2024-08-09 09:20:29 +0000";
layers = (
{
layerId = m001;
shapes = (
{
closed = 1;
nodes = (
(107,14,l),
(202,686,l),
(131,686,l),
(133,700,l),
(307,700,l),
(305,686,l),
(216,686,l),
(195,535,l),
(321,535,ls),
(350,535,o),
(417,515,o),
(444,494,qs,{
name = inserted;
}),
(471,473,o),
(503,405,o),
(496,357,qs),
(484,274,o),
(359,176,o),
(256,176,qs),
(144,176,l),
(121,14,l),
(210,14,l),
(209,0,l),
(35,0,l),
(36,14,l)
);
},
{
closed = 1;
nodes = (
(261,190,ls),
(319,190,o),
(400,222,o),
(426,246.5,qs,{
name = inserted;
}),
(452,271,o),
(478,330,o),
(482,357,qs),
(486,390,o),
(465,449,o),
(441.5,471.5,qs,{
name = inserted;
}),
(418,494,o),
(351,521,o),
(309,521,qs),
(193,521,l),
(146,190,l)
);
}
);
width = 481;
},
{
layerId = "D2CF1DA5-D903-47D8-B1EF-8AECFD40CAE8";
shapes = (
{
closed = 1;
nodes = (
(117,79,l),
(193,621,l),
(122,621,l),
(133,700,l),
(355,700,l),
(344,621,l),
(276,621,l),
(264,535,l),
(346,535,ls),
(380,535,o),
(460,514,o),
(492.5,491,qs,{
name = inserted;
}),
(525,468,o),
(563,396,o),
(556,345,qs),
(543,254,o),
(420,147,o),
(318,147,qs),
(209,147,l),
(200,79,l),
(288,79,l),
(277,0,l),
(35,0,l),
(46,79,l)
);
},
{
closed = 1;
nodes = (
(307,227,ls),
(351,227,o),
(412,250,o),
(431.5,267,qs,{
name = inserted;
}),
(451,284,o),
(470,326,o),
(473,345,qs),
(476,367,o),
(459,408,o),
(441.5,423.5,qs,{
name = inserted;
}),
(424,439,o),
(372,457,o),
(341,457,qs),
(253,457,l),
(220,227,l)
);
}
);
width = 543;
}
);
unicode = 222;
},
{
glyphname = thorn;
lastChange = "2024-08-09 09:20:29 +0000";
layers = (
{
layerId = m001;
shapes = (
{
closed = 1;
nodes = (
(24,-236,l),
(161,736,l),
(84,736,l),
(86,750,l),
(260,750,l),
(258,736,l),
(175,736,l),
(116,321,ls),
(114,305,o),
(108,273,o),
(106,257,q),
(121,284,o),
(163,330,o),
(189.5,346.5,qs,{
name = inserted;
}),
(216,363,o),
(275,381,o),
(306,381,qs),
(346,381,o),
(413,351,o),
(435.5,324.5,qs,{
name = inserted;
}),
(458,298,o),
(479,227,o),
(473,187,qs),
(467,146,o),
(426,75,o),
(396,49,qs,{
name = inserted;
}),
(366,23,o),
(291,-8,o),
(251,-8,qs),
(188,-8,o),
(101,61,o),
(88,115,q),
(86,101,o),
(83,75,o),
(81,61,qs),
(39,-236,l),
(121,-236,l),
(119,-250,l),
(-54,-250,l),
(-52,-236,l)
);
},
{
closed = 1;
nodes = (
(464,224,o),
(445,290,o),
(424,314.5,qs,{
name = inserted;
}),
(403,339,o),
(341,367,o),
(304,367,qs),
(266,367,o),
(197,339,o),
(169,314.5,qs,{
name = inserted;
}),
(141,290,o),
(103,224,o),
(98,187,qs),
(93,149,o),
(112,84,o),
(133,59,qs,{
name = inserted;
}),
(154,34,o),
(215,6,o),
(253,6,qs),
(290,6,o),
(360,34,o),
(388,59,qs,{
name = inserted;
}),
(416,84,o),
(454,149,o),
(459,187,qs)
);
}
);
width = 498;
},
{
layerId = "D2CF1DA5-D903-47D8-B1EF-8AECFD40CAE8";
shapes = (
{
closed = 1;
nodes = (
(33,-171,l),
(152,671,l),
(75,671,l),
(86,750,l),
(308,750,l),
(297,671,l),
(235,671,l),
(191,360,ls),
(190,351,o),
(188,341,o),
(187,337,q),
(189,340,o),
(202,350,o),
(220,359,qs,{
name = inserted;
}),
(238,368,o),
(285,382,o),
(311,382,qs),
(353,382,o),
(422,351,o),
(445.5,324,qs,{
name = inserted;
}),
(469,297,o),
(490,226,o),
(485,187,qs),
(479,147,o),
(438,76,o),
(407,49,qs,{
name = inserted;
}),
(376,22,o),
(298,-9,o),
(256,-9,qs),
(208,-9,o),
(152,17,o),
(141,34,q),
(142,29,o),
(142,16,o),
(141,6,qs),
(116,-171,l),
(198,-171,l),
(187,-250,l),
(-54,-250,l),
(-43,-171,l)
);
},
{
closed = 1;
nodes = (
(405,216,o),
(391,261,o),
(374,277,qs),
(361,289,o),
(323,303,o),
(300,303,qs),
(274,303,o),
(229,286,o),
(211,270,qs,{
name = inserted;
}),
(193,255,o),
(170,213,o),
(167,188,qs),
(164,164,o),
(174,122,o),
(186,106,qs),
(199,90,o),
(241,72,o),
(267,72,qs),
(293,72,o),
(339,90,o),
(356,106,qs,{
name = inserted;
}),
(374,121,o),
(398,164,o),
(401,188,qs)
);
}
);
width = 510;
}
);
unicode = 254;
},
{
glyphname = germandbls;
lastChange = "2024-08-09 09:20:29 +0000";
layers = (
{
layerId = m001;
shapes = (
{
closed = 1;
nodes = (
(121,14,l),
(171,370,l),
(106,370,l),
(108,384,l),
(173,384,l),
(178,426,ls),
(186,481,o),
(228,567,o),
(257,596,qs,{
name = inserted;
}),
(286,625,o),
(358,656,o),
(396,658,q),
(425,657,o),
(473,634,o),
(489.5,614.5,qs,{
name = inserted;
}),
(506,595,o),
(520,543,o),
(516,514,qs),
(510,470,o),
(449,403,o),
(406,389,q),
(438,381,o),
(490,345,o),
(507.5,319.5,qs,{
name = inserted;
}),
(525,294,o),
(540,231,o),
(535,195,qs),
(529,153,o),
(486,79,o),
(454.5,51.5,qs,{
name = inserted;
}),
(423,24,o),
(344,-8,o),
(302,-8,qs),
(273,-8,o,{
name = inserted;
}),
(222,7,o),
(200,22,q),
(207,33,l),
(227,19,o,{
name = inserted;
}),
(274,5,o),
(301,5,qs),
(341,5,o),
(415,36,o),
(445,62,qs,{
name = inserted;
}),
(475,88,o),
(516,157,o),
(521,195,qs),
(526,233,o),
(506,300,o),
(483.5,325.5,qs,{
name = inserted;
}),
(461,351,o),
(396,381,o),
(357,381,q),
(357,383,o),
(358,386,o),
(358,388,q),
(359,396,l),
(385,396,o),
(433,413,o),
(452.5,428.5,qs,{
name = inserted;
}),
(472,444,o),
(498,486,o),
(501,511,qs),
(505,537,o),
(493,585,o),
(478.5,603.5,qs,{
name = inserted;
}),
(464,622,o),
(421,644,o),
(394,644,qs),
(360,644,o),
(294,614,o),
(266.5,586,qs,{
name = inserted;
}),
(239,558,o),
(200,479,o),
(193,430,qs),
(133,0,l),
(36,0,l),
(38,14,l)
);
}
);
width = 542;
},
{
layerId = "D2CF1DA5-D903-47D8-B1EF-8AECFD40CAE8";
shapes = (
{
closed = 1;
nodes = (
(107,79,l),
(143,334,l),
(83,334,l),
(94,415,l),
(154,415,l),
(155,423,ls),
(163,477,o),
(210,564,o),
(243,594,qs,{
name = inserted;
}),
(276,625,o),
(357,657,o),
(398,657,qs),
(431,657,o),
(486,632,o),
(504,610,qs,{
name = inserted;
}),
(523,588,o),
(540,530,o),
(536,497,qs),
(531,465,o),
(500,410,o),
(477,390,q),
(492,380,o),
(518,353,o),
(527,338,qs),
(545,312,o),
(559,245,o),
(554,208,qs),
(548,163,o),
(502,84,o),
(468,54,qs,{
name = inserted;
}),
(434,25,o),
(350,-9,o),
(305,-9,qs),
(282,-9,o),
(239,0,o),
(221,9,q),
(265,83,l),
(277,78,o,{
name = inserted;
}),
(302,72,o),
(316,72,qs),
(344,72,o),
(396,94,o),
(418,112,qs,{
name = inserted;
}),
(439,131,o),
(467,180,o),
(471,208,qs),
(475,236,o),
(459,285,o),
(443,303,qs,{
name = inserted;
}),
(427,321,o),
(380,342,o),
(352,342,q),
(354,352,o),
(354,371,o),
(356,382,qs),
(362,423,l),
(377,423,o),
(406,431,o),
(417,439,qs),
(431,448,o),
(450,478,o),
(453,497,qs),
(455,512,o),
(448,540,o),
(440,551,qs),
(431,563,o),
(405,577,o),
(388,576,qs),
(358,575,o),
(306,551,o),
(287,530,qs),
(268,510,o),
(243,453,o),
(238,418,qs),
(179,0,l),
(36,0,l),
(47,79,l)
);
}
);
width = 559;
}
);
unicode = 223;
},
{
glyphname = dollar;
lastChange = "2024-08-09 09:20:29 +0000";
layers = (
{
layerId = m001;
shapes = (
{
closed = 1;
nodes = (
(414,653,l),
(397,667,o),
(337,688,o),
(293,690,q),
(249,380,l),
(284,369,o),
(353,345,o),
(379,324.5,qs,{
name = inserted;
}),
(405,304,o),
(433,238,o),
(427,186,qs),
(422,142,o),
(380,72,o),
(348.5,46.5,qs,{
name = inserted;
}),
(317,21,o),
(237,-7,o),
(194,-8,q),
(186,-68,l),
(173,-68,l),
(181,-8,l),
(143,-7,o),
(84,9,o),
(62.5,20,qs,{
name = inserted;
}),
(41,31,o),
(13,55,o),
(6,64,q),
(20,164,l),
(34,164,l),
(21,74,l),
(45,45,o),
(123,7,o),
(183,6,q),
(234,367,l),
(204,376,o),
(149,397,o),
(128.5,413.5,qs,{
name = inserted;
}),
(108,430,o),
(86,479,o),
(89,517,qs),
(92,550,o),
(119,615,o),
(143,642,qs,{
name = inserted;
}),
(167,669,o),
(237,703,o),
(282,704,q),
(290,764,l),
(303,764,l),
(295,704,l),
(311,704,o),
(347,699,o),
(365,694,qs,{
name = inserted;
}),
(383,689,o),
(416,673,o),
(429,660,q),
(413,546,l),
(399,546,l)
);
},
{
closed = 1;
nodes = (
(419,230,o),
(394,292,o),
(370,311.5,qs,{
name = inserted;
}),
(346,331,o),
(281,353,o),
(247,363,q),
(196,6,l),
(233,7,o),
(306,34,o),
(336,56.5,qs,{
name = inserted;
}),
(366,79,o),
(407,143,o),
(412,182,qs)
);
},
{
closed = 1;
nodes = (
(100,494,o),
(118,446,o),
(137,429.5,qs,{
name = inserted;
}),
(156,413,o),
(207,392,o),
(236,383,q),
(280,690,l),
(242,689,o),
(181,662,o),
(158.5,639.5,qs,{
name = inserted;
}),
(136,617,o),
(109,560,o),
(105,530,qs)
);
}
);
width = 567;
},
{
layerId = "D2CF1DA5-D903-47D8-B1EF-8AECFD40CAE8";
shapes = (
{
closed = 1;
nodes = (
(381,605,l),
(368,611,o),
(338,621,o),
(319,623,q),
(288,398,l),
(319,387,o),
(378,359,o),
(400,336,qs,{
name = inserted;
}),
(422,313,o),
(443,241,o),
(436,187,qs),
(430,146,o),
(393,79,o),
(366,54,qs,{
name = inserted;
}),
(338,29,o),
(268,-2,o),
(231,-6,q),
(222,-68,l),
(138,-68,l),
(147,-3,l),
(122,1,o),
(76,16,o),
(57,26,qs),
(32,39,o),
(-5,74,o),
(-14,93,q),
(1,209,l),
(80,209,l),
(67,120,l),
(85,105,o),
(129,81,o),
(158,75,q),
(196,343,l),
(169,352,o),
(119,376,o),
(102,396,qs,{
name = inserted;
}),
(84,415,o),
(67,473,o),
(72,517,qs),
(75,545,o),
(99,604,o),
(120,630,qs,{
name = inserted;
}),
(141,655,o),
(204,692,o),
(246,700,q),
(255,764,l),
(339,764,l),
(330,702,l),
(347,700,o),
(384,693,o),
(403,685,qs),
(418,678,o),
(450,658,o),
(465,644,q),
(451,546,l),
(372,546,l)
);
},
{
closed = 1;
nodes = (
(357,216,o),
(348,257,o),
(338,272,qs,{
name = inserted;
}),
(327,287,o),
(295,308,o),
(276,316,q),
(242,75,l),
(258,79,o),
(289,91,o),
(302,101,qs),
(322,115,o),
(349,159,o),
(353,188,qs)
);
},
{
closed = 1;
nodes = (
(152,491,o),
(164,460,o),
(176,448,qs),
(183,442,o),
(199,432,o),
(208,427,q),
(234,616,l),
(217,610,o),
(191,590,o),
(181,578,qs),
(171,564,o),
(158,532,o),
(155,514,qs)
);
}
);
width = 567;
}
);
unicode = 36;
},
{
glyphname = cent;
lastChange = "2024-08-09 09:20:29 +0000";
layers = (
{
layerId = m001;
shapes = (
{
closed = 1;
nodes = (
(367,37,l),
(338,17,o),
(272,-6,o),
(237,-6,q),
(229,-68,l),
(215,-68,l),
(223,-5,l),
(185,-2,o),
(125,30,o),
(104.5,55.5,qs,{
name = inserted;
}),
(84,81,o),
(66,149,o),
(71,188,qs),
(77,227,o),
(114,295,o),
(142,321,qs,{
name = inserted;
}),
(170,347,o),
(240,379,o),
(278,382,q),
(286,438,l),
(300,438,l),
(292,383,l),
(327,383,o),
(389,360,o),
(410,341,q),
(397,252,l),
(383,252,l),
(395,332,l),
(374,349,o),
(321,369,o),
(290,369,q),
(239,8,l),
(271,8,o),
(333,29,o),
(359,47,q)
);
},
{
closed = 1;
nodes = (
(80,152,o),
(97,89,o),
(115.5,65,qs,{
name = inserted;
}),
(134,41,o),
(190,11,o),
(225,8,q),
(276,368,l),
(241,365,o),
(176,335,o),
(150.5,311,qs,{
name = inserted;
}),
(125,287,o),
(90,224,o),
(85,188,qs)
);
}
);
width = 385;
},
{
layerId = "D2CF1DA5-D903-47D8-B1EF-8AECFD40CAE8";
shapes = (
{
closed = 1;
nodes = (
(375,34,l),
(351,17,o),
(302,-2,o),
(271,-7,q),
(263,-68,l),
(179,-68,l),
(188,0,l),
(158,9,o),
(111,45,o),
(95,69.5,qs,{
name = inserted;
}),
(79,94,o),
(66,155,o),
(71,188,qs),
(76,221,o),
(106,281,o),
(128.5,306,qs,{
name = inserted;
}),
(151,331,o),
(209,367,o),
(241,376,q),
(250,438,l),
(334,438,l),
(326,382,l),
(355,379,o),
(401,357,o),
(420,341,q),
(403,225,l),
(329,225,l),
(338,292,l),
(333,295,o),
(321,298,o),
(314,300,q),
(282,74,l),
(296,77,o),
(323,89,o),
(334,97,q)
);
},
{
closed = 1;
nodes = (
(151,165,o),
(160,125,o),
(172,110,qs),
(177,102,o),
(192,90,o),
(200,85,q),
(229,289,l),
(215,282,o),
(190,263,o),
(180,250,qs),
(170,237,o),
(157,206,o),
(154,188,qs)
);
}
);
width = 385;
}
);
unicode = 162;
},
{
glyphname = sterling;
lastChange = "2024-08-09 09:20:29 +0000";
layers = (
{
layerId = m001;
shapes = (
{
closed = 1;
nodes = (
(26,0,l),
(27,14,l),
(71,14,ls),
(89,14,o),
(112,29,o),
(119.5,46,qs,{
name = inserted;
}),
(127,63,o),
(139,121,o),
(145,164,qs),
(165,311,l),
(100,311,l),
(102,325,l),
(167,325,l),
(192,500,ls),
(202,570,o),
(298,634,o),
(370,634,qs),
(403,634,o),
(451,621,o),
(468,609.5,qs,{
name = inserted;
}),
(485,598,o),
(506,565,o),
(513,545,q),
(502,539,l),
(493,563,o),
(471,594,o),
(455.5,603,qs,{
name = inserted;
}),
(440,612,o),
(398,620,o),
(368,620,qs),
(326,620,o),
(267,601,o),
(248,585,qs,{
name = inserted;
}),
(229,569,o),
(209,527,o),
(206,504,qs),
(181,325,l),
(310,325,l),
(308,311,l),
(179,311,l),
(151,109,ls),
(146,80,o),
(131,28,o),
(114,14,q),
(473,14,l),
(489,123,l),
(503,123,l),
(486,0,l)
);
}
);
width = 574;
},
{
layerId = "D2CF1DA5-D903-47D8-B1EF-8AECFD40CAE8";
shapes = (
{
closed = 1;
nodes = (
(29,0,l),
(40,81,l),
(84,81,ls),
(100,81,o),
(121,88,o),
(128,99,qs,{
name = inserted;
}),
(136,110,o),
(145,149,o),
(150,181,qs),
(163,273,l),
(98,273,l),
(109,354,l),
(174,354,l),
(195,500,ls),
(205,569,o),
(317,634,o),
(422,634,qs),
(455,634,o),
(519,618,o),
(538,604,qs,{
name = inserted;
}),
(556,590,o),
(581,554,o),
(588,534,q),
(519,497,l),
(515,504,o),
(505,523,o),
(495,532,qs,{
name = inserted;
}),
(485,541,o),
(442,553,o),
(414,553,qs),
(387,553,o),
(351,549,o),
(334,545,qs),
(309,537,o),
(280,506,o),
(276,478,qs),
(258,354,l),
(375,354,l),
(364,273,l),
(247,273,l),
(231,163,ls),
(227,134,o),
(216,95,o),
(199,81,q),
(474,81,l),
(487,177,l),
(572,177,l),
(547,0,l)
);
}
);
width = 574;
}
);
unicode = 163;
},
{
glyphname = yen;
lastChange = "2024-08-09 09:20:29 +0000";
layers = (
{
layerId = m001;
shapes = (
{
closed = 1;
nodes = (
(380,100,l),
(367,14,l),
(448,14,l),
(447,0,l),
(273,0,l),
(274,14,l),
(353,14,l),
(366,100,l),
(206,100,l),
(208,114,l),
(368,114,l),
(388,263,l),
(228,263,l),
(230,277,l),
(381,277,l),
(193,686,l),
(131,686,l),
(133,700,l),
(307,700,l),
(305,686,l),
(210,686,l),
(255,589,o),
(348,398,o),
(388,298,qs),
(397,272,l),
(398,272,l),
(412,298,l),
(698,686,l),
(605,686,l),
(607,700,l),
(781,700,l),
(779,686,l),
(715,686,l),
(640,583,o),
(489,380,o),
(413,277,q),
(563,277,l),
(561,263,l),
(402,263,l),
(382,114,l),
(541,114,l),
(539,100,l)
);
}
);
width = 718;
},
{
layerId = "D2CF1DA5-D903-47D8-B1EF-8AECFD40CAE8";
shapes = (
{
closed = 1;
nodes = (
(460,100,l),
(457,79,l),
(530,79,l),
(519,0,l),
(277,0,l),
(288,79,l),
(355,79,l),
(358,100,l),
(243,100,l),
(254,181,l),
(369,181,l),
(380,263,l),
(265,263,l),
(277,344,l),
(348,344,l),
(223,621,l),
(122,621,l),
(133,700,l),
(375,700,l),
(364,621,l),
(324,621,l),
(352,560,o),
(407,438,o),
(435,377,q),
(442,346,l),
(443,346,l),
(459,377,l),
(638,621,l),
(599,621,l),
(610,700,l),
(852,700,l),
(841,621,l),
(740,621,l),
(689,551,o),
(589,413,o),
(538,344,q),
(610,344,l),
(598,263,l),
(482,263,l),
(471,181,l),
(588,181,l),
(577,100,l)
);
}
);
width = 789;
}
);
unicode = 165;
},
{
glyphname = currency;
lastChange = "2024-08-09 09:20:29 +0000";
layers = (
{
layerId = m001;
shapes = (
{
closed = 1;
nodes = (
(145,336,o),
(157,293,o),
(171,277,qs,{
name = inserted;
}),
(185,261,o),
(226,242,o),
(250,242,qs),
(274,242,o),
(320,261,o),
(338,277,qs,{
name = inserted;
}),
(356,293,o),
(381,336,o),
(384,361,qs),
(388,386,o),
(375,429,o),
(361.5,445,qs,{
name = inserted;
}),
(348,461,o),
(307,480,o),
(283,480,qs),
(259,480,o),
(213,461,o),
(195,445,qs,{
name = inserted;
}),
(177,429,o),
(152,386,o),
(148,361,qs)
);
},
{
closed = 1;
nodes = (
(138,386,o),
(161,430,o),
(179,448,q),
(171,458,o),
(154,476,o),
(146,486,q),
(157,496,l),
(190,458,l),
(210,475,o),
(259,494,o),
(285,494,qs),
(311,494,o),
(355,474,o),
(370,457,q),
(413,495,l),
(422,485,l),
(379,447,l),
(391,430,o),
(402,386,o),
(398,361,qs),
(395,335,o),
(369,289,o),
(351,271,q),
(386,230,l),
(375,220,l),
(366,231,o),
(348,250,o),
(339,261,q),
(318.5,244.5,o,{
name = inserted;
}),
(273,228,o),
(248,228,qs),
(222.5,228,o,{
name = inserted;
}),
(181,244,o),
(165,260,q),
(119,219,l),
(110,229,l),
(157,270,l),
(142.5,288.5,o,{
name = inserted;
}),
(131,334,o),
(134,361,qs)
);
}
);
width = 500;
},
{
layerId = "D2CF1DA5-D903-47D8-B1EF-8AECFD40CAE8";
shapes = (
{
closed = 1;
nodes = (
(191,341,o),
(203,309,o),
(215,299,qs),
(224,291,o),
(247,283,o),
(260,283,qs),
(276,283,o),
(306,295,o),
(318,306,qs,{
name = inserted;
}),
(330,316,o),
(347,344,o),
(349,360,qs),
(351,377,o),
(341,407,o),
(331,418,qs),
(322,427,o),
(297,438,o),
(282,438,qs),
(265,438,o),
(235,425,o),
(223,413,qs),
(212,403,o),
(196,375,o),
(194,360,qs)
);
},
{
closed = 1;
nodes = (
(113,382.5,o,{
name = inserted;
}),
(129,421.5,o),
(142,439,q),
(137,445,o),
(127,457,o),
(122,463,q),
(189,522,l),
(210,498,l),
(230,507,o),
(270,519,o),
(292,519,qs),
(314,519,o),
(352,508,o),
(369,498,q),
(396,522,l),
(447,463,l),
(422,441,l),
(430.5,422.5,o,{
name = inserted;
}),
(436,382.5,o),
(433,361,qs),
(429,337.5,o,{
name = inserted;
}),
(411.5,297,o),
(398,280,q),
(419,256,l),
(352,197,l),
(346,203,o),
(335,216,o),
(329,222,q),
(310,212,o,{
name = inserted;
}),
(269,202,o),
(247,202,qs),
(226,202,o,{
name = inserted;
}),
(188.5,211.5,o),
(172,221,q),
(144,196,l),
(93,255,l),
(120,279,l),
(112,297,o),
(106,338,o),
(110,361,qs)
);
}
);
width = 500;
}
);
unicode = 164;
},
{
glyphname = exclam;
lastChange = "2024-08-09 09:20:29 +0000";
layers = (
{
layerId = m001;
shapes = (
{
closed = 1;
nodes = (
(42,36,o),
(32,48,o),
(33,56,qs),
(34,65,o),
(48,76,o),
(55,76,qs),
(63,76,o),
(73,65,o),
(72,56,qs),
(71,48,o),
(57,36,o),
(49,36,qs)
);
},
{
closed = 1;
nodes = (
(157,750,l),
(75,166,l),
(61,166,l),
(143,750,l)
);
}
);
width = 201;
},
{
layerId = "D2CF1DA5-D903-47D8-B1EF-8AECFD40CAE8";
shapes = (
{
closed = 1;
nodes = (
(22,0,o),
(-1,31,o),
(2,53,qs),
(5,76,o),
(42,105,o),
(62,105,qs),
(81,105,o),
(108,76,o),
(105,53,qs),
(102,30,o),
(70,0,o),
(47,0,qs)
);
},
{
closed = 1;
nodes = (
(193,750,l),
(111,166,l),
(28,166,l),
(110,750,l)
);
}
);
width = 201;
}
);
unicode = 33;
},
{
glyphname = exclamdown;
lastChange = "2024-08-09 09:20:29 +0000";
layers = (
{
layerId = m001;
shapes = (
{
closed = 1;
nodes = (
(212,504,o),
(222,492,o),
(221,484,q),
(219,475,o),
(206,464,o),
(198,464,qs),
(191,464,o),
(180,475,o),
(182,484,q),
(183,492,o),
(197,504,o),
(204,504,qs)
);
},
{
closed = 1;
nodes = (
(193,374,l),
(111,-210,l),
(97,-210,l),
(179,374,l)
);
}
);
width = 200;
},
{
layerId = "D2CF1DA5-D903-47D8-B1EF-8AECFD40CAE8";
shapes = (
{
closed = 1;
nodes = (
(226,540,o),
(253,510,o),
(249,487,qs),
(246,464,o),
(211,435,o),
(192,435,qs),
(172,435,o),
(144,464,o),
(147,487,q),
(152,510,o),
(187,540,o),
(207,540,qs)
);
},
{
closed = 1;
nodes = (
(224,374,l),
(142,-210,l),
(59,-210,l),
(141,374,l)
);
}
);
width = 200;
}
);
unicode = 161;
},
{
glyphname = question;
lastChange = "2024-08-09 09:20:29 +0000";
layers = (
{
layerId = m001;
shapes = (
{
closed = 1;
nodes = (
(71,597,o),
(64,598,o),
(61,599,q),
(75,628,o),
(118,677,o),
(144.5,694.5,qs,{
name = inserted;
}),
(171,712,o),
(233,732,o),
(265,732,qs),
(306,732,o),
(374,701,o),
(396.5,674.5,qs,{
name = inserted;
}),
(419,648,o),
(440,577,o),
(434,537,qs),
(426,483,o),
(362,402,o),
(312,370,qs),
(291,356,o),
(255,337,o),
(240.5,325,qs,{
name = inserted;
}),
(226,313,o),
(207,275,o),
(202,242,qs),
(191,164,l),
(177,164,l),
(191,261,ls),
(195,292,o),
(224,329,o),
(244.5,343.5,qs,{
name = inserted;
}),
(265,358,o),
(316,387,o),
(343,408,qs),
(378,435,o),
(415,500,o),
(420,537,qs),
(425,576,o),
(406,642,o),
(385,666.5,qs,{
name = inserted;
}),
(364,691,o),
(301,718,o),
(263,718,qs),
(233,718,o),
(176,700,o),
(151,684,qs,{
name = inserted;
}),
(126,668,o),
(86,623,o),
(74,596,q)
);
},
{
closed = 1;
nodes = (
(158,25,o),
(147,37,o),
(149,45,q),
(150,54,o),
(163,65,o),
(170,65,qs),
(178,65,o),
(189,54,o),
(188,45,q),
(186,37,o),
(173,25,o),
(165,25,qs)
);
}
);
width = 452;
},
{
layerId = "D2CF1DA5-D903-47D8-B1EF-8AECFD40CAE8";
shapes = (
{
closed = 1;
nodes = (
(123,559,o),
(87,572,o),
(70,579,q),
(80,601,o),
(114,654,o),
(140,677,qs,{
name = inserted;
}),
(167,700,o),
(241,732,o),
(292,732,qs),
(333,732,o),
(401,701,o),
(424,674,qs,{
name = inserted;
}),
(446,648,o),
(467,577,o),
(461,537,qs),
(453,481,o),
(389,398,o),
(338,364,qs),
(323,354,o),
(288,333,o),
(272,320,qs,{
name = inserted;
}),
(256,306,o),
(233,269,o),
(229,242,qs),
(218,164,l),
(134,164,l),
(148,261,ls),
(152,293,o),
(179,333,o),
(198,348,qs,{
name = inserted;
}),
(216,364,o),
(263,391,o),
(288,409,qs),
(328,436,o),
(371,500,o),
(376,537,qs),
(379,561,o),
(370,603,o),
(357,618,qs),
(345,634,o),
(306,651,o),
(281,651,qs),
(251,651,o),
(207,637,o),
(190,623,qs),
(174,611,o),
(150,575,o),
(140,552,q)
);
},
{
closed = 1;
nodes = (
(132,0,o),
(104,29,o),
(107,52,qs),
(111,75,o),
(147,105,o),
(167,105,qs),
(186,105,o),
(214,75,o),
(210,52,qs),
(207,29,o),
(171,0,o),
(152,0,qs)
);
}
);
width = 452;
}
);
unicode = 63;
},
{
glyphname = comma;
lastChange = "2024-08-09 09:20:29 +0000";
layers = (
{
layerId = m001;
shapes = (
{
closed = 1;
nodes = (
(112,34,o),
(55,-68,o),
(26,-120,q),
(12,-120,l),
(39,-68,o),
(91,34,o),
(118,86,q),
(141,86,l)
);
}
);
width = 200;
},
{
layerId = "D2CF1DA5-D903-47D8-B1EF-8AECFD40CAE8";
shapes = (
{
closed = 1;
nodes = (
(148,34,o),
(91,-68,o),
(62,-120,q),
(-12,-120,l),
(14,-68,o),
(66,34,o),
(93,86,q),
(177,86,l)
);
}
);
width = 200;
}
);
unicode = 44;
},
{
glyphname = period;
lastChange = "2024-08-09 09:20:29 +0000";
layers = (
{
layerId = m001;
shapes = (
{
closed = 1;
nodes = (
(67,28,o),
(80,40,o),
(88,40,qs),
(96,40,o),
(107,28,o),
(106,20,q),
(104,12,o),
(91,0,o),
(83,0,qs),
(75,0,o),
(64,12,o),
(66,20,q)
);
}
);
width = 163;
},
{
layerId = "D2CF1DA5-D903-47D8-B1EF-8AECFD40CAE8";
shapes = (
{
closed = 1;
nodes = (
(36,75,o),
(72,105,o),
(92,105,qs),
(111,105,o),
(139,75,o),
(135,52,qs),
(132,29,o),
(96,0,o),
(77,0,qs),
(57,0,o),
(29,29,o),
(32,52,qs)
);
}
);
width = 163;
}
);
unicode = 46;
},
{
glyphname = colon;
lastChange = "2024-08-09 09:20:29 +0000";
layers = (
{
layerId = m001;
shapes = (
{
closed = 1;
nodes = (
(84,278,o),
(97,290,o),
(105,290,qs),
(113,290,o),
(124,278,o),
(122,270,q),
(121,262,o),
(107,250,o),
(99,250,qs),
(91,250,o),
(81,262,o),
(82,270,q)
);
},
{
closed = 1;
nodes = (
(48,28,o),
(62,40,o),
(70,40,qs),
(78,40,o),
(88,28,o),
(87,20,q),
(85,12,o),
(72,0,o),
(64,0,qs),
(56,0,o),
(45,12,o),
(47,20,q)
);
}
);
width = 175;
},
{
layerId = "D2CF1DA5-D903-47D8-B1EF-8AECFD40CAE8";
shapes = (
{
closed = 1;
nodes = (
(53,325,o),
(89,355,o),
(109,355,qs),
(128,355,o),
(156,325,o),
(153,302,qs),
(150,279,o),
(114,250,o),
(95,250,qs),
(75,250,o),
(47,279,o),
(50,302,qs)
);
},
{
closed = 1;
nodes = (
(18,75,o),
(54,105,o),
(74,105,qs),
(93,105,o),
(121,75,o),
(118,52,qs),
(115,29,o),
(79,0,o),
(60,0,qs),
(40,0,o),
(12,29,o),
(15,52,qs)
);
}
);
width = 175;
}
);
unicode = 58;
},
{
glyphname = semicolon;
lastChange = "2024-08-09 09:20:29 +0000";
layers = (
{
layerId = m001;
shapes = (
{
closed = 1;
nodes = (
(115,278,o),
(128,290,o),
(136,290,qs),
(144,290,o),
(155,278,o),
(154,270,q),
(152,262,o),
(139,250,o),
(131,250,qs),
(123,250,o),
(112,262,o),
(114,270,q)
);
},
{
closed = 1;
nodes = (
(83,34,o),
(26,-68,o),
(-2,-120,q),
(-16,-120,l),
(10,-68,o),
(62,34,o),
(89,86,q),
(112,86,l)
);
}
);
width = 201;
},
{
layerId = "D2CF1DA5-D903-47D8-B1EF-8AECFD40CAE8";
shapes = (
{
closed = 1;
nodes = (
(93,325,o),
(129,355,o),
(149,355,qs),
(168,355,o),
(196,325,o),
(192,302,qs),
(189,279,o),
(153,250,o),
(134,250,qs),
(114,250,o),
(86,279,o),
(89,302,qs)
);
},
{
closed = 1;
nodes = (
(115,34,o),
(58,-68,o),
(29,-120,q),
(-45,-120,l),
(-18,-68,o),
(33,34,o),
(60,86,q),
(144,86,l)
);
}
);
width = 201;
}
);
unicode = 59;
},
{
glyphname = periodcentered;
lastChange = "2024-08-09 09:20:29 +0000";
layers = (
{
layerId = m001;
shapes = (
{
closed = 1;
nodes = (
(67,288,o),
(80,300,o),
(88,300,qs),
(96,300,o),
(107,288,o),
(106,280,q),
(104,272,o),
(91,260,o),
(83,260,qs),
(75,260,o),
(64,272,o),
(66,280,q)
);
}
);
width = 163;
},
{
layerId = "D2CF1DA5-D903-47D8-B1EF-8AECFD40CAE8";
shapes = (
{
closed = 1;
nodes = (
(37,305,o),
(73,335,o),
(93,335,qs),
(112,335,o),
(140,305,o),
(136,282,qs),
(133,259,o),
(97,230,o),
(78,230,qs),
(58,230,o),
(30,259,o),
(33,282,qs)
);
}
);
width = 168;
}
);
unicode = 183;
},
{
glyphname = bullet;
lastChange = "2024-08-09 09:20:29 +0000";
layers = (
{
layerId = m001;
shapes = (
{
closed = 1;
nodes = (
(185,313,o),
(198,337,o),
(207,346,qs),
(217,355,o),
(243,366,o),
(257,366,qs),
(272,366,o),
(296,355,o),
(303,345,qs),
(310,336,o),
(316,313,o),
(314,300,qs),
(312,286,o),
(298,262,o),
(288,253,qs),
(278,245,o),
(253,235,o),
(239,235,qs),
(227,235,o),
(205,244,o),
(198,251,qs),
(189,260,o),
(181,285,o),
(183,300,qs)
);
}
);
width = 479;
},
{
layerId = "D2CF1DA5-D903-47D8-B1EF-8AECFD40CAE8";
shapes = (
{
closed = 1;
nodes = (
(134,327,o),
(160,373,o),
(179.5,390.5,qs,{
name = inserted;
}),
(199,408,o),
(248,428,o),
(274,428,qs),
(301,428,o),
(344,408,o),
(359,390.5,qs,{
name = inserted;
}),
(374,373,o),
(388,327,o),
(384,300,qs),
(380,273,o),
(354,227,o),
(334.5,210,qs,{
name = inserted;
}),
(315,193,o),
(266,174,o),
(239,174,qs),
(213,174,o),
(169,193,o),
(154.5,210,qs,{
name = inserted;
}),
(140,227,o),
(126,273,o),
(130,300,qs)
);
}
);
width = 479;
}
);
unicode = 8226;
},
{
glyphname = underscore;
lastChange = "2024-08-09 09:20:29 +0000";
layers = (
{
layerId = m001;
shapes = (
{
closed = 1;
nodes = (
(99,0,l),
(100,14,l),
(500,14,l),
(499,0,l)
);
}
);
width = 600;
},
{
layerId = "D2CF1DA5-D903-47D8-B1EF-8AECFD40CAE8";
shapes = (
{
closed = 1;
nodes = (
(94,0,l),
(105,81,l),
(505,81,l),
(494,0,l)
);
}
);
width = 600;
}
);
unicode = 95;
},
{
glyphname = hyphen;
lastChange = "2024-08-09 09:20:29 +0000";
layers = (
{
layerId = m001;
shapes = (
{
closed = 1;
nodes = (
(53,198,l),
(237,198,l),
(236,184,l),
(52,184,l)
);
}
);
width = 300;
},
{
layerId = "D2CF1DA5-D903-47D8-B1EF-8AECFD40CAE8";
shapes = (
{
closed = 1;
nodes = (
(58,228,l),
(242,228,l),
(231,147,l),
(47,147,l)
);
}
);
width = 300;
}
);
unicode = 45;
},
{
glyphname = endash;
lastChange = "2024-08-09 09:20:29 +0000";
layers = (
{
layerId = m001;
shapes = (
{
closed = 1;
nodes = (
(101,193,l),
(402,193,l),
(401,179,l),
(100,179,l)
);
}
);
width = 509;
},
{
layerId = "D2CF1DA5-D903-47D8-B1EF-8AECFD40CAE8";
shapes = (
{
closed = 1;
nodes = (
(111,255,l),
(412,255,l),
(401,174,l),
(100,174,l)
);
}
);
width = 509;
}
);
unicode = 8211;
},
{
glyphname = emdash;
lastChange = "2024-08-09 09:20:29 +0000";
layers = (
{
layerId = m001;
shapes = (
{
closed = 1;
nodes = (
(100,193,l),
(602,193,l),
(601,179,l),
(99,179,l)
);
}
);
width = 700;
},
{
layerId = "D2CF1DA5-D903-47D8-B1EF-8AECFD40CAE8";
shapes = (
{
closed = 1;
nodes = (
(110,255,l),
(612,255,l),
(601,174,l),
(99,174,l)
);
}
);
width = 700;
}
);
unicode = 8212;
},
{
glyphname = quotesingle;
lastChange = "2024-08-09 09:20:29 +0000";
layers = (
{
layerId = m001;
shapes = (
{
closed = 1;
nodes = (
(84,720,l),
(102,720,l),
(92,657,o),
(73,535,o),
(63,472,q),
(49,472,l)
);
}
);
width = 147;
},
{
layerId = "D2CF1DA5-D903-47D8-B1EF-8AECFD40CAE8";
shapes = (
{
closed = 1;
nodes = (
(59,720,l),
(143,720,l),
(133,657,o),
(114,535,o),
(104,472,q),
(24,472,l)
);
}
);
width = 163;
}
);
unicode = 39;
},
{
glyphname = quotedbl;
lastChange = "2024-08-09 09:20:29 +0000";
layers = (
{
layerId = m001;
shapes = (
{
closed = 1;
nodes = (
(213,720,l),
(231,720,l),
(221,657,o),
(202,535,o),
(192,472,q),
(178,472,l)
);
},
{
closed = 1;
nodes = (
(80,720,l),
(98,720,l),
(88,657,o),
(69,535,o),
(59,472,q),
(45,472,l)
);
}
);
width = 293;
},
{
layerId = "D2CF1DA5-D903-47D8-B1EF-8AECFD40CAE8";
shapes = (
{
closed = 1;
nodes = (
(213,720,l),
(296,720,l),
(286,657,o),
(267,535,o),
(257,472,q),
(178,472,l)
);
},
{
closed = 1;
nodes = (
(80,720,l),
(163,720,l),
(153,657,o),
(134,535,o),
(124,472,q),
(45,472,l)
);
}
);
width = 335;
}
);
unicode = 34;
},
{
glyphname = quoteleft;
lastChange = "2024-08-09 09:20:29 +0000";
layers = (
{
layerId = m001;
shapes = (
{
closed = 1;
nodes = (
(92,585,o),
(88,577,o),
(86,572,q),
(60,598,o),
(45,671,o),
(59,711,q),
(64,709,o),
(72,706,o),
(77,704,q),
(66,669,o),
(76,610,o),
(94,590,q)
);
}
);
width = 164;
},
{
layerId = "D2CF1DA5-D903-47D8-B1EF-8AECFD40CAE8";
shapes = (
{
closed = 1;
nodes = (
(108,584,o),
(86,572,o),
(75,566,q),
(51,594,o),
(37,669,o),
(51,711,q),
(64,709,o),
(89,706,o),
(102,704,q),
(90,669,o),
(101,610,o),
(119,590,q)
);
}
);
width = 164;
}
);
unicode = 8216;
},
{
glyphname = quoteright;
lastChange = "2024-08-09 09:20:29 +0000";
layers = (
{
layerId = m001;
shapes = (
{
closed = 1;
nodes = (
(63,577,o),
(62,585,o),
(61,590,q),
(85,610,o),
(112,669,o),
(110,704,q),
(115,706,o),
(125,709,o),
(130,711,q),
(133,671,o),
(97,598,o),
(65,572,q)
);
}
);
width = 164;
},
{
layerId = "D2CF1DA5-D903-47D8-B1EF-8AECFD40CAE8";
shapes = (
{
closed = 1;
nodes = (
(66,572,o),
(48,584,o),
(38,590,q),
(62,610,o),
(89,669,o),
(87,704,q),
(100,706,o),
(127,709,o),
(140,711,q),
(142,669,o),
(108,594,o),
(76,566,q)
);
}
);
width = 164;
}
);
unicode = 8217;
},
{
glyphname = quotesinglbase;
lastChange = "2024-08-09 09:20:29 +0000";
layers = (
{
layerId = m001;
shapes = (
{
closed = 1;
nodes = (
(24,-42,o),
(23,-34,o),
(22,-29,q),
(46,-9,o),
(73,50,o),
(71,85,q),
(76,87,o),
(86,90,o),
(91,92,q),
(94,52,o),
(58,-21,o),
(26,-47,q)
);
}
);
width = 146;
},
{
layerId = "D2CF1DA5-D903-47D8-B1EF-8AECFD40CAE8";
shapes = (
{
closed = 1;
nodes = (
(50,-47,o),
(32,-35,o),
(22,-29,q),
(46,-9,o),
(73,50,o),
(71,85,q),
(84,87,o),
(111,90,o),
(124,92,q),
(126,50,o),
(92,-25,o),
(60,-53,q)
);
}
);
width = 146;
}
);
unicode = 8218;
},
{
glyphname = quotedblleft;
lastChange = "2024-08-09 09:20:29 +0000";
layers = (
{
layerId = m001;
shapes = (
{
closed = 1;
nodes = (
(187,585,o),
(183,577,o),
(181,572,q),
(155,598,o),
(140,671,o),
(154,711,q),
(159,709,o),
(167,706,o),
(172,704,q),
(161,669,o),
(171,610,o),
(189,590,q)
);
},
{
closed = 1;
nodes = (
(83,585,o),
(79,577,o),
(77,572,q),
(51,598,o),
(36,671,o),
(50,711,q),
(55,709,o),
(63,706,o),
(68,704,q),
(57,669,o),
(67,610,o),
(85,590,q)
);
}
);
width = 249;
},
{
layerId = "D2CF1DA5-D903-47D8-B1EF-8AECFD40CAE8";
shapes = (
{
closed = 1;
nodes = (
(212,584,o),
(190,572,o),
(179,566,q),
(155,594,o),
(141,669,o),
(155,711,q),
(168,709,o),
(193,706,o),
(206,704,q),
(194,669,o),
(205,610,o),
(223,590,q)
);
},
{
closed = 1;
nodes = (
(108,584,o),
(86,572,o),
(75,566,q),
(51,594,o),
(37,669,o),
(51,711,q),
(64,709,o),
(89,706,o),
(102,704,q),
(90,669,o),
(101,610,o),
(119,590,q)
);
}
);
width = 249;
}
);
unicode = 8220;
},
{
glyphname = quotedblright;
lastChange = "2024-08-09 09:20:29 +0000";
layers = (
{
layerId = m001;
shapes = (
{
closed = 1;
nodes = (
(48,577,o),
(47,585,o),
(46,590,q),
(70,610,o),
(97,669,o),
(95,704,q),
(100,706,o),
(110,709,o),
(115,711,q),
(118,671,o),
(82,598,o),
(50,572,q)
);
},
{
closed = 1;
nodes = (
(152,577,o),
(151,585,o),
(150,590,q),
(174,610,o),
(201,669,o),
(199,704,q),
(204,706,o),
(214,709,o),
(219,711,q),
(222,671,o),
(186,598,o),
(154,572,q)
);
}
);
width = 248;
},
{
layerId = "D2CF1DA5-D903-47D8-B1EF-8AECFD40CAE8";
shapes = (
{
closed = 1;
nodes = (
(42,572,o),
(24,584,o),
(14,590,q),
(38,610,o),
(65,669,o),
(63,704,q),
(76,706,o),
(103,709,o),
(116,711,q),
(118,669,o),
(84,594,o),
(52,566,q)
);
},
{
closed = 1;
nodes = (
(146,572,o),
(128,584,o),
(118,590,q),
(142,610,o),
(169,669,o),
(167,704,q),
(180,706,o),
(207,709,o),
(220,711,q),
(222,669,o),
(188,594,o),
(156,566,q)
);
}
);
width = 248;
}
);
unicode = 8221;
},
{
glyphname = quotedblbase;
lastChange = "2024-08-09 09:20:29 +0000";
layers = (
{
layerId = m001;
shapes = (
{
closed = 1;
nodes = (
(24,-42,o),
(23,-34,o),
(22,-29,q),
(46,-9,o),
(73,50,o),
(71,85,q),
(76,87,o),
(86,90,o),
(91,92,q),
(94,52,o),
(58,-21,o),
(26,-47,q)
);
},
{
closed = 1;
nodes = (
(128,-42,o),
(127,-34,o),
(126,-29,q),
(150,-9,o),
(177,50,o),
(175,85,q),
(180,87,o),
(190,90,o),
(195,92,q),
(198,52,o),
(162,-21,o),
(130,-47,q)
);
}
);
width = 234;
},
{
layerId = "D2CF1DA5-D903-47D8-B1EF-8AECFD40CAE8";
shapes = (
{
closed = 1;
nodes = (
(50,-47,o),
(32,-35,o),
(22,-29,q),
(46,-9,o),
(73,50,o),
(71,85,q),
(84,87,o),
(111,90,o),
(124,92,q),
(126,50,o),
(92,-25,o),
(60,-53,q)
);
},
{
closed = 1;
nodes = (
(154,-47,o),
(136,-35,o),
(126,-29,q),
(150,-9,o),
(177,50,o),
(175,85,q),
(188,87,o),
(215,90,o),
(228,92,q),
(230,50,o),
(196,-25,o),
(164,-53,q)
);
}
);
width = 341;
}
);
unicode = 8222;
},
{
glyphname = parenleft;
lastChange = "2024-08-09 09:20:29 +0000";
layers = (
{
layerId = m001;
shapes = (
{
closed = 1;
nodes = (
(157,367,o),
(204,503,o),
(235.5,561,qs,{
name = inserted;
}),
(267,619,o),
(339,714,o),
(375,747,q),
(375,724,l),
(342,691,o),
(274,601,o),
(244.5,546,qs,{
name = inserted;
}),
(215,491,o),
(171,363,o),
(161,292,qs),
(151,221,o),
(159,93,o),
(173,38,qs,{
name = inserted;
}),
(187,-17,o),
(230,-107,o),
(254,-140,q),
(248,-163,l),
(221,-130,o),
(175,-35,o),
(160,23,qs,{
name = inserted;
}),
(145,81,o),
(136,217,o),
(147,292,qs)
);
}
);
width = 394;
},
{
layerId = "D2CF1DA5-D903-47D8-B1EF-8AECFD40CAE8";
shapes = (
{
closed = 1;
nodes = (
(125,366,o),
(172,502,o),
(203.5,560,qs,{
name = inserted;
}),
(235,618,o),
(307,713,o),
(343,746,q),
(413,723,l),
(380,690,o),
(312,600,o),
(282.5,545,qs,{
name = inserted;
}),
(253,490,o),
(209,362,o),
(199,291,qs),
(189,220,o),
(197,92,o),
(211,37,qs,{
name = inserted;
}),
(225,-18,o),
(268,-108,o),
(292,-141,q),
(216,-164,l),
(189,-131,o),
(143,-36,o),
(128,22,qs,{
name = inserted;
}),
(113,80,o),
(104,216,o),
(115,291,qs)
);
}
);
width = 424;
}
);
unicode = 40;
},
{
glyphname = parenright;
lastChange = "2024-08-09 09:20:29 +0000";
layers = (
{
layerId = m001;
shapes = (
{
closed = 1;
nodes = (
(268,217,o),
(221,81,o),
(189.5,23,qs,{
name = inserted;
}),
(158,-35,o),
(86,-130,o),
(50,-163,q),
(50,-140,l),
(83,-107,o),
(151,-17,o),
(180.5,38,qs,{
name = inserted;
}),
(210,93,o),
(255,221,o),
(265,292,qs),
(275,363,o),
(266,491,o),
(252,546,qs,{
name = inserted;
}),
(238,601,o),
(195,691,o),
(171,724,q),
(177,747,l),
(204,714,o),
(250,619,o),
(265,561,qs,{
name = inserted;
}),
(280,503,o),
(289,367,o),
(279,292,qs)
);
}
);
width = 400;
},
{
layerId = "D2CF1DA5-D903-47D8-B1EF-8AECFD40CAE8";
shapes = (
{
closed = 1;
nodes = (
(301,213,o),
(254,77,o),
(222.5,19,qs,{
name = inserted;
}),
(191,-39,o),
(119,-134,o),
(83,-167,q),
(13,-146,l),
(46,-113,o),
(114,-23,o),
(143.5,32,qs,{
name = inserted;
}),
(173,87,o),
(217,215,o),
(227,286,qs),
(237,357,o),
(229,485,o),
(215,540,qs,{
name = inserted;
}),
(201,595,o),
(158,685,o),
(134,718,q),
(210,743,l),
(237,710,o),
(283,615,o),
(298,557,qs,{
name = inserted;
}),
(313,499,o),
(322,363,o),
(312,288,qs)
);
}
);
width = 400;
}
);
unicode = 41;
},
{
glyphname = bracketleft;
lastChange = "2024-08-09 09:20:29 +0000";
layers = (
{
layerId = m001;
shapes = (
{
closed = 1;
nodes = (
(145,746,l),
(308,746,l),
(306,732,l),
(159,732,l),
(38,-135,l),
(185,-135,l),
(183,-149,l),
(20,-149,l)
);
}
);
width = 338;
},
{
layerId = "D2CF1DA5-D903-47D8-B1EF-8AECFD40CAE8";
shapes = (
{
closed = 1;
nodes = (
(145,746,l),
(337,746,l),
(326,665,l),
(217,665,l),
(114,-68,l),
(223,-68,l),
(212,-149,l),
(20,-149,l)
);
}
);
width = 338;
}
);
unicode = 91;
},
{
glyphname = bracketright;
lastChange = "2024-08-09 09:20:29 +0000";
layers = (
{
layerId = m001;
shapes = (
{
closed = 1;
nodes = (
(188,-149,l),
(25,-149,l),
(27,-135,l),
(174,-135,l),
(295,732,l),
(148,732,l),
(150,746,l),
(313,746,l)
);
}
);
width = 342;
},
{
layerId = "D2CF1DA5-D903-47D8-B1EF-8AECFD40CAE8";
shapes = (
{
closed = 1;
nodes = (
(188,-149,l),
(-3,-149,l),
(7,-68,l),
(116,-68,l),
(219,665,l),
(110,665,l),
(121,746,l),
(313,746,l)
);
}
);
width = 342;
}
);
unicode = 93;
},
{
glyphname = braceleft;
lastChange = "2024-08-09 09:20:29 +0000";
layers = (
{
layerId = m001;
shapes = (
{
closed = 1;
nodes = (
(95,311,l),
(119,312,o),
(153,339,o),
(165,359,qs,{
name = inserted;
}),
(177,379,o),
(190,426,o),
(193,446,qs),
(218,628,ls),
(224,673,o),
(245,722,o),
(259,732,qs,{
name = inserted;
}),
(273,743,o),
(304,746,o),
(321,746,qs),
(358,746,l),
(356,732,l),
(299,732,ls),
(288,732,o),
(270,726,o),
(263,719,qs),
(251,707,o),
(236,658,o),
(231,620,qs),
(210,470,ls),
(203,423,o),
(184,363,o),
(172,344,qs,{
name = inserted;
}),
(160,326,o),
(134,306,o),
(120,299,q),
(129,292,o),
(146,277,o),
(152,266,qs,{
name = inserted;
}),
(163,248,o),
(170,184,o),
(162,128,qs),
(141,-22,ls),
(136,-60,o),
(136,-110,o),
(145,-121,qs),
(150,-128,o),
(166,-134,o),
(177,-134,qs),
(234,-134,l),
(232,-148,l),
(195,-148,ls),
(179,-148,o),
(152,-143,o),
(143,-137,qs,{
name = inserted;
}),
(127,-126,o),
(120,-64,o),
(131,6,qs),
(151,152,ls),
(155,175,o),
(153,235,o),
(141,256,qs,{
name = inserted;
}),
(134,269,o),
(109,286,o),
(91,287,q)
);
}
);
width = 272;
},
{
layerId = "D2CF1DA5-D903-47D8-B1EF-8AECFD40CAE8";
shapes = (
{
closed = 1;
nodes = (
(99,337,l),
(123,338,o),
(158,365,o),
(169.5,385,qs,{
name = inserted;
}),
(181,405,o),
(194,452,o),
(197,472,qs),
(219,628,ls),
(225,674,o),
(251,723,o),
(268.5,733.5,qs,{
name = inserted;
}),
(286,744,o),
(329,746,o),
(353,746,qs),
(416,746,l),
(405,665,l),
(361,665,ls),
(346,665,o),
(324,657,o),
(316.5,645.5,qs,{
name = inserted;
}),
(309,634,o),
(298,594,o),
(294,562,qs),
(276,433,ls),
(272,402,o),
(253,357,o),
(241,341,qs,{
name = inserted;
}),
(229,325,o),
(203,304,o),
(192,298,q),
(201,292,o),
(221,271,o),
(228.5,254.5,qs,{
name = inserted;
}),
(236,238,o),
(242,194,o),
(238,164,qs),
(220,35,ls),
(215,3,o),
(215,-38,o),
(219.5,-49,qs,{
name = inserted;
}),
(224,-60,o),
(243,-68,o),
(258,-68,qs),
(302,-68,l),
(290,-149,l),
(227,-149,ls),
(204,-149,o),
(162,-147,o),
(147,-136.5,qs,{
name = inserted;
}),
(132,-126,o),
(120,-78,o),
(126,-31,qs),
(147,121,ls),
(150,141,o),
(150,188,o),
(144,208,qs,{
name = inserted;
}),
(138,228,o),
(111,255,o),
(87,256,q)
);
}
);
width = 320;
}
);
unicode = 123;
},
{
glyphname = braceright;
lastChange = "2024-08-09 09:20:29 +0000";
layers = (
{
layerId = m001;
shapes = (
{
closed = 1;
nodes = (
(351,287,l),
(319,285,o),
(281,244,o),
(270,216,qs,{
name = inserted;
}),
(260,189,o),
(251,133,o),
(248,116,qs),
(228,-30,ls),
(222,-77,o),
(200,-125,o),
(186,-136,qs,{
name = inserted;
}),
(173,-146,o),
(141,-148,o),
(125,-148,qs),
(88,-148,l),
(90,-134,l),
(147,-134,ls),
(160,-134,o),
(179,-126,o),
(187,-117,qs),
(197,-104,o),
(210,-57,o),
(215,-22,qs),
(241,165,ls),
(245,199,o),
(265,245,o),
(278,260,qs,{
name = inserted;
}),
(290,276,o),
(315,294,o),
(326,299,q),
(317,304,o),
(300,318,o),
(293,330,qs,{
name = inserted;
}),
(282,347,o,{
name = inserted;
}),
(275,411,o),
(284,470,qs),
(305,620,ls),
(309,656,o),
(309,701,o),
(303,714,qs),
(298,723,o),
(281,732,o),
(269,732,qs),
(212,732,l),
(214,746,l),
(251,746,ls),
(265,746,o),
(291,745,o),
(301,738,qs,{
name = inserted;
}),
(315,730,o,{
name = inserted;
}),
(327,680,o),
(320,628,qs),
(300,482,ls),
(296,457,o),
(288,372,o),
(304,342,qs,{
name = inserted;
}),
(311,329,o),
(336,312,o),
(355,311,q)
);
}
);
width = 320;
},
{
layerId = "D2CF1DA5-D903-47D8-B1EF-8AECFD40CAE8";
shapes = (
{
closed = 1;
nodes = (
(347,256,l),
(323,255,o),
(289,228,o),
(277,208,qs,{
name = inserted;
}),
(265,188,o),
(252,141,o),
(249,121,qs),
(228,-31,ls),
(222,-78,o),
(196,-126,o),
(178,-136.5,qs,{
name = inserted;
}),
(160,-147,o),
(117,-149,o),
(93,-149,qs),
(30,-149,l),
(42,-68,l),
(86,-68,ls),
(101,-68,o),
(122,-60,o),
(129.5,-49,qs,{
name = inserted;
}),
(137,-38,o),
(147,3,o),
(152,35,qs),
(170,164,ls),
(174,194,o),
(194,239,o),
(206,255,qs,{
name = inserted;
}),
(218,271,o),
(244,292,o),
(254,298,q),
(245,304,o),
(226,325,o),
(218.5,341,qs,{
name = inserted;
}),
(211,357,o),
(204,402,o),
(208,433,qs),
(226,562,ls),
(230,594,o),
(232,634,o),
(227.5,645.5,qs,{
name = inserted;
}),
(223,657,o),
(204,665,o),
(189,665,qs),
(145,665,l),
(156,746,l),
(219,746,ls),
(242,746,o),
(285,744,o),
(300,733.5,qs,{
name = inserted;
}),
(315,723,o),
(327,675,o),
(321,628,qs),
(299,472,ls),
(296,452,o),
(296,405,o),
(302,385,qs,{
name = inserted;
}),
(308,365,o),
(335,338,o),
(359,337,q)
);
}
);
width = 320;
}
);
unicode = 125;
},
{
glyphname = guilsinglleft;
lastChange = "2024-08-09 09:20:29 +0000";
layers = (
{
layerId = m001;
shapes = (
{
closed = 1;
nodes = (
(139,239,l),
(188,280,o),
(284,359,o),
(333,400,q),
(331,383,l),
(290,347,o),
(209,275,o),
(168,239,q),
(198,202,o),
(260,130,o),
(290,93,q),
(288,77,l)
);
}
);
width = 392;
},
{
layerId = "D2CF1DA5-D903-47D8-B1EF-8AECFD40CAE8";
shapes = (
{
closed = 1;
nodes = (
(139,239,l),
(188,280,o),
(284,359,o),
(333,400,q),
(320,305,l),
(300,288,o),
(264,256,o),
(245,239,q),
(259,222,o),
(287,189,o),
(301,172,q),
(288,77,l)
);
}
);
width = 392;
}
);
unicode = 8249;
},
{
glyphname = guilsinglright;
lastChange = "2024-08-09 09:20:29 +0000";
layers = (
{
layerId = m001;
shapes = (
{
closed = 1;
nodes = (
(160,130,o),
(240,202,o),
(281,239,q),
(251,275,o),
(190,347,o),
(160,383,q),
(162,400,l),
(199,359,o),
(273,280,o),
(310,239,q),
(117,77,l),
(119,93,l)
);
}
);
width = 392;
},
{
layerId = "D2CF1DA5-D903-47D8-B1EF-8AECFD40CAE8";
shapes = (
{
closed = 1;
nodes = (
(149,189,o),
(185,222,o),
(204,239,q),
(190,256,o),
(163,288,o),
(149,305,q),
(162,400,l),
(199,359,o),
(273,280,o),
(310,239,q),
(117,77,l),
(130,172,l)
);
}
);
width = 392;
}
);
unicode = 8250;
},
{
glyphname = plus;
lastChange = "2024-08-09 09:20:29 +0000";
layers = (
{
layerId = m001;
shapes = (
{
closed = 1;
nodes = (
(258,225,l),
(85,225,l),
(87,239,l),
(260,239,l),
(284,411,l),
(298,411,l),
(274,239,l),
(447,239,l),
(445,225,l),
(272,225,l),
(247,51,l),
(233,51,l)
);
}
);
width = 543;
},
{
layerId = "D2CF1DA5-D903-47D8-B1EF-8AECFD40CAE8";
shapes = (
{
closed = 1;
nodes = (
(218,190,l),
(80,190,l),
(91,271,l),
(229,271,l),
(249,411,l),
(333,411,l),
(313,271,l),
(451,271,l),
(440,190,l),
(302,190,l),
(282,51,l),
(198,51,l)
);
}
);
width = 543;
}
);
unicode = 43;
},
{
glyphname = plusminus;
lastChange = "2024-08-09 09:20:29 +0000";
layers = (
{
layerId = m001;
shapes = (
{
closed = 1;
nodes = (
(293,385,l),
(120,385,l),
(122,399,l),
(295,399,l),
(320,571,l),
(334,571,l),
(309,399,l),
(482,399,l),
(480,385,l),
(307,385,l),
(283,211,l),
(269,211,l)
);
},
{
closed = 1;
nodes = (
(86,136,l),
(87,150,l),
(447,150,l),
(446,136,l)
);
}
);
width = 524;
},
{
layerId = "D2CF1DA5-D903-47D8-B1EF-8AECFD40CAE8";
shapes = (
{
closed = 1;
nodes = (
(259,350,l),
(121,350,l),
(132,431,l),
(270,431,l),
(290,571,l),
(374,571,l),
(354,431,l),
(492,431,l),
(481,350,l),
(343,350,l),
(323,211,l),
(239,211,l)
);
},
{
closed = 1;
nodes = (
(86,100,l),
(97,181,l),
(457,181,l),
(446,100,l)
);
}
);
width = 524;
}
);
unicode = 177;
},
{
glyphname = multiply;
lastChange = "2024-08-09 09:20:29 +0000";
layers = (
{
layerId = m001;
shapes = (
{
closed = 1;
nodes = (
(358,31,o),
(305,92,o),
(279,123,q),
(244,92,o),
(175,31,o),
(140,0,q),
(138,2,o),
(133,8,o),
(131,10,q),
(166,41,o),
(235,102,o),
(270,133,q),
(166,254,l),
(178,264,l),
(282,143,l),
(317,174,o),
(387,234,o),
(422,265,q),
(424,263,o),
(428,257,o),
(430,255,q),
(395,224,o),
(325,164,o),
(290,133,q),
(316,102,o),
(370,41,o),
(396,10,q),
(385,0,l)
);
}
);
width = 500;
},
{
layerId = "D2CF1DA5-D903-47D8-B1EF-8AECFD40CAE8";
shapes = (
{
closed = 1;
nodes = (
(342,25,o),
(300,73,o),
(278,98,q),
(251,74,o),
(195,25,o),
(168,1,q),
(155,15,o),
(130,44,o),
(118,58,q),
(146,83,o),
(201,131,o),
(229,156,q),
(144,255,l),
(212,314,l),
(297,215,l),
(325,240,o),
(380,288,o),
(408,313,q),
(421,299,o),
(445,269,o),
(457,255,q),
(430,231,o),
(374,182,o),
(347,158,q),
(368,133,o),
(409,84,o),
(431,59,q),
(364,0,l)
);
}
);
width = 500;
}
);
unicode = 215;
},
{
glyphname = divide;
lastChange = "2024-08-09 09:20:29 +0000";
layers = (
{
layerId = m001;
shapes = (
{
closed = 1;
nodes = (
(68,210,l),
(69,224,l),
(429,224,l),
(428,210,l)
);
},
{
closed = 1;
nodes = (
(250,349,o),
(263,361,o),
(271,361,qs),
(279,361,o),
(290,349,o),
(288,341,q),
(287,333,o),
(273,321,o),
(265,321,qs),
(257,321,o),
(247,333,o),
(248,341,q)
);
},
{
closed = 1;
nodes = (
(214,99,o),
(228,111,o),
(236,111,qs),
(244,111,o),
(254,99,o),
(253,91,q),
(251,83,o),
(238,71,o),
(230,71,qs),
(222,71,o),
(211,83,o),
(213,91,q)
);
}
);
width = 501;
},
{
layerId = "D2CF1DA5-D903-47D8-B1EF-8AECFD40CAE8";
shapes = (
{
closed = 1;
nodes = (
(68,206,l),
(79,287,l),
(439,287,l),
(428,206,l)
);
},
{
closed = 1;
nodes = (
(219,396,o),
(255,426,o),
(275,426,qs),
(294,426,o),
(322,396,o),
(319,373,qs),
(316,350,o),
(280,321,o),
(261,321,qs),
(241,321,o),
(213,350,o),
(216,373,qs)
);
},
{
closed = 1;
nodes = (
(184,146,o),
(220,176,o),
(240,176,qs),
(259,176,o),
(287,146,o),
(284,123,qs),
(281,100,o),
(245,71,o),
(226,71,qs),
(206,71,o),
(178,100,o),
(181,123,qs)
);
}
);
width = 501;
}
);
unicode = 247;
},
{
glyphname = equal;
lastChange = "2024-08-09 09:20:29 +0000";
layers = (
{
layerId = m001;
shapes = (
{
closed = 1;
nodes = (
(591,150,l),
(85,150,l),
(87,164,l),
(593,164,l)
);
},
{
closed = 1;
nodes = (
(618,344,l),
(112,344,l),
(114,358,l),
(620,358,l)
);
}
);
width = 708;
},
{
layerId = "D2CF1DA5-D903-47D8-B1EF-8AECFD40CAE8";
shapes = (
{
closed = 1;
nodes = (
(586,112,l),
(80,112,l),
(92,193,l),
(598,193,l)
);
},
{
closed = 1;
nodes = (
(613,306,l),
(107,306,l),
(119,387,l),
(625,387,l)
);
}
);
width = 708;
}
);
unicode = 61;
},
{
glyphname = less;
lastChange = "2024-08-09 09:20:29 +0000";
layers = (
{
layerId = m001;
shapes = (
{
closed = 1;
nodes = (
(517,-15,l),
(416,48,o),
(216,175,o),
(115,238,q),
(233,301,o),
(469,428,o),
(588,491,q),
(586,475,l),
(474,415,o),
(253,298,o),
(141,238,q),
(235,178,o),
(424,61,o),
(519,1,q)
);
}
);
width = 680;
},
{
layerId = "D2CF1DA5-D903-47D8-B1EF-8AECFD40CAE8";
shapes = (
{
closed = 1;
nodes = (
(517,-14,l),
(416,49,o),
(217,175,o),
(116,238,q),
(234,301,o),
(469,427,o),
(588,490,q),
(572,377,l),
(507,342,o),
(377,273,o),
(312,238,q),
(367,203,o),
(477,134,o),
(533,99,q)
);
}
);
width = 680;
}
);
unicode = 60;
},
{
glyphname = greater;
lastChange = "2024-08-09 09:20:29 +0000";
layers = (
{
layerId = m001;
shapes = (
{
closed = 1;
nodes = (
(81,1,l),
(193,61,o),
(415,178,o),
(527,238,q),
(432,298,o),
(243,415,o),
(148,475,q),
(150,491,l),
(251,428,o),
(451,301,o),
(553,238,q),
(434,175,o),
(198,48,o),
(79,-15,q)
);
}
);
width = 650;
},
{
layerId = "D2CF1DA5-D903-47D8-B1EF-8AECFD40CAE8";
shapes = (
{
closed = 1;
nodes = (
(96,99,l),
(161,134,o),
(291,203,o),
(357,238,q),
(301,273,o),
(191,342,o),
(135,377,q),
(151,490,l),
(252,427,o),
(451,301,o),
(553,238,q),
(434,175,o),
(199,49,o),
(80,-14,q)
);
}
);
width = 650;
}
);
unicode = 62;
},
{
glyphname = logicalnot;
lastChange = "2024-08-09 09:20:29 +0000";
layers = (
{
layerId = m001;
shapes = (
{
closed = 1;
nodes = (
(457,227,l),
(111,227,l),
(113,241,l),
(473,241,l),
(460,148,l),
(446,148,l)
);
}
);
width = 559;
},
{
layerId = "D2CF1DA5-D903-47D8-B1EF-8AECFD40CAE8";
shapes = (
{
closed = 1;
nodes = (
(381,188,l),
(105,188,l),
(114,248,l),
(474,248,l),
(460,148,l),
(376,148,l)
);
}
);
width = 559;
}
);
unicode = 172;
},
{
glyphname = slash;
lastChange = "2024-08-09 09:20:29 +0000";
layers = (
{
layerId = m001;
shapes = (
{
closed = 1;
nodes = (
(61,171,o),
(251,546,o),
(348,736,q),
(362,736,l),
(265,546,o),
(75,171,o),
(-22,-19,q),
(-36,-19,l)
);
}
);
width = 322;
},
{
layerId = "D2CF1DA5-D903-47D8-B1EF-8AECFD40CAE8";
shapes = (
{
closed = 1;
nodes = (
(61,171,o),
(251,546,o),
(348,736,q),
(432,736,l),
(335,546,o),
(144,171,o),
(47,-19,q),
(-36,-19,l)
);
}
);
width = 380;
}
);
unicode = 47;
},
{
glyphname = backslash;
lastChange = "2024-08-09 09:20:29 +0000";
layers = (
{
layerId = m001;
shapes = (
{
closed = 1;
nodes = (
(127,546,o),
(212,171,o),
(255,-19,q),
(241,-19,l),
(198,171,o),
(113,546,o),
(70,736,q),
(84,736,l)
);
}
);
width = 320;
},
{
layerId = "D2CF1DA5-D903-47D8-B1EF-8AECFD40CAE8";
shapes = (
{
closed = 1;
nodes = (
(190,546,o),
(275,171,o),
(318,-19,q),
(224,-19,l),
(181,171,o),
(96,546,o),
(53,736,q),
(147,736,l)
);
}
);
width = 385;
}
);
unicode = 92;
},
{
glyphname = percent;
lastChange = "2024-08-09 09:20:29 +0000";
layers = (
{
layerId = m001;
shapes = (
{
closed = 1;
nodes = (
(403,89,o),
(418,49,o),
(434,37,qs),
(445,28,o),
(473,18,o),
(489,18,qs),
(509,18,o),
(546,33,o),
(561,46,qs,{
name = inserted;
}),
(576,58,o),
(595,92,o),
(598,112,qs),
(601,132,o),
(590,167,o),
(579,179,qs),
(568,192,o),
(535,207,o),
(515,207,qs),
(495,207,o),
(458,192,o),
(443,179,qs,{
name = inserted;
}),
(428,166,o),
(409,131,o),
(406,112,qs)
);
},
{
closed = 1;
nodes = (
(464,4,o),
(427,21,o),
(414,35.5,qs,{
name = inserted;
}),
(401,50,o),
(389,90,o),
(392,113,qs),
(395,135,o),
(418,175,o),
(435,189.5,qs,{
name = inserted;
}),
(452,204,o),
(494,221,o),
(517,221,qs),
(539,221,o),
(577,204,o),
(590,189.5,qs,{
name = inserted;
}),
(603,175,o),
(615,135,o),
(612,113,qs),
(609,90,o),
(586,50,o),
(568.5,35.5,qs,{
name = inserted;
}),
(551,21,o),
(509,4,o),
(487,4,qs)
);
},
{
closed = 1;
nodes = (
(138,367,o),
(150,331,o),
(163,318,qs),
(174,307,o),
(205,294,o),
(224,294,qs),
(244,294,o),
(281,309,o),
(296,322,qs,{
name = inserted;
}),
(311,334,o),
(330,368,o),
(333,388,qs),
(336,408,o),
(324,444,o),
(312,457,qs),
(301,469,o),
(269,483,o),
(250,483,qs),
(230,483,o),
(193,468,o),
(178,455,qs,{
name = inserted;
}),
(163,442,o),
(144,407,o),
(141,388,qs)
);
},
{
closed = 1;
nodes = (
(199,280,o),
(162,297,o),
(149,311.5,qs,{
name = inserted;
}),
(136,326,o),
(124,366,o),
(127,389,qs),
(130,411,o),
(153,451,o),
(170,465.5,qs,{
name = inserted;
}),
(187,480,o),
(229,497,o),
(252,497,qs),
(274,497,o),
(312,480,o),
(325,465.5,qs,{
name = inserted;
}),
(338,451,o),
(350,411,o),
(347,389,qs),
(344,366,o),
(320,326,o),
(303,311.5,qs,{
name = inserted;
}),
(286,297,o),
(244,280,o),
(222,280,qs)
);
},
{
closed = 1;
nodes = (
(265,126,o),
(448,374,o),
(541,500,q),
(557,500,l),
(464,374,o),
(281,126,o),
(188,0,q),
(172,0,l)
);
}
);
width = 726;
},
{
layerId = "D2CF1DA5-D903-47D8-B1EF-8AECFD40CAE8";
shapes = (
{
closed = 1;
nodes = (
(456,100,o),
(461,82,o),
(467,76,qs),
(472,71,o),
(487,65,o),
(496,65,qs),
(506,65,o),
(522,71,o),
(529,77,qs),
(535,83,o),
(544,101,o),
(546,111,qs),
(547,121,o),
(544,138,o),
(539,143,qs),
(534,149,o),
(518,156,o),
(508,156,qs),
(498,156,o),
(481,150,o),
(475,144,qs),
(468,138,o),
(460,121,o),
(458,111,qs)
);
},
{
closed = 1;
nodes = (
(458,-16,o),
(414,4,o),
(399,21,qs,{
name = inserted;
}),
(384,38,o),
(370,84,o),
(374,111,qs),
(378,137,o),
(405,183,o),
(424.5,200,qs,{
name = inserted;
}),
(444,217,o),
(494,237,o),
(520,237,qs),
(546,237,o),
(590,217,o),
(605,200,qs,{
name = inserted;
}),
(620,183,o),
(634,137,o),
(630,111,qs),
(626,84,o),
(599,38,o),
(579,21,qs,{
name = inserted;
}),
(559,4,o),
(510,-16,o),
(484,-16,qs)
);
},
{
closed = 1;
nodes = (
(191,378,o),
(196,360,o),
(202,354,qs),
(207,349,o),
(222,343,o),
(231,343,qs),
(241,343,o),
(258,350,o),
(265,356,qs),
(271,362,o),
(280,379,o),
(281,389,qs),
(282,399,o),
(279,415,o),
(274,421,qs),
(269,427,o),
(253,434,o),
(243,434,qs),
(233,434,o),
(216,428,o),
(210,422,qs),
(203,416,o),
(195,399,o),
(193,389,qs)
);
},
{
closed = 1;
nodes = (
(193,262,o),
(149,282,o),
(134,299,qs,{
name = inserted;
}),
(119,316,o),
(105,362,o),
(109,389,qs),
(113,415,o),
(140,461,o),
(159.5,478,qs,{
name = inserted;
}),
(179,495,o),
(229,515,o),
(255,515,qs),
(281,515,o),
(325,495,o),
(340,478,qs,{
name = inserted;
}),
(355,461,o),
(369,415,o),
(365,389,qs),
(361,362,o),
(334,316,o),
(314,299,qs,{
name = inserted;
}),
(294,282,o),
(245,262,o),
(219,262,qs)
);
},
{
closed = 1;
nodes = (
(231,126,o),
(414,374,o),
(507,500,q),
(598,500,l),
(505,374,o),
(322,126,o),
(229,0,q),
(138,0,l)
);
}
);
width = 726;
}
);
unicode = 37;
},
{
glyphname = bar;
lastChange = "2024-08-09 09:20:29 +0000";
layers = (
{
layerId = m001;
shapes = (
{
closed = 1;
nodes = (
(229,700,l),
(243,700,l),
(113,-232,l),
(99,-232,l)
);
}
);
width = 219;
},
{
layerId = "D2CF1DA5-D903-47D8-B1EF-8AECFD40CAE8";
shapes = (
{
closed = 1;
nodes = (
(221,700,l),
(305,700,l),
(175,-232,l),
(91,-232,l)
);
}
);
width = 271;
}
);
unicode = 124;
},
{
glyphname = brokenbar;
lastChange = "2024-08-09 09:20:29 +0000";
layers = (
{
layerId = m001;
shapes = (
{
closed = 1;
nodes = (
(102,-233,l),
(151,117,l),
(165,117,l),
(116,-233,l)
);
},
{
closed = 1;
nodes = (
(183,350,l),
(233,700,l),
(247,700,l),
(197,350,l)
);
}
);
width = 215;
},
{
layerId = "D2CF1DA5-D903-47D8-B1EF-8AECFD40CAE8";
shapes = (
{
closed = 1;
nodes = (
(69,-233,l),
(118,117,l),
(202,117,l),
(153,-233,l)
);
},
{
closed = 1;
nodes = (
(150,350,l),
(200,700,l),
(284,700,l),
(234,350,l)
);
}
);
width = 215;
}
);
unicode = 166;
},
{
glyphname = copyright;
lastChange = "2024-08-09 09:20:29 +0000";
layers = (
{
layerId = m001;
shapes = (
{
closed = 1;
nodes = (
(450,132,o),
(543,168,o),
(580.5,200.5,qs,{
name = inserted;
}),
(618,233,o),
(669,320,o),
(676,371,qs),
(683,423,o),
(658,512,o),
(629.5,544.5,qs,{
name = inserted;
}),
(601,577,o),
(518,613,o),
(468,613,qs),
(419,613,o),
(327,577,o),
(289.5,544.5,qs,{
name = inserted;
}),
(252,512,o),
(201,423,o),
(194,371,qs),
(187,320,o),
(213,233,o),
(241,200.5,qs,{
name = inserted;
}),
(269,168,o),
(351,132,o),
(400,132,qs)
);
},
{
closed = 1;
nodes = (
(346,118,o),
(258,156,o),
(228.5,190,qs,{
name = inserted;
}),
(199,224,o),
(172,317,o),
(180,372,qs),
(188,427,o),
(240,521,o),
(279,555,qs,{
name = inserted;
}),
(318,589,o),
(417,627,o),
(471,627,qs),
(525,627,o),
(613,589,o),
(642.5,555,qs,{
name = inserted;
}),
(672,521,o),
(698,427,o),
(690,372,qs),
(682,317,o),
(630,224,o),
(591,190,qs,{
name = inserted;
}),
(552,156,o),
(454,118,o),
(400,118,qs)
);
},
{
closed = 1;
nodes = (
(537,511,l),
(521,521,o,{
name = inserted;
}),
(484,531,o),
(463,531,qs),
(431,531,o),
(371,506,o),
(347,484.5,qs,{
name = inserted;
}),
(323,463,o),
(291,406,o),
(287,374,qs),
(282,342,o),
(299,286,o),
(316.5,265,qs,{
name = inserted;
}),
(334,244,o),
(386,220,o),
(418,220,qs),
(440,220,o),
(482,231,o),
(501,241,q),
(505,236,l),
(485,225,o),
(442,213,o),
(419,213,qs),
(386,213,o),
(330,239,o),
(311.5,261,qs,{
name = inserted;
}),
(293,283,o),
(275,342,o),
(280,375,qs),
(285,409,o),
(319,468,o),
(343.5,490,qs,{
name = inserted;
}),
(368,512,o),
(431,537,o),
(464,537,qs),
(486.5,537,o,{
name = inserted;
}),
(526.5,526,o),
(544,515,q),
(537,464,l),
(530,464,l)
);
}
);
width = 793;
},
{
layerId = "D2CF1DA5-D903-47D8-B1EF-8AECFD40CAE8";
shapes = (
{
closed = 1;
nodes = (
(452,148,o),
(538,182,o),
(572.5,212,qs,{
name = inserted;
}),
(607,242,o),
(652,324,o),
(659,372,qs),
(666,421,o),
(643,503,o),
(617.5,533,qs,{
name = inserted;
}),
(592,563,o),
(515,597,o),
(468,597,qs),
(421,597,o),
(334,563,o),
(300,533,qs,{
name = inserted;
}),
(266,503,o),
(220,421,o),
(213,372,qs),
(206,324,o),
(229,242,o),
(255,212,qs,{
name = inserted;
}),
(281,182,o),
(358,148,o),
(405,148,qs)
);
},
{
closed = 1;
nodes = (
(346,111,o),
(256,151,o),
(225,186,qs,{
name = inserted;
}),
(194,221,o),
(165,316,o),
(173,372,qs),
(181,429,o),
(236,525,o),
(277,560,qs,{
name = inserted;
}),
(318,595,o),
(419,634,o),
(473,634,qs),
(527,634,o),
(617,595,o),
(648,560,qs,{
name = inserted;
}),
(679,525,o),
(707,429,o),
(699,372,qs),
(691,316,o),
(636,221,o),
(595.5,186,qs,{
name = inserted;
}),
(555,151,o),
(454,111,o),
(400,111,qs)
);
},
{
closed = 1;
nodes = (
(504,492,l),
(492.5,497,o,{
name = inserted;
}),
(469.5,502,o),
(458,502,qs),
(432,502,o),
(385,482,o),
(365.5,464.5,qs,{
name = inserted;
}),
(346,447,o),
(320,401,o),
(317,375,qs),
(313,349,o),
(326,303,o),
(340.5,286,qs,{
name = inserted;
}),
(355,269,o),
(397,249,o),
(423,249,qs),
(439.5,249,o,{
name = inserted;
}),
(471.5,257.5,o),
(487,266,q),
(504,236,l),
(484,225,o),
(441,213,o),
(418,213,qs),
(385,213,o),
(329,239,o),
(310.5,261,qs,{
name = inserted;
}),
(292,283,o),
(274,342,o),
(279,375,qs),
(284,409,o),
(318,468,o),
(342.5,490,qs,{
name = inserted;
}),
(367,512,o),
(430,537,o),
(463,537,qs),
(485.5,537,o,{
name = inserted;
}),
(525.5,526,o),
(543,515,q),
(536,464,l),
(500,464,l)
);
}
);
width = 793;
}
);
unicode = 169;
},
{
glyphname = registered;
lastChange = "2024-08-09 09:20:29 +0000";
layers = (
{
layerId = m001;
shapes = (
{
closed = 1;
nodes = (
(450,132,o),
(543,168,o),
(580.5,200.5,qs,{
name = inserted;
}),
(618,233,o),
(669,320,o),
(676,371,qs),
(683,423,o),
(658,512,o),
(629.5,544.5,qs,{
name = inserted;
}),
(601,577,o),
(518,613,o),
(468,613,qs),
(419,613,o),
(327,577,o),
(289.5,544.5,qs,{
name = inserted;
}),
(252,512,o),
(201,423,o),
(194,371,qs),
(187,320,o),
(213,233,o),
(241,200.5,qs,{
name = inserted;
}),
(269,168,o),
(351,132,o),
(400,132,qs)
);
},
{
closed = 1;
nodes = (
(346,118,o),
(258,156,o),
(228.5,190,qs,{
name = inserted;
}),
(199,224,o),
(172,317,o),
(180,372,qs),
(188,427,o),
(240,521,o),
(279,555,qs,{
name = inserted;
}),
(318,589,o),
(417,627,o),
(471,627,qs),
(525,627,o),
(613,589,o),
(642.5,555,qs,{
name = inserted;
}),
(672,521,o),
(698,427,o),
(690,372,qs),
(682,317,o),
(630,224,o),
(591,190,qs,{
name = inserted;
}),
(552,156,o),
(454,118,o),
(400,118,qs)
);
},
{
closed = 1;
nodes = (
(344,217,l),
(389,534,l),
(356,534,l),
(357,541,l),
(456,541,ls),
(470,541,o),
(502,532,o),
(514.5,521.5,qs,{
name = inserted;
}),
(527,511,o),
(542,479,o),
(539,457,qs),
(534,424,o),
(491,381,o),
(455,374,q),
(507,217,l),
(546,217,l),
(546,210,l),
(503,210,l),
(448,373,l),
(443,372,o),
(431,371,o),
(426,371,qs),
(373,371,l),
(351,217,l),
(393,217,l),
(393,210,l),
(311,210,l),
(311,217,l)
);
},
{
closed = 1;
nodes = (
(428,378,ls),
(455,378,o),
(494,393,o),
(506,404.5,qs,{
name = inserted;
}),
(518,416,o),
(530,444,o),
(532,457,qs),
(537,488,o),
(490,534,o),
(451,534,qs),
(396,534,l),
(374,378,l)
);
}
);
width = 801;
},
{
layerId = "D2CF1DA5-D903-47D8-B1EF-8AECFD40CAE8";
shapes = (
{
closed = 1;
nodes = (
(452,148,o),
(538,182,o),
(572.5,212,qs,{
name = inserted;
}),
(607,242,o),
(652,324,o),
(659,372,qs),
(666,421,o),
(643,503,o),
(617.5,533,qs,{
name = inserted;
}),
(592,563,o),
(515,597,o),
(468,597,qs),
(421,597,o),
(334,563,o),
(300,533,qs,{
name = inserted;
}),
(266,503,o),
(220,421,o),
(213,372,qs),
(206,324,o),
(229,242,o),
(255,212,qs,{
name = inserted;
}),
(281,182,o),
(358,148,o),
(405,148,qs)
);
},
{
closed = 1;
nodes = (
(346,111,o),
(256,151,o),
(225,186,qs,{
name = inserted;
}),
(194,221,o),
(165,316,o),
(173,372,qs),
(181,429,o),
(236,525,o),
(277,560,qs,{
name = inserted;
}),
(318,595,o),
(419,634,o),
(473,634,qs),
(527,634,o),
(617,595,o),
(648,560,qs,{
name = inserted;
}),
(679,525,o),
(707,429,o),
(699,372,qs),
(691,316,o),
(636,221,o),
(595.5,186,qs,{
name = inserted;
}),
(555,151,o),
(454,111,o),
(400,111,qs)
);
},
{
closed = 1;
nodes = (
(336,247,l),
(372,504,l),
(351,504,l),
(356,541,l),
(456,541,ls),
(472,541,o),
(510,531,o),
(525,520,qs,{
name = inserted;
}),
(540,509,o),
(557,475,o),
(555,451,qs),
(552,414,o),
(508,368,o),
(473,360,q),
(510,247,l),
(555,247,l),
(549,210,l),
(480,210,l),
(431,358,l),
(424,358,o),
(418,358,o),
(411,358,qs),
(391,358,l),
(375,247,l),
(430,247,l),
(424,210,l),
(310,210,l),
(315,247,l)
);
},
{
closed = 1;
nodes = (
(438,395,ls),
(459,395,o),
(487,406,o),
(496,414,qs,{
name = inserted;
}),
(505,422,o),
(515,438,o),
(516,451,qs),
(518,472,o),
(483,504,o),
(453,504,qs),
(412,504,l),
(396,395,l)
);
}
);
width = 801;
}
);
unicode = 174;
},
{
glyphname = degree;
lastChange = "2024-08-09 09:20:29 +0000";
layers = (
{
layerId = m001;
shapes = (
{
closed = 1;
nodes = (
(165,498,o),
(206,534,o),
(210,560,qs),
(214,586,o),
(183,622,o),
(157,622,qs),
(131,622,o),
(89,586,o),
(85,560,qs),
(81,534,o),
(113,498,o),
(139,498,qs)
);
},
{
closed = 1;
nodes = (
(74,577,o),
(91,607,o),
(104,617,qs),
(116,626,o),
(144,636,o),
(159,636,qs),
(191,636,o),
(229,592,o),
(224,559,qs),
(221,543,o),
(205,514,o),
(193,504,qs),
(182,495,o),
(154,484,o),
(138,484,qs),
(105,484,o),
(66,527,o),
(71,559,qs)
);
}
);
width = 282;
},
{
layerId = "D2CF1DA5-D903-47D8-B1EF-8AECFD40CAE8";
shapes = (
{
closed = 1;
nodes = (
(165,511,o),
(198,539,o),
(200,559,qs),
(203,579,o),
(178,608,o),
(158,608,qs),
(138,608,o),
(106,579,o),
(103,559,qs),
(101,539,o),
(125,511,o),
(145,511,qs)
);
},
{
closed = 1;
nodes = (
(53,581,o),
(73,617,o),
(89,630.5,qs,{
name = inserted;
}),
(105,644,o),
(145,660,o),
(166,660,qs),
(208,660,o),
(257,602,o),
(252,560,qs),
(249,539,o),
(228,502,o),
(212.5,488.5,qs,{
name = inserted;
}),
(197,475,o),
(159,460,o),
(138,460,qs),
(95,460,o),
(44,518,o),
(50,560,qs)
);
}
);
width = 282;
}
);
unicode = 176;
},
{
glyphname = asterisk;
lastChange = "2024-08-09 09:20:29 +0000";
layers = (
{
layerId = m001;
shapes = (
{
closed = 1;
nodes = (
(207,559,o),
(258,527,o),
(284,511,q),
(282,507,o),
(276,500,o),
(273,496,q),
(239,518,o),
(205,540,o),
(171,562,q),
(166,530,o),
(156,466,o),
(151,434,q),
(137,434,l),
(155,561,l),
(125,545,o),
(66,514,o),
(36,498,q),
(34,503,o),
(32,508,o),
(30,513,q),
(59,529,o),
(119,560,o),
(149,576,q),
(123,593,o),
(74,625,o),
(48,642,q),
(56,654,l),
(82,637,o),
(133,606,o),
(159,589,q),
(178,720,l),
(196,720,l),
(175,589,l),
(298,653,l),
(300,649,o,{
name = inserted;
}),
(302.5,643,o),
(303,641,q),
(272,624,o),
(212,592,o),
(181,575,q)
);
}
);
width = 335;
},
{
layerId = "D2CF1DA5-D903-47D8-B1EF-8AECFD40CAE8";
shapes = (
{
closed = 1;
nodes = (
(264,566,o),
(293,548,o),
(307,539,q),
(294,521,o),
(268,484,o),
(255,466,q),
(241,475,o),
(212,494,o),
(198,503,q),
(196,486,o),
(190,451,o),
(187,434,q),
(107,434,l),
(117,504,l),
(101,495,o),
(68,478,o),
(51,469,q),
(43,487,o),
(28,524,o),
(20,542,q),
(37,550,o),
(69,568,o),
(86,576,q),
(72,585,o),
(45,604,o),
(31,613,q),
(79,682,l),
(94,673,o),
(123,654,o),
(137,645,q),
(148,720,l),
(232,720,l),
(220,645,l),
(289,681,l),
(297,664,o),
(312,629,o),
(319,612,q),
(302,603,o),
(267,584,o),
(249,575,q)
);
}
);
width = 335;
}
);
unicode = 42;
},
{
glyphname = numbersign;
lastChange = "2024-08-09 09:20:29 +0000";
layers = (
{
layerId = m001;
shapes = (
{
closed = 1;
nodes = (
(183,365,o),
(161,281,o),
(150,239,q),
(320,239,l),
(331,281,o),
(353,365,o),
(364,407,q),
(194,407,l)
);
},
{
closed = 1;
nodes = (
(273,57,o),
(301,168,o),
(316,225,q),
(146,225,l),
(131,168,o),
(103,57,o),
(88,0,q),
(74,0,l),
(89,57,o),
(117,168,o),
(132,225,q),
(15,225,l),
(18,239,l),
(136,239,l),
(147,281,o),
(169,365,o),
(180,407,q),
(64,407,l),
(64,411,o),
(66,417,o),
(66,421,q),
(183,421,l),
(198,477,o),
(227,587,o),
(242,643,q),
(256,643,l),
(241,587,o),
(212,477,o),
(197,421,q),
(367,421,l),
(382,477,o),
(411,587,o),
(426,643,q),
(440,643,l),
(425,587,o),
(396,477,o),
(381,421,q),
(517,421,l),
(517,417,o),
(515,411,o),
(515,407,q),
(378,407,l),
(367,365,o),
(345,281,o),
(334,239,q),
(469,239,l),
(466,225,l),
(330,225,l),
(315,168,o),
(287,57,o),
(272,0,q),
(258,0,l)
);
}
);
width = 571;
},
{
layerId = "D2CF1DA5-D903-47D8-B1EF-8AECFD40CAE8";
shapes = (
{
closed = 1;
nodes = (
(223,345,o),
(210,295,o),
(203,269,q),
(303,269,l),
(310,295,o),
(323,345,o),
(329,371,q),
(229,371,l)
);
},
{
closed = 1;
nodes = (
(245,48,o),
(270,140,o),
(282,188,q),
(182,188,l),
(170,140,o),
(145,48,o),
(133,0,q),
(49,0,l),
(61,48,o),
(86,140,o),
(98,188,q),
(6,188,l),
(27,269,l),
(119,269,l),
(126,295,o),
(139,345,o),
(145,371,q),
(54,371,l),
(59,391,o),
(69,432,o),
(74,452,q),
(166,452,l),
(179,500,o),
(204,595,o),
(217,643,q),
(301,643,l),
(288,595,o),
(263,500,o),
(250,452,q),
(350,452,l),
(363,500,o),
(388,595,o),
(401,643,q),
(485,643,l),
(472,595,o),
(447,500,o),
(434,452,q),
(536,452,l),
(531,432,o),
(521,391,o),
(516,371,q),
(413,371,l),
(407,345,o),
(394,295,o),
(387,269,q),
(489,269,l),
(468,188,l),
(366,188,l),
(354,140,o),
(329,48,o),
(317,0,q),
(233,0,l)
);
}
);
width = 571;
}
);
unicode = 35;
},
{
glyphname = ampersand;
lastChange = "2024-08-09 09:20:29 +0000";
layers = (
{
layerId = m001;
shapes = (
{
closed = 1;
nodes = (
(470,-11,l),
(424,84,l),
(440,106,o),
(460,152,o),
(465.5,176,qs,{
name = inserted;
}),
(471,200,o),
(477,249,o),
(480,274,qs),
(492,361,l),
(598,361,l),
(600,375,l),
(480,375,l),
(454,187,ls),
(450,162.5,o),
(431.5,118,o,{
name = inserted;
}),
(417,98,q),
(225,504,ls),
(216.5,521,o),
(208,556,o,{
name = inserted;
}),
(208,574,qs),
(208,597,o),
(230,654,o),
(251,678.5,qs,{
name = inserted;
}),
(272,703,o),
(334,736,o),
(373,736,qs),
(405,736,o),
(465,710,o),
(492,693,q),
(500,706,l),
(477,722,o),
(414,748,o),
(377,748,qs),
(333,748,o),
(266,714,o),
(243,688,qs,{
name = inserted;
}),
(220,662,o),
(196,600,o),
(196,572,qs),
(196,552,o),
(204,514,o),
(213,496,qs),
(269,379,l),
(230,372,o),
(160,332,o),
(133.5,303,qs,{
name = inserted;
}),
(107,274,o),
(77,199,o),
(77,158,qs),
(77,123,o),
(102,62,o),
(124.5,40,qs,{
name = inserted;
}),
(147,18,o),
(209,-7,o),
(246,-7,qs),
(295,-7,o),
(382,36,o),
(414,72,q),
(458,-19,l)
);
},
{
closed = 1;
nodes = (
(213,7,o),
(156,31,o),
(135,52,qs,{
name = inserted;
}),
(114,73,o),
(91,130,o),
(91,163,qs),
(91,202.898,o),
(125.663,278.752,o),
(154.5,307,qs,{
name = inserted;
}),
(179,331,o),
(240,362,o),
(275,366,q),
(408,85,l),
(379,50,o),
(296,7,o),
(248,7,qs)
);
}
);
width = 700;
},
{
layerId = "D2CF1DA5-D903-47D8-B1EF-8AECFD40CAE8";
shapes = (
{
closed = 1;
nodes = (
(526,24,l),
(468,145,l),
(473,158,o),
(480,190,o),
(482,206,qs,{
name = inserted;
}),
(484,221,o),
(487,246,o),
(488,254,qs),
(494,294,l),
(589,294,l),
(600,375,l),
(421,375,l),
(410,295,ls),
(409,288,o),
(408,280,o),
(407,273,q),
(292,515,ls),
(282,536,o),
(278,580,o),
(285,600,qs),
(291,617,o),
(317,648,o),
(338,660,qs),
(353,669,o),
(387,669,o),
(404,665,qs,{
name = inserted;
}),
(420,661,o),
(449,646,o),
(458,640,q),
(500,705,l),
(483,717,o),
(436,739,o),
(409,744,qs,{
name = inserted;
}),
(382,750,o),
(323,743,o),
(292,726,qs),
(256,706,o),
(211,651,o),
(202,620,qs,{
name = inserted;
}),
(193,590,o),
(198,526,o),
(212,496,qs),
(266,380,l),
(231,374,o),
(167,339,o),
(142,314,qs,{
name = inserted;
}),
(116,288,o),
(83,224,o),
(78,188,qs),
(72,147,o),
(93,76,o),
(116,49,qs,{
name = inserted;
}),
(140,22,o),
(208,-9,o),
(250,-9,qs),
(298,-9,o),
(384,30,o),
(416,63,q),
(455,-19,l)
);
},
{
closed = 1;
nodes = (
(240,72,o),
(204,85,o),
(191,96,qs),
(173,112,o),
(157,160,o),
(161,188,qs),
(165,216,o),
(191,261,o),
(211,275,qs),
(230,289,o),
(276,303,o),
(303,303,q),
(379,141,l),
(362,110,o),
(300,72,o),
(262,72,qs)
);
}
);
width = 700;
}
);
unicode = 38;
},
{
glyphname = at;
lastChange = "2024-08-09 09:20:29 +0000";
layers = (
{
layerId = m001;
shapes = (
{
closed = 1;
nodes = (
(304,150,o),
(323,85,o),
(344,60.5,qs,{
name = inserted;
}),
(365,36,o),
(426,8,o),
(464,8,qs),
(501,8,o),
(571,36,o),
(599,60.5,qs,{
name = inserted;
}),
(627,85,o),
(665,150,o),
(670,188,qs),
(675,225,o),
(656,291,o),
(635,316,qs,{
name = inserted;
}),
(614,341,o),
(552,369,o),
(515,369,qs),
(477,369,o),
(408,341,o),
(380,316,qs,{
name = inserted;
}),
(352,291,o),
(314,225,o),
(309,188,qs)
);
},
{
closed = 1;
nodes = (
(874,129,o),
(840,55,o),
(818,34,qs,{
name = inserted;
}),
(796,14,o),
(747,0,o),
(722,0,qs),
(644,0,l),
(652,54,ls),
(654,70,o),
(659,101,o),
(661,117,q),
(632,63,o),
(525,-6,o),
(462,-6,qs),
(421,-6,o),
(355,24,o),
(332,50,qs,{
name = inserted;
}),
(310,77,o),
(289,147,o),
(295,188,qs),
(301,228,o),
(341,300,o),
(371,326,qs,{
name = inserted;
}),
(401,352,o),
(476,383,o),
(517,383,qs),
(579,383,o),
(666,314,o),
(680,260,q),
(685,289,o),
(695,346,o),
(701,375,q),
(711,375,l),
(660,13,l),
(731,13,ls),
(755,13,o),
(796,29,o),
(813,46,qs),
(833,67,o),
(862,138,o),
(870,188,qs),
(881,267,o),
(841,407,o),
(796,459,qs,{
name = inserted;
}),
(752,511,o),
(621,571,o),
(542,571,qs),
(463,571,o),
(316,511,o),
(257,459,qs,{
name = inserted;
}),
(198,407,o),
(118,267,o),
(107,188,qs),
(96,109,o),
(137,-30,o),
(181,-82,qs,{
name = inserted;
}),
(225,-133,o),
(356,-193,o),
(435,-193,qs),
(497,-193,o),
(613,-155,o),
(664,-123,q),
(666,-126,o),
(669,-131,o),
(671,-134,q),
(617,-168,o),
(499,-207,o),
(433,-207,qs),
(351,-207,o),
(216,-145,o),
(170,-91,qs,{
name = inserted;
}),
(124,-37,o),
(82,107,o),
(94,189,qs),
(105,271,o),
(187,415,o),
(248,469,qs,{
name = inserted;
}),
(310,523,o),
(462,585,o),
(544,585,qs),
(626,585,o),
(762,523,o),
(808,469,qs,{
name = inserted;
}),
(854,415,o),
(896,270,o),
(884,188,qs)
);
}
);
width = 990;
},
{
layerId = "D2CF1DA5-D903-47D8-B1EF-8AECFD40CAE8";
shapes = (
{
closed = 1;
nodes = (
(363,160,o),
(378,113,o),
(396,97,qs),
(409,85,o),
(446,72,o),
(468,72,qs),
(494,72,o),
(539,90,o),
(557,106,qs,{
name = inserted;
}),
(575,121,o),
(598,164,o),
(601,188,qs),
(605,215,o),
(592,260,o),
(577,275,qs),
(564,288,o),
(525,303,o),
(501,303,qs),
(475,303,o),
(430,286,o),
(412,271,qs,{
name = inserted;
}),
(394,255,o),
(371,213,o),
(367,188,qs)
);
},
{
closed = 1;
nodes = (
(900,135,o),
(847,64,o),
(816,42,qs,{
name = inserted;
}),
(785,19,o),
(718,0,o),
(691,0,qs),
(585,0,l),
(588,20,ls),
(589,25,o),
(590,35,o),
(591,40,q),
(579,25,o),
(509,-9,o),
(457,-9,qs),
(415,-9,o),
(345,22,o),
(322,49,qs,{
name = inserted;
}),
(299,76,o),
(277,147,o),
(283,187,qs),
(289,226,o),
(330,297,o),
(361,324,qs,{
name = inserted;
}),
(392,351,o),
(470,382,o),
(512,382,qs),
(564,382,o),
(621,344,o),
(631,328,q),
(633,337,o),
(639,361,o),
(642,375,q),
(711,375,l),
(669,81,l),
(702,81,ls),
(722,81,o),
(762,92,o),
(779,105,qs,{
name = inserted;
}),
(795,117,o),
(820,158,o),
(825,188,qs),
(836,259,o),
(800,383,o),
(761,430,qs,{
name = inserted;
}),
(721,476,o),
(606,529,o),
(536,529,qs),
(465,529,o),
(334,476,o),
(282,430,qs,{
name = inserted;
}),
(229,383,o),
(158,259,o),
(148,188,qs),
(138,117,o),
(174,-6,o),
(214,-52,qs,{
name = inserted;
}),
(254,-98,o),
(370,-151,o),
(441,-151,qs),
(500,-151,o),
(610,-116,o),
(659,-85,q),
(670,-100,o),
(690,-129,o),
(701,-144,q),
(645,-188,o),
(512,-232,o),
(429,-232,qs),
(341,-232,o),
(196,-166,o),
(147,-109,qs,{
name = inserted;
}),
(97,-52,o),
(53,102,o),
(65,189,qs),
(77,276,o),
(165,430,o),
(231,487,qs,{
name = inserted;
}),
(296,544,o),
(460,610,o),
(548,610,qs),
(635,610,o),
(779,544,o),
(828,487,qs,{
name = inserted;
}),
(877,430,o),
(923,276,o),
(909,188,qs)
);
}
);
width = 990;
}
);
unicode = 64;
},
{
glyphname = section;
lastChange = "2024-08-09 09:20:29 +0000";
layers = (
{
layerId = m001;
shapes = (
{
closed = 1;
nodes = (
(229,286,o),
(272,262,o),
(299,262,qs),
(321,262,o),
(361,281,o),
(376,297,qs,{
name = inserted;
}),
(390,313,o),
(407,351,o),
(407,371,qs),
(407,393,o),
(391,427,o),
(377,438,qs),
(364,449,o),
(332,459,o),
(315,459,qs),
(290,459,o),
(252,438,o),
(238,422,qs,{
name = inserted;
}),
(225,406,o),
(211,367,o),
(211,348,qs),
(211,337,o,{
name = inserted;
}),
(214,318,o),
(218,311,qs)
);
},
{
closed = 1;
nodes = (
(205,304,ls),
(200.5,314.5,o,{
name = inserted;
}),
(196,336,o),
(196,347,qs),
(196,369,o),
(214,413,o),
(230.5,431,qs,{
name = inserted;
}),
(247,449,o),
(293,472,o),
(320,472,qs),
(336.5,472,o,{
name = inserted;
}),
(365.5,464,o),
(378,456,q),
(367,480,o),
(343,534,o),
(333,559.5,qs,{
name = inserted;
}),
(323,585,o),
(310,629,o),
(310,642,qs),
(310,661,o),
(327,688,o),
(340.5,697.5,qs,{
name = inserted;
}),
(354,707,o),
(387,722,o),
(402,730,q),
(403,728,o),
(405,722,o),
(407,718,q),
(393,710,o),
(364,697,o),
(351.5,688.5,qs,{
name = inserted;
}),
(339,680,o),
(323,659,o),
(323,643,qs),
(323,628,o),
(341,574,o),
(354.5,542,qs,{
name = inserted;
}),
(368,510,o),
(399,443,o),
(412,415,qs),
(416.5,404.5,o,{
name = inserted;
}),
(421,383.5,o),
(421,373,qs),
(421,351,o),
(402,306,o),
(384.5,288,qs,{
name = inserted;
}),
(367,270,o),
(321,247,o),
(294,247,qs),
(278.5,247,o,{
name = inserted;
}),
(250.5,255.5,o),
(238,264,q),
(287,154,ls),
(298,130,o),
(306,92,o),
(306,79,qs),
(306,59,o),
(289,32,o),
(275.5,21.5,qs,{
name = inserted;
}),
(262,11,o),
(230,-4,o),
(216,-10,q),
(210,2,l),
(223,9,o),
(253,23,o),
(265.5,31,qs,{
name = inserted;
}),
(278,39,o),
(294,61,o),
(294,77,qs),
(294,90,o,{
name = inserted;
}),
(282.5,128.5,o),
(271,154,qs)
);
}
);
width = 500;
},
{
layerId = "D2CF1DA5-D903-47D8-B1EF-8AECFD40CAE8";
shapes = (
{
closed = 1;
nodes = (
(249,345,o),
(257,319,o),
(267,311,qs),
(274,304,o),
(294,296,o),
(306,296,qs),
(318,296,o),
(341,305,o),
(351,312,qs),
(362,321,o),
(377,346,o),
(379,360,qs),
(381,373,o),
(374,397,o),
(367,405,qs),
(359,414,o),
(337,424,o),
(324,424,qs),
(310,424,o),
(284,413,o),
(274,403,qs),
(265,395,o),
(253,373,o),
(251,360,qs)
);
},
{
closed = 1;
nodes = (
(192,258,ls,{
name = inserted;
}),
(180,284,o),
(171,353,o),
(180,384,qs,{
name = inserted;
}),
(187,406,o),
(211,446,o),
(228,461,qs),
(242,474,o),
(268.176,488.684,o),
(284,493,qs),
(292,496,o),
(308,499,o),
(317,500,q),
(309,517,o),
(294,551,o),
(286,569,qs),
(272,602,o),
(267,649,o),
(273,666,qs,{
name = inserted;
}),
(279,684,o),
(306,708,o),
(324,718,qs),
(344,729,o),
(385,751,o),
(405,762,q),
(412,745,o,{
name = inserted;
}),
(428,710,o),
(437,692,q),
(426,687,o),
(406,676,o),
(395,670,qs),
(382,663,o),
(367,648,o),
(364,638,qs,{
name = inserted;
}),
(362,628,o),
(368,601,o),
(378,580,qs),
(392,549,o),
(434,459,o),
(447,431,qs),
(458,408,o),
(459,356,o),
(451,330,qs,{
name = inserted;
}),
(445,310,o),
(421,272,o),
(405,256,qs),
(394,245,o),
(364,229,o),
(349,223,qs),
(340,220,o),
(322,215,o),
(312,214,q),
(344,144,ls),
(359,111,o),
(364,63,o),
(358,46,qs,{
name = inserted;
}),
(352,28,o),
(325,3,o),
(307,-7,qs),
(287,-18,o),
(248,-39,o),
(228,-50,q),
(195,20,l),
(206,26,o),
(227,37,o),
(238,43,qs),
(251,50,o),
(266,66,o),
(266,78,qs,{
name = inserted;
}),
(267,89,o),
(256,122,o),
(244,148,qs)
);
}
);
width = 500;
}
);
unicode = 167;
},
{
glyphname = paragraph;
lastChange = "2024-08-09 09:20:29 +0000";
layers = (
{
layerId = m001;
shapes = (
{
closed = 1;
nodes = (
(201,0,l),
(260,423,l),
(226,423,o),
(170,448,o),
(151,470,qs,{
name = inserted;
}),
(132,492,o),
(115,552,o),
(120,586,qs),
(125,620,o),
(159,680,o),
(184,702,qs,{
name = inserted;
}),
(209,724,o),
(272,750,o),
(306,750,qs),
(591,750,l),
(589,736,l),
(481,736,l),
(379,14,l),
(487,14,l),
(486,0,l),
(364,0,l),
(467,736,l),
(318,736,l),
(215,0,l)
);
}
);
width = 489;
},
{
layerId = "D2CF1DA5-D903-47D8-B1EF-8AECFD40CAE8";
shapes = (
{
closed = 1;
nodes = (
(201,0,l),
(260,423,l),
(226,423,o),
(170,448,o),
(151,470,qs,{
name = inserted;
}),
(132,492,o),
(115,552,o),
(120,586,qs),
(125,620,o),
(159,680,o),
(184,702,qs,{
name = inserted;
}),
(209,724,o),
(272,750,o),
(306,750,qs),
(621,750,l),
(611,680,l),
(542,680,l),
(456,70,l),
(525,70,l),
(516,0,l),
(364,0,l),
(459,680,l),
(379,680,l),
(284,0,l)
);
}
);
width = 547;
}
);
unicode = 182;
},
{
glyphname = asciicircum;
lastChange = "2024-08-09 09:20:29 +0000";
layers = (
{
layerId = m001;
shapes = (
{
closed = 1;
nodes = (
(268,615,o),
(315,524,o),
(339,479,q),
(323,479,l),
(302,517,o),
(261,595,o),
(240,633,q),
(208,595,o),
(147,517,o),
(115,479,q),
(99,479,l),
(135,524,o),
(208,615,o),
(244,660,q)
);
}
);
width = 470;
},
{
layerId = "D2CF1DA5-D903-47D8-B1EF-8AECFD40CAE8";
shapes = (
{
closed = 1;
nodes = (
(268,615,o),
(315,524,o),
(339,479,q),
(280,479,l),
(263,503,o),
(246,527,o),
(229,551,q),
(212,533,o),
(175,497,o),
(158,479,q),
(99,479,l),
(135,524,o),
(208,615,o),
(244,660,q)
);
}
);
width = 470;
}
);
unicode = 94;
},
{
glyphname = asciitilde;
lastChange = "2024-08-09 09:20:29 +0000";
layers = (
{
layerId = m001;
shapes = (
{
closed = 1;
nodes = (
(256,515,o),
(234,527,o),
(220,527,qs),
(212,527,o),
(190,522,o),
(180,516,qs,{
name = inserted;
}),
(169,510,o),
(150,489,o),
(146,472,q),
(143,473,o),
(136,473,o),
(134,474,q),
(137,492,o),
(157,517,o),
(169,525,qs),
(182,533,o),
(210,541,o),
(225,541,qs),
(245,541,o),
(275,520,o),
(289,503,q),
(302,485,o),
(324,473,o),
(338,473,qs),
(346,473,o),
(368,478,o),
(379,484,qs,{
name = inserted;
}),
(390,490,o),
(408,511,o),
(412,528,q),
(415,527,o),
(422,527,o),
(425,526,q),
(422,511,o),
(408,489,o),
(399,481,qs),
(385,469,o),
(351,459,o),
(334,459,qs),
(314,459,o),
(284,480,o),
(270,497,qs)
);
}
);
width = 489;
},
{
layerId = "D2CF1DA5-D903-47D8-B1EF-8AECFD40CAE8";
shapes = (
{
closed = 1;
nodes = (
(261,496,o),
(241,507,o),
(227,507,qs),
(218,507,o),
(194,501,o),
(184,491,qs),
(179,486,o),
(170,471,o),
(167,461,q),
(156,462,o),
(134,463,o),
(123,464,q),
(127,484,o),
(149,517,o),
(164,528,qs,{
name = inserted;
}),
(178,540,o),
(211,552,o),
(226,552,qs),
(249,552,o),
(284,534,o),
(298,519,q),
(311,503,o),
(333,493,o),
(347,493,qs),
(354,493,o),
(371,497,o),
(380,502,qs,{
name = inserted;
}),
(388,507,o),
(403,525,o),
(406,539,q),
(421,538,o),
(436,537,o),
(451,536,q),
(447,516,o),
(425,483,o),
(410,472,qs,{
name = inserted;
}),
(396,461,o),
(363,449,o),
(348,449,qs),
(325,449,o),
(288,466,o),
(275,481,qs)
);
}
);
width = 489;
}
);
unicode = 126;
},
{
glyphname = Ccedilla;
lastChange = "2024-08-09 09:20:29 +0000";
layers = (
{
layerId = m001;
shapes = (
{
closed = 1;
nodes = (
(683,649,l),
(648,672,o,{
name = inserted;
}),
(566,694,o),
(520,694,qs),
(449,694,o),
(317,639,o),
(264,592,qs,{
name = inserted;
}),
(210,545,o),
(139,419,o),
(129,348,qs),
(119,277,o),
(155,153,o),
(194,106,qs,{
name = inserted;
}),
(234,60,o),
(351,6,o),
(421,6,qs),
(469,6,o),
(561,31,o),
(603,54,q),
(611,42,l),
(567,19,o),
(473,-8,o),
(422,-8,q),
(421,-12,o,{
name = inserted;
}),
(421,-19,o),
(422,-21,q),
(424,-38,o),
(445,-54,o),
(455,-61,qs),
(475,-76,o),
(490,-113,o),
(488,-127,qs),
(484,-152,o),
(466,-188,o),
(454,-199,qs),
(440,-211,o),
(408,-223,o),
(391,-223,qs),
(365,-223,o),
(323,-194,o),
(318,-165,q),
(333,-161,l),
(336,-182,o),
(367,-209,o),
(392,-209,qs),
(407,-209,o),
(434,-199,o),
(445,-189,qs),
(456,-180,o),
(470,-153,o),
(473,-137,qs),
(477,-109,o),
(455,-79,o),
(441,-68,qs,{
name = inserted;
}),
(427,-58,o),
(404,-36,o),
(407,-16,qs),
(408,-7,l),
(337,-4,o),
(220,53,o),
(180,101,qs,{
name = inserted;
}),
(140,149,o),
(105,277,o),
(115,349,qs),
(125,423,o),
(200,554,o),
(255,602,qs,{
name = inserted;
}),
(310,651,o),
(448,708,o),
(522,708,qs),
(573,708,o),
(661,682,o),
(698,658,q),
(674,484,l),
(660,484,l)
);
}
);
width = 610;
},
{
layerId = "D2CF1DA5-D903-47D8-B1EF-8AECFD40CAE8";
shapes = (
{
closed = 1;
nodes = (
(616,607,l),
(592,618,o,{
name = inserted;
}),
(542,629,o),
(515,629,qs),
(458,629,o),
(352,585,o),
(310,546,qs,{
name = inserted;
}),
(267,508,o),
(210,406,o),
(202,349,qs),
(194,292,o),
(223,190,o),
(255,152,qs,{
name = inserted;
}),
(287,115,o),
(380,71,o),
(437,71,qs),
(474,71,o,{
name = inserted;
}),
(544,90,o),
(579,108,q),
(615,42,l),
(573,20,o),
(486,-6,o),
(440,-8,q),
(439,-14,o,{
name = inserted;
}),
(438,-22,o),
(439,-22,q),
(441,-41,o),
(464,-53,o),
(474,-61,qs),
(493,-77,o),
(504,-117,o),
(501,-142,qs),
(498,-163,o),
(479,-202,o),
(464,-217,qs,{
name = inserted;
}),
(449,-232,o),
(407,-250,o),
(381,-250,qs),
(347,-250,o),
(295,-213,o),
(287,-175,q),
(336,-151,l),
(339,-167,o),
(362,-188,o),
(382,-188,qs),
(394,-188,o),
(414,-180,o),
(421,-172,qs),
(429,-165,o),
(438,-144,o),
(440,-132,qs),
(443,-112,o),
(425,-89,o),
(414,-80,qs,{
name = inserted;
}),
(402,-71,o),
(383,-51,o),
(385,-34,qs),
(389,-6,l),
(322,1,o),
(214,61,o),
(178,108,qs,{
name = inserted;
}),
(141,156,o),
(109,280,o),
(119,349,qs),
(129,423,o),
(204,554,o),
(259,602,qs,{
name = inserted;
}),
(314,651,o),
(452,708,o),
(526,708,qs),
(577,708,o),
(665,682,o),
(702,658,q),
(671,436,l),
(592,436,l)
);
}
);
width = 610;
}
);
unicode = 199;
},
{
glyphname = Eth;
lastChange = "2024-08-09 09:20:29 +0000";
layers = (
{
layerId = m001;
shapes = (
{
closed = 1;
nodes = (
(158,360,l),
(204,686,l),
(131,686,l),
(133,700,l),
(343,700,ls),
(415,700,o),
(536,651,o),
(577.5,605.5,qs,{
name = inserted;
}),
(619,560,o),
(657,430,o),
(646,350,qs),
(637,291,o),
(579,167,o),
(526,116,qs,{
name = inserted;
}),
(473,65,o),
(317,0,o),
(211,0,qs),
(35,0,l),
(36,14,l),
(109,14,l),
(156,346,l),
(92,346,l),
(94,360,l)
);
},
{
closed = 1;
nodes = (
(172,360,l),
(396,360,l),
(394,346,l),
(170,346,l),
(124,15,l),
(222,15,ls),
(321,15,o),
(468,77,o),
(518.5,126,qs,{
name = inserted;
}),
(569,175,o),
(625,293,o),
(633,350,qs),
(644,427,o),
(608,552,o),
(568.5,595.5,qs,{
name = inserted;
}),
(529,639,o),
(414,686,o),
(347,686,qs),
(218,686,l)
);
}
);
width = 632;
},
{
layerId = "D2CF1DA5-D903-47D8-B1EF-8AECFD40CAE8";
shapes = (
{
closed = 1;
nodes = (
(136,390,l),
(169,621,l),
(122,621,l),
(133,700,l),
(343,700,ls),
(415,700,o),
(536,651,o),
(577.5,605,qs,{
name = inserted;
}),
(619,559,o),
(657,430,o),
(646,349,qs),
(637,290,o),
(579,166,o),
(526,115.5,qs,{
name = inserted;
}),
(473,65,o),
(317,0,o),
(211,0,qs),
(35,0,l),
(46,79,l),
(93,79,l),
(125,309,l),
(87,309,l),
(98,390,l)
);
},
{
closed = 1;
nodes = (
(219,390,l),
(400,390,l),
(389,309,l),
(208,309,l),
(176,79,l),
(246,79,ls),
(305,79,o),
(412,118,o),
(454.5,153,qs,{
name = inserted;
}),
(497,188,o),
(554,288,o),
(563,350,qs),
(572,412,o),
(543,512,o),
(510,547.5,qs,{
name = inserted;
}),
(477,583,o),
(381,621,o),
(322,621,qs),
(252,621,l)
);
}
);
width = 632;
}
);
unicode = 208;
},
{
glyphname = Oslash;
lastChange = "2024-08-09 09:20:29 +0000";
layers = (
{
layerId = m001;
shapes = (
{
closed = 1;
nodes = (
(88,272,o),
(129,142,o),
(174,95,q),
(304,228,o),
(559,489,o),
(689,622,q),
(650,656,o),
(549,694,o),
(490,694,qs),
(419,694,o),
(287,639,o),
(233.5,592,qs,{
name = inserted;
}),
(180,545,o),
(109,419,o),
(99,348,qs)
);
},
{
closed = 1;
nodes = (
(461,6,o),
(596,60,o),
(650,106.5,qs,{
name = inserted;
}),
(704,153,o),
(777,278,o),
(787,349,qs),
(798,429,o),
(748,567,o),
(697,615,q),
(567,482,o),
(312,220,o),
(182,87,q),
(222,49,o),
(327,6,o),
(390,6,qs)
);
},
{
closed = 1;
nodes = (
(95,423,o),
(170,554,o),
(225,602.5,qs,{
name = inserted;
}),
(280,651,o),
(418,708,o),
(492,708,qs),
(554,708,o),
(659,668,o),
(701,633,q),
(773,708,l),
(781,700,l),
(762,681,o),
(727,645,o),
(709,626,q),
(762,576,o),
(812,433,o),
(801,349,qs),
(790,275,o),
(716,145,o),
(660.5,96.5,qs,{
name = inserted;
}),
(605,48,o),
(466,-8,o),
(392,-8,qs),
(326,-8,o),
(214,37,o),
(172,77,q),
(152,56,o),
(110,13,o),
(90,-8,q),
(88,-6,o),
(84,-2,o),
(82,0,q),
(103,21,o),
(144,64,o),
(165,85,q),
(117,134,o),
(74,270,o),
(85,349,qs)
);
}
);
width = 786;
},
{
layerId = "D2CF1DA5-D903-47D8-B1EF-8AECFD40CAE8";
shapes = (
{
closed = 1;
nodes = (
(161,296,o),
(184,203,o),
(211,166,q),
(350,305,o),
(488,443,o),
(627,582,q),
(597,604,o),
(524,629,o),
(482,629,qs),
(425,629,o),
(319,585,o),
(277,547,qs,{
name = inserted;
}),
(234,508,o),
(177,406,o),
(169,349,qs)
);
},
{
closed = 1;
nodes = (
(461,71,o),
(567,115,o),
(610,153,qs,{
name = inserted;
}),
(653,190,o),
(711,292,o),
(719,349,qs),
(727,401,o),
(703,494,o),
(677,531,q),
(572,426,o),
(367,220,o),
(262,115,q),
(291,94,o),
(362,71,o),
(404,71,qs)
);
},
{
closed = 1;
nodes = (
(96,423,o),
(171,554,o),
(226,603,qs,{
name = inserted;
}),
(281,651,o),
(419,708,o),
(493,708,qs),
(550,708,o),
(649,674,o),
(688,644,q),
(763,719,l),
(814,668,l),
(795,649,o),
(758,613,o),
(739,594,q),
(777,546,o),
(812,420,o),
(802,349,qs),
(791,275,o),
(717,145,o),
(662,97,qs,{
name = inserted;
}),
(606,48,o),
(467,-8,o),
(393,-8,qs),
(336,-8,o),
(239,24,o),
(200,53,q),
(183,36,o),
(148,0,o),
(131,-17,q),
(118,-4,o),
(92,21,o),
(80,34,q),
(97,51,o),
(131,86,o),
(148,103,q),
(110,151,o),
(76,277,o),
(86,349,qs)
);
}
);
width = 786;
}
);
unicode = 216;
},
{
glyphname = ccedilla;
lastChange = "2024-08-09 09:20:29 +0000";
layers = (
{
layerId = m001;
shapes = (
{
closed = 1;
nodes = (
(345,37,l),
(312,15,o),
(249,-5,o),
(226,-5,q),
(225,-14,o),
(226,-28,o),
(229,-34,qs),
(235,-43,o),
(253,-56,o),
(260,-61,qs),
(280,-76,o),
(294,-113,o),
(292,-127,qs),
(288,-154,o),
(268,-192,o),
(254,-203,qs),
(241,-213,o),
(211,-223,o),
(195,-223,qs),
(180.327,-223,o),
(155.346,-213.76,o),
(145,-206,qs),
(137,-199,o),
(125,-179,o),
(122,-165,q),
(138,-161,l),
(139,-171,o),
(147,-187,o),
(153,-193,qs),
(161,-200,o),
(183,-209,o),
(197,-209,qs),
(212,-209,o),
(238,-199,o),
(248,-190,qs),
(259,-181,o),
(274,-153,o),
(277,-137,qs),
(281,-109,o),
(259,-79,o),
(245,-68,qs,{
name = inserted;
}),
(231,-58,o),
(208,-36,o),
(211,-16,qs),
(212,-6,l),
(173,-5,o),
(108,25,o),
(86,52,qs,{
name = inserted;
}),
(64,78,o),
(44,148,o),
(50,188,qs),
(56,228,o),
(96,300,o),
(126,326,qs,{
name = inserted;
}),
(156,352,o),
(230,383,o),
(271,383,qs),
(306,383,o),
(366,360,o),
(388,340,q),
(376,252,l),
(362,252,l),
(373,332,l),
(352,349,o),
(300,369,o),
(269,369,qs),
(231,369,o),
(162,341,o),
(134,316,qs,{
name = inserted;
}),
(106,291,o),
(69,225,o),
(64,188,qs),
(59,150,o),
(77,85,o),
(98,61,qs,{
name = inserted;
}),
(119,36,o),
(180,8,o),
(218,8,qs),
(250,8,o),
(311,29,o),
(337,47,q)
);
}
);
width = 387;
},
{
layerId = "D2CF1DA5-D903-47D8-B1EF-8AECFD40CAE8";
shapes = (
{
closed = 1;
nodes = (
(356,34,l),
(327,14,o),
(260,-9,o),
(224,-9,q),
(222,-24,o),
(227,-40,o),
(232,-45,qs,{
name = inserted;
}),
(238,-50,o),
(253,-56,o),
(259,-61,qs),
(278,-77,o),
(289,-117,o),
(285,-142,qs),
(281,-167,o),
(257,-211,o),
(238,-226,qs),
(222.731,-237.452,o,{
name = inserted;
}),
(186.005,-250,o),
(165,-250,qs),
(149,-250,o),
(119,-242,o),
(107,-233,qs),
(94,-224,o),
(75,-195,o),
(71,-175,q),
(121,-151,l),
(122,-159,o),
(129,-171,o),
(134,-176,qs),
(140,-182,o),
(156,-188,o),
(167,-188,qs),
(180,-188,o),
(202,-178,o),
(209,-169,qs),
(215,-162,o),
(223,-143,o),
(225,-132,qs),
(228,-112,o),
(209,-89,o),
(198,-80,qs,{
name = inserted;
}),
(186,-71,o),
(167,-51,o),
(169,-34,qs),
(174,-2,l),
(143,6,o),
(94,42,o),
(78,67,qs,{
name = inserted;
}),
(61,92,o),
(48,154,o),
(53,188,qs),
(59,228,o),
(100,300,o),
(130,326,qs,{
name = inserted;
}),
(161,353,o),
(238,384,o),
(280,384,qs),
(317,384,o),
(378,361,o),
(401,341,q),
(385,225,l),
(310,225,l),
(319,292,l),
(307,298,o,{
name = inserted;
}),
(282,303,o),
(269,303,qs),
(243,303,o),
(198,286,o),
(180,270,qs,{
name = inserted;
}),
(162,255,o),
(139,213,o),
(136,188,qs),
(132,164,o),
(143,121,o),
(156,106,qs,{
name = inserted;
}),
(170,90,o),
(210,72,o),
(236,72,qs),
(258,72,o,{
name = inserted;
}),
(297,84,o),
(315,97,q)
);
}
);
width = 398;
}
);
unicode = 231;
},
{
glyphname = oslash;
lastChange = "2024-08-09 09:20:29 +0000";
layers = (
{
layerId = m001;
shapes = (
{
closed = 1;
nodes = (
(71,150,o),
(90,83,o),
(112,58,q),
(180,127,o),
(314,266,o),
(382,335,q),
(362,351,o),
(310,369,o),
(281,369,qs),
(243,369,o),
(174,341,o),
(146,316,qs,{
name = inserted;
}),
(118,291,o),
(81,225,o),
(76,188,qs)
);
},
{
closed = 1;
nodes = (
(268,8,o),
(338,36,o),
(366,60.5,qs,{
name = inserted;
}),
(394,85,o),
(432,150,o),
(437,188,qs),
(443,230,o),
(417,302,o),
(391,327,q),
(323,258,o),
(188,119,o),
(120,50,q),
(142,29,o,{
name = inserted;
}),
(197.5,8,o),
(231,8,qs)
);
},
{
closed = 1;
nodes = (
(68,228,o),
(108,300,o),
(138,326,qs,{
name = inserted;
}),
(168,352,o),
(242,383,o),
(283,383,qs),
(315,383,o),
(371,363,o),
(393,346,q),
(402,355,o),
(421,374,o),
(429,383,q),
(431,381,o),
(435,377,o),
(437,375,q),
(429,366,o),
(410,347,o),
(401,338,q),
(430,312,o),
(457,233,o),
(451,188,qs),
(445,147,o),
(405,77,o),
(375,50.5,qs,{
name = inserted;
}),
(345,24,o),
(269,-6,o),
(229,-6,qs),
(193,-6,o),
(132,18,o),
(109,39,q),
(98,27,o),
(75,4,o),
(64,-8,q),
(62,-6,o),
(58,-2,o),
(56,0,q),
(67,12,o),
(90,35,o),
(101,47,q),
(77,73,o),
(56,146,o),
(62,188,qs)
);
}
);
width = 458;
},
{
layerId = "D2CF1DA5-D903-47D8-B1EF-8AECFD40CAE8";
shapes = (
{
closed = 1;
nodes = (
(145,170.5,o,{
name = inserted;
}),
(149,139,o),
(156,125,q),
(213,182,o),
(269,238,o),
(326,295,q),
(315,299,o,{
name = inserted;
}),
(292.5,303,o),
(281,303,qs),
(255,303,o),
(210,286,o),
(192,270.5,qs,{
name = inserted;
}),
(174,255,o),
(151,213,o),
(148,188,q)
);
},
{
closed = 1;
nodes = (
(274,72,o),
(319,90,o),
(337,105.5,qs,{
name = inserted;
}),
(355,121,o),
(378,164,o),
(382,188,qs),
(384.5,208.5,o,{
name = inserted;
}),
(378,244,o),
(369,259,q),
(324,215,o),
(238,129,o),
(194,85,q),
(206,78.5,o,{
name = inserted;
}),
(233,72,o),
(248,72,qs)
);
},
{
closed = 1;
nodes = (
(71,228,o),
(112,300,o),
(142.5,326.5,qs,{
name = inserted;
}),
(173,353,o),
(250,384,o),
(292,384,qs),
(320,384,o,{
name = inserted;
}),
(368,371,o),
(388,358,q),
(399,369,o),
(421,390,o),
(432,401,q),
(442,391,o),
(461,371,o),
(471,361,q),
(458,348,o),
(444,334,o),
(431,321,q),
(452,295,o),
(471,226,o),
(466,188,qs),
(460,147,o),
(419,76,o),
(388,49,qs,{
name = inserted;
}),
(357,22,o),
(279,-9,o),
(237,-9,qs),
(206,-9,o),
(154,8,o),
(132,23,q),
(120,11,o),
(96,-14,o),
(84,-26,q),
(73,-16,o),
(53,2,o),
(43,12,q),
(55,25,o),
(80,49,o),
(93,62,q),
(75,88,o),
(60,152,o),
(65,188,qs)
);
}
);
width = 471;
}
);
unicode = 248;
},
{
glyphname = grave;
lastChange = "2024-08-09 09:20:29 +0000";
layers = (
{
layerId = m001;
shapes = (
{
closed = 1;
nodes = (
(29,579,o),
(64,512,o),
(82,479,q),
(66,479,l),
(48,512,o),
(13,579,o),
(-4,612,q),
(11,612,l)
);
}
);
width = 200;
},
{
layerId = "D2CF1DA5-D903-47D8-B1EF-8AECFD40CAE8";
shapes = (
{
closed = 1;
nodes = (
(65,579,o),
(89,512,o),
(103,479,q),
(44,479,l),
(24,512,o),
(-11,579,o),
(-31,612,q),
(51,612,l)
);
}
);
width = 200;
}
);
unicode = 96;
},
{
glyphname = acute;
lastChange = "2024-08-09 09:20:29 +0000";
layers = (
{
layerId = m001;
shapes = (
{
closed = 1;
nodes = (
(127,512,o),
(181,579,o),
(208,612,q),
(224,612,l),
(197,579,o),
(143,512,o),
(116,479,q),
(100,479,l)
);
}
);
width = 218;
},
{
layerId = "D2CF1DA5-D903-47D8-B1EF-8AECFD40CAE8";
shapes = (
{
closed = 1;
nodes = (
(127,512,o),
(181,579,o),
(208,612,q),
(292,612,l),
(248,568,o),
(203,523,o),
(159,479,q),
(100,479,l)
);
}
);
width = 274;
}
);
unicode = 180;
},
{
glyphname = macron;
lastChange = "2024-08-09 09:20:29 +0000";
layers = (
{
layerId = m001;
shapes = (
{
closed = 1;
nodes = (
(86,506,l),
(316,506,l),
(315,492,l),
(85,492,l)
);
}
);
width = 399;
},
{
layerId = "D2CF1DA5-D903-47D8-B1EF-8AECFD40CAE8";
shapes = (
{
closed = 1;
nodes = (
(92,531,l),
(322,531,l),
(315,478,l),
(85,478,l)
);
}
);
width = 399;
}
);
unicode = 175;
},
{
glyphname = dieresis;
lastChange = "2024-08-09 09:20:29 +0000";
layers = (
{
layerId = m001;
shapes = (
{
closed = 1;
nodes = (
(251,508,o),
(264,520,o),
(272,520,qs),
(280,520,o),
(291,508,o),
(289,500,q),
(288,492,o),
(275,480,o),
(267,480,qs),
(259,480,o),
(248,492,o),
(249,500,q)
);
},
{
closed = 1;
nodes = (
(86,508,o),
(99,520,o),
(107,520,qs),
(115,520,o),
(126,508,o),
(124,500,q),
(123,492,o),
(110,480,o),
(102,480,qs),
(94,480,o),
(83,492,o),
(84,500,q)
);
}
);
width = 370;
},
{
layerId = "D2CF1DA5-D903-47D8-B1EF-8AECFD40CAE8";
shapes = (
{
closed = 1;
nodes = (
(225,543,o),
(261,573,o),
(281,573,qs),
(300,573,o),
(328,543,o),
(325,520,qs),
(321,497,o),
(286,468,o),
(267,468,qs),
(247,468,o),
(218,497,o),
(222,520,qs)
);
},
{
closed = 1;
nodes = (
(59,543,o),
(95,573,o),
(115,573,qs),
(134,573,o),
(162,543,o),
(159,520,qs),
(155,497,o),
(120,468,o),
(101,468,qs),
(81,468,o),
(52,497,o),
(56,520,qs)
);
}
);
width = 370;
}
);
unicode = 168;
},
